0
SECTION
2
HEADER
9
$INSUNITS
70
4
9
$ACADVER
1
AC1014
9
$HANDSEED
5
FFFF
0
ENDSEC
0
SECTION
2
TABLES
0
TABLE
2
VPORT
5
8
100
AcDbSymbolTable
0
ENDTAB
0
TABLE
2
LTYPE
5
5
100
AcDbSymbolTable
70
2
0
LTYPE
5
14
100
AcDbSymbolTableRecord
100
AcDbLinetypeTableRecord
2
BYBLOCK
70
0
0
LTYPE
5
15
100
AcDbSymbolTableRecord
100
AcDbLinetypeTableRecord
2
BYLAYER
70
0
0
ENDTAB
0
TABLE
2
LAYER
5
2
100
AcDbSymbolTable
70
3
0
LAYER
5
50
100
AcDbSymbolTableRecord
100
AcDbLayerTableRecord
2
0
70
0
6
CONTINUOUS
0
LAYER
5
51
100
AcDbSymbolTableRecord
100
AcDbLayerTableRecord
2
CUTOUTS
70
0
62
1
6
CONTINUOUS
0
LAYER
5
52
100
AcDbSymbolTableRecord
100
AcDbLayerTableRecord
2
PERIMETER
70
0
62
5
6
CONTINUOUS
0
ENDTAB
0
TABLE
2
STYLE
5
3
100
AcDbSymbolTable
70
1
0
STYLE
5
11
100
AcDbSymbolTableRecord
100
AcDbTextStyleTableRecord
2
STANDARD
70
0
0
ENDTAB
0
TABLE
2
VIEW
5
6
100
AcDbSymbolTable
0
ENDTAB
0
TABLE
2
UCS
5
7
100
AcDbSymbolTable
0
ENDTAB
0
TABLE
2
APPID
5
9
100
AcDbSymbolTable
70
1
0
APPID
5
12
100
AcDbSymbolTableRecord
100
AcDbRegAppTableRecord
2
ACAD
70
0
0
ENDTAB
0
TABLE
2
DIMSTYLE
5
A
100
AcDbSymbolTable
0
ENDTAB
0
TABLE
2
BLOCK_RECORD
5
1
100
AcDbSymbolTable
70
2
0
BLOCK_RECORD
5
1F
100
AcDbSymbolTableRecord
100
AcDbBlockTableRecord
2
*MODEL_SPACE
0
BLOCK_RECORD
5
1B
100
AcDbSymbolTableRecord
100
AcDbBlockTableRecord
2
*PAPER_SPACE
0
ENDTAB
0
ENDSEC
0
SECTION
2
BLOCKS
0
BLOCK
5
20
100
AcDbEntity
100
AcDbBlockBegin
2
*MODEL_SPACE
0
ENDBLK
5
21
100
AcDbEntity
100
AcDbBlockEnd
0
BLOCK
5
1C
100
AcDbEntity
100
AcDbBlockBegin
2
*PAPER_SPACE
0
ENDBLK
5
1D
100
AcDbEntity
100
AcDbBlockEnd
0
ENDSEC
0
SECTION
2
ENTITIES
0
LWPOLYLINE
5
100
100
AcDbEntity
8
CUTOUTS
100
AcDbPolyline
90
4
70
1
43
0.0
10
43.07500000000001
20
-40.075000000000003
10
47.925000000000004
20
-40.075000000000003
10
47.925000000000004
20
-59.92499999999999
10
43.07500000000001
20
-59.92499999999999
0
LWPOLYLINE
5
101
100
AcDbEntity
8
PERIMETER
100
AcDbPolyline
90
56
70
1
43
0.0
10
80.075000000000017
20
0.074999999999905143
10
59.925000000000011
20
0.074999999999905143
10
59.925000000000011
20
-4.9250000000000238
10
47.925000000000004
20
-4.9249999999999945
10
47.925000000000004
20
-19.924999999999994
10
43.07500000000001
20
-19.924999999999994
10
43.07500000000001
20
-4.9249999999999954
10
40.075000000000017
20
-4.9250000000000229
10
40.075000000000017
20
0.074999999999905143
10
19.925000000000015
20
0.07499999999997646
10
19.925000000000015
20
-4.9250000000000238
10
4.9250000000000167
20
-4.9250000000000238
10
4.9250000000000167
20
-19.925000000000026
10
-0.074999999999947331
20
-19.925000000000026
10
-0.074999999999947331
20
-40.075000000000031
10
4.9250000000000167
20
-40.075000000000031
10
4.9250000000000167
20
-59.925000000000026
10
-0.074999999999947331
20
-59.925000000000026
10
-0.074999999999947331
20
-80.075000000000045
10
4.9250000000000167
20
-80.075000000000045
10
4.9250000000000167
20
-95.075000000000045
10
19.925000000000015
20
-95.075000000000045
10
19.925000000000015
20
-100.07500000000007
10
40.075000000000017
20
-100.07500000000014
10
40.075000000000017
20
-95.075000000000045
10
43.07500000000001
20
-95.075000000000003
10
43.07500000000001
20
-80.075000000000003
10
47.925000000000004
20
-80.075000000000003
10
47.925000000000004
20
-95.075000000000003
10
59.925000000000011
20
-95.075000000000045
10
59.925000000000011
20
-100.07500000000014
10
80.075000000000017
20
-100.07500000000014
10
80.075000000000017
20
-95.075000000000045
10
99.925000000000011
20
-95.075000000000045
10
99.925000000000011
20
-100.07500000000014
10
120.07500000000002
20
-100.07500000000014
10
120.07500000000002
20
-95.075000000000045
10
139.92500000000001
20
-95.075000000000045
10
139.92500000000001
20
-100.07500000000014
10
160.07500000000005
20
-100.0750000000001
10
160.07500000000005
20
-80.075000000000045
10
165.07500000000005
20
-80.075000000000045
10
165.07500000000005
20
-59.925000000000033
10
160.07500000000005
20
-59.925000000000026
10
160.07500000000005
20
-40.075000000000031
10
165.07500000000005
20
-40.075000000000031
10
165.07500000000005
20
-19.925000000000026
10
160.07500000000005
20
-19.925000000000026
10
160.07500000000005
20
0.074999999999905143
10
139.92500000000001
20
0.074999999999905143
10
139.92500000000001
20
-4.9250000000000238
10
120.07500000000002
20
-4.9250000000000238
10
120.07500000000002
20
0.074999999999905143
10
99.925000000000011
20
0.074999999999905143
10
99.925000000000011
20
-4.9250000000000238
10
80.075000000000017
20
-4.9250000000000238
0
ENDSEC
0
SECTION
2
OBJECTS
0
DICTIONARY
5
C
100
AcDbDictionary
3
ACAD_GROUP
350
D
3
ACAD_MLINESTYLE
350
17
0
DICTIONARY
5
D
100
AcDbDictionary
0
DICTIONARY
5
1A
330
C
100
AcDbDictionary
0
DICTIONARY
5
17
100
AcDbDictionary
0
ENDSEC
0
EOF
