0
SECTION
2
HEADER
9
$INSUNITS
70
4
9
$ACADVER
1
AC1014
9
$HANDSEED
5
FFFF
0
ENDSEC
0
SECTION
2
TABLES
0
TABLE
2
VPORT
5
8
100
AcDbSymbolTable
0
ENDTAB
0
TABLE
2
LTYPE
5
5
100
AcDbSymbolTable
70
2
0
LTYPE
5
14
100
AcDbSymbolTableRecord
100
AcDbLinetypeTableRecord
2
BYBLOCK
70
0
0
LTYPE
5
15
100
AcDbSymbolTableRecord
100
AcDbLinetypeTableRecord
2
BYLAYER
70
0
0
ENDTAB
0
TABLE
2
LAYER
5
2
100
AcDbSymbolTable
70
3
0
LAYER
5
50
100
AcDbSymbolTableRecord
100
AcDbLayerTableRecord
2
0
70
0
6
CONTINUOUS
0
LAYER
5
51
100
AcDbSymbolTableRecord
100
AcDbLayerTableRecord
2
CUTOUTS
70
0
62
1
6
CONTINUOUS
0
LAYER
5
52
100
AcDbSymbolTableRecord
100
AcDbLayerTableRecord
2
PERIMETER
70
0
62
5
6
CONTINUOUS
0
ENDTAB
0
TABLE
2
STYLE
5
3
100
AcDbSymbolTable
70
1
0
STYLE
5
11
100
AcDbSymbolTableRecord
100
AcDbTextStyleTableRecord
2
STANDARD
70
0
0
ENDTAB
0
TABLE
2
VIEW
5
6
100
AcDbSymbolTable
0
ENDTAB
0
TABLE
2
UCS
5
7
100
AcDbSymbolTable
0
ENDTAB
0
TABLE
2
APPID
5
9
100
AcDbSymbolTable
70
1
0
APPID
5
12
100
AcDbSymbolTableRecord
100
AcDbRegAppTableRecord
2
ACAD
70
0
0
ENDTAB
0
TABLE
2
DIMSTYLE
5
A
100
AcDbSymbolTable
0
ENDTAB
0
TABLE
2
BLOCK_RECORD
5
1
100
AcDbSymbolTable
70
2
0
BLOCK_RECORD
5
1F
100
AcDbSymbolTableRecord
100
AcDbBlockTableRecord
2
*MODEL_SPACE
0
BLOCK_RECORD
5
1B
100
AcDbSymbolTableRecord
100
AcDbBlockTableRecord
2
*PAPER_SPACE
0
ENDTAB
0
ENDSEC
0
SECTION
2
BLOCKS
0
BLOCK
5
20
100
AcDbEntity
100
AcDbBlockBegin
2
*MODEL_SPACE
0
ENDBLK
5
21
100
AcDbEntity
100
AcDbBlockEnd
0
BLOCK
5
1C
100
AcDbEntity
100
AcDbBlockBegin
2
*PAPER_SPACE
0
ENDBLK
5
1D
100
AcDbEntity
100
AcDbBlockEnd
0
ENDSEC
0
SECTION
2
ENTITIES
0
LWPOLYLINE
5
100
100
AcDbEntity
8
CUTOUTS
100
AcDbPolyline
90
4
70
1
43
0.0
10
160.07499999999999
20
-40.074999999999918
10
164.92500000000001
20
-40.074999999999918
10
164.92500000000001
20
-59.924999999999912
10
160.07499999999999
20
-59.924999999999912
0
LWPOLYLINE
5
101
100
AcDbEntity
8
PERIMETER
100
AcDbPolyline
90
84
70
1
43
0.0
10
100.13375464918738
20
-95.07499999999996
10
100.13375464918738
20
-100.0749999999999
10
120.28375464918739
20
-100.0749999999999
10
120.28375464918739
20
-95.07499999999996
10
140.13375464918738
20
-95.07499999999996
10
140.13375464918738
20
-100.0749999999999
10
160.28375464918739
20
-100.0749999999999
10
160.28375464918739
20
-94.924999999999983
10
160.07499999999999
20
-94.924999999999926
10
160.07499999999999
20
-80.074999999999932
10
164.92500000000001
20
-80.074999999999932
10
164.92500000000001
20
-95.07499999999996
10
180.13375464918738
20
-95.07499999999996
10
180.13375464918738
20
-100.0749999999999
10
200.28375464918739
20
-100.0749999999999
10
200.28375464918739
20
-95.07499999999996
10
220.13375464918738
20
-95.07499999999996
10
220.13375464918738
20
-100.0749999999999
10
240.28375464918739
20
-100.0749999999999
10
240.28375464918739
20
-95.07499999999996
10
260.13375464918738
20
-95.07499999999996
10
260.13375464918738
20
-100.07499999999996
10
280.28375464918736
20
-100.07499999999996
10
280.28375464918736
20
-95.07499999999996
10
295.28375464918736
20
-95.07499999999996
10
295.28375464918736
20
-80.07499999999996
10
300.28375464918736
20
-80.074999999999946
10
300.28375464918736
20
-59.924999999999955
10
295.28375464918736
20
-59.924999999999955
10
295.28375464918736
20
-40.07499999999996
10
300.28375464918736
20
-40.07499999999996
10
300.28375464918736
20
-19.924999999999955
10
295.28375464918736
20
-19.924999999999955
10
295.28375464918736
20
-4.9249999999999527
10
280.28375464918736
20
-4.9249999999999527
10
280.28375464918736
20
0.075000000000082778
10
260.13375464918738
20
0.075000000000082778
10
260.13375464918738
20
-4.9249999999999527
10
240.28375464918739
20
-4.9249999999999527
10
240.28375464918739
20
0.075000000000082778
10
220.13375464918738
20
0.07500000000011843
10
220.13375464918738
20
-4.9249999999999527
10
200.28375464918739
20
-4.9249999999999527
10
200.28375464918739
20
0.075000000000118305
10
180.13375464918738
20
0.075000000000118305
10
180.13375464918738
20
-4.9249999999999527
10
164.92500000000001
20
-4.9249999999999083
10
164.92500000000001
20
-19.924999999999908
10
160.07499999999999
20
-19.924999999999908
10
160.07499999999999
20
-5.07499999999993
10
160.28375464918739
20
-5.0749999999999744
10
160.28375464918739
20
0.075000000000118305
10
140.13375464918738
20
0.075000000000153957
10
140.13375464918738
20
-4.9249999999999527
10
120.28375464918739
20
-4.9249999999999527
10
120.28375464918739
20
0.075000000000153833
10
100.13375464918738
20
0.075000000000153833
10
100.13375464918738
20
-4.9249999999999527
10
80.283754649187387
20
-4.9249999999999527
10
80.283754649187387
20
0.075000000000153833
10
60.133754649187381
20
0.075000000000153833
10
60.133754649187381
20
-4.9249999999999527
10
40.283754649187387
20
-4.9249999999999527
10
40.283754649187387
20
0.075000000000153833
10
20.133754649187381
20
0.075000000000082515
10
20.133754649187381
20
-4.9249999999999527
10
5.1337546491873809
20
-4.9249999999999527
10
5.1337546491873809
20
-19.924999999999955
10
0.13375464918741642
20
-19.924999999999955
10
0.13375464918741642
20
-40.07499999999996
10
5.1337546491873809
20
-40.07499999999996
10
5.1337546491873809
20
-59.924999999999955
10
0.13375464918741642
20
-59.924999999999955
10
0.13375464918741642
20
-80.07499999999996
10
5.1337546491873809
20
-80.07499999999996
10
5.1337546491873809
20
-95.07499999999996
10
20.133754649187381
20
-95.07499999999996
10
20.133754649187381
20
-100.07499999999996
10
40.283754649187387
20
-100.0749999999999
10
40.283754649187387
20
-95.07499999999996
10
60.133754649187381
20
-95.07499999999996
10
60.133754649187381
20
-100.0749999999999
10
80.283754649187387
20
-100.0749999999999
10
80.283754649187387
20
-95.07499999999996
0
ENDSEC
0
SECTION
2
OBJECTS
0
DICTIONARY
5
C
100
AcDbDictionary
3
ACAD_GROUP
350
D
3
ACAD_MLINESTYLE
350
17
0
DICTIONARY
5
D
100
AcDbDictionary
0
DICTIONARY
5
1A
330
C
100
AcDbDictionary
0
DICTIONARY
5
17
100
AcDbDictionary
0
ENDSEC
0
EOF
