%TF.GenerationSoftware,KiCad,Pcbnew,7.0.9*%
%TF.CreationDate,2024-02-07T18:21:05+01:00*%
%TF.ProjectId,Final_project,46696e61-6c5f-4707-926f-6a6563742e6b,1*%
%TF.SameCoordinates,Original*%
%TF.FileFunction,Drillmap*%
%TF.FilePolarity,Positive*%
%FSLAX45Y45*%
G04 Gerber Fmt 4.5, Leading zero omitted, Abs format (unit mm)*
G04 Created by KiCad (PCBNEW 7.0.9) date 2024-02-07 18:21:05*
%MOMM*%
%LPD*%
G01*
G04 APERTURE LIST*
%ADD10C,0.100000*%
%ADD11C,0.200000*%
%ADD12C,0.110000*%
%ADD13C,0.300000*%
G04 APERTURE END LIST*
D10*
X12954000Y-10160000D02*
G75*
G03*
X12827000Y-10033000I-127000J0D01*
G01*
X7874000Y-10160000D02*
X7874000Y-14224000D01*
X7874000Y-14224000D02*
G75*
G03*
X8001000Y-14351000I127000J0D01*
G01*
X8001000Y-14351000D02*
X12827000Y-14351000D01*
X12827000Y-10033000D02*
X8001000Y-10033000D01*
X12954000Y-14224000D02*
X12954000Y-10160000D01*
X12827000Y-14351000D02*
G75*
G03*
X12954000Y-14224000I0J127000D01*
G01*
X8001000Y-10033000D02*
G75*
G03*
X7874000Y-10160000I0J-127000D01*
G01*
D11*
D10*
X8600500Y-11636500D02*
X8695500Y-11731500D01*
X8695500Y-11636500D02*
X8600500Y-11731500D01*
X8600500Y-12652500D02*
X8695500Y-12747500D01*
X8695500Y-12652500D02*
X8600500Y-12747500D01*
X8850500Y-11636500D02*
X8945500Y-11731500D01*
X8945500Y-11636500D02*
X8850500Y-11731500D01*
X8850500Y-12652500D02*
X8945500Y-12747500D01*
X8945500Y-12652500D02*
X8850500Y-12747500D01*
X9100500Y-11636500D02*
X9195500Y-11731500D01*
X9195500Y-11636500D02*
X9100500Y-11731500D01*
X9100500Y-12652500D02*
X9195500Y-12747500D01*
X9195500Y-12652500D02*
X9100500Y-12747500D01*
X9350500Y-11636500D02*
X9445500Y-11731500D01*
X9445500Y-11636500D02*
X9350500Y-11731500D01*
X9350500Y-12652500D02*
X9445500Y-12747500D01*
X9445500Y-12652500D02*
X9350500Y-12747500D01*
X10243500Y-10800000D02*
X10338500Y-10895000D01*
X10338500Y-10800000D02*
X10243500Y-10895000D01*
X10493500Y-10800000D02*
X10588500Y-10895000D01*
X10588500Y-10800000D02*
X10493500Y-10895000D01*
X10743500Y-10800000D02*
X10838500Y-10895000D01*
X10838500Y-10800000D02*
X10743500Y-10895000D01*
X11509500Y-12779500D02*
X11604500Y-12874500D01*
X11604500Y-12779500D02*
X11509500Y-12874500D01*
X11759500Y-12779500D02*
X11854500Y-12874500D01*
X11854500Y-12779500D02*
X11759500Y-12874500D01*
X11763500Y-11890500D02*
X11858500Y-11985500D01*
X11858500Y-11890500D02*
X11763500Y-11985500D01*
X11771500Y-11001500D02*
X11866500Y-11096500D01*
X11866500Y-11001500D02*
X11771500Y-11096500D01*
X12009500Y-12779500D02*
X12104500Y-12874500D01*
X12104500Y-12779500D02*
X12009500Y-12874500D01*
X12013500Y-11890500D02*
X12108500Y-11985500D01*
X12108500Y-11890500D02*
X12013500Y-11985500D01*
X12021500Y-11001500D02*
X12116500Y-11096500D01*
X12116500Y-11001500D02*
X12021500Y-11096500D01*
X12259500Y-12779500D02*
X12354500Y-12874500D01*
X12354500Y-12779500D02*
X12259500Y-12874500D01*
X12263500Y-11890500D02*
X12358500Y-11985500D01*
X12358500Y-11890500D02*
X12263500Y-11985500D01*
X12271500Y-11001500D02*
X12366500Y-11096500D01*
X12366500Y-11001500D02*
X12271500Y-11096500D01*
X9067000Y-13462000D02*
G75*
G03*
X9067000Y-13462000I-50000J0D01*
G01*
X9067000Y-13712000D02*
G75*
G03*
X9067000Y-13712000I-50000J0D01*
G01*
D12*
X10160000Y-13374500D02*
X10160000Y-13484500D01*
X10105000Y-13429500D02*
X10215000Y-13429500D01*
X10414000Y-13374500D02*
X10414000Y-13484500D01*
X10359000Y-13429500D02*
X10469000Y-13429500D01*
X10668000Y-13374500D02*
X10668000Y-13484500D01*
X10613000Y-13429500D02*
X10723000Y-13429500D01*
D13*
X8361067Y-14076067D02*
X8361067Y-13863933D01*
X8148933Y-13863933D01*
X8148933Y-14076067D01*
X8361067Y-14076067D01*
X12679067Y-10520067D02*
X12679067Y-10307933D01*
X12466933Y-10307933D01*
X12466933Y-10520067D01*
X12679067Y-10520067D01*
D11*
X8129777Y-14667484D02*
X8129777Y-14467484D01*
X8129777Y-14467484D02*
X8177396Y-14467484D01*
X8177396Y-14467484D02*
X8205967Y-14477008D01*
X8205967Y-14477008D02*
X8225015Y-14496055D01*
X8225015Y-14496055D02*
X8234539Y-14515103D01*
X8234539Y-14515103D02*
X8244062Y-14553198D01*
X8244062Y-14553198D02*
X8244062Y-14581769D01*
X8244062Y-14581769D02*
X8234539Y-14619865D01*
X8234539Y-14619865D02*
X8225015Y-14638912D01*
X8225015Y-14638912D02*
X8205967Y-14657960D01*
X8205967Y-14657960D02*
X8177396Y-14667484D01*
X8177396Y-14667484D02*
X8129777Y-14667484D01*
X8329777Y-14667484D02*
X8329777Y-14534150D01*
X8329777Y-14572246D02*
X8339301Y-14553198D01*
X8339301Y-14553198D02*
X8348824Y-14543674D01*
X8348824Y-14543674D02*
X8367872Y-14534150D01*
X8367872Y-14534150D02*
X8386920Y-14534150D01*
X8453586Y-14667484D02*
X8453586Y-14534150D01*
X8453586Y-14467484D02*
X8444063Y-14477008D01*
X8444063Y-14477008D02*
X8453586Y-14486531D01*
X8453586Y-14486531D02*
X8463110Y-14477008D01*
X8463110Y-14477008D02*
X8453586Y-14467484D01*
X8453586Y-14467484D02*
X8453586Y-14486531D01*
X8577396Y-14667484D02*
X8558348Y-14657960D01*
X8558348Y-14657960D02*
X8548824Y-14638912D01*
X8548824Y-14638912D02*
X8548824Y-14467484D01*
X8682158Y-14667484D02*
X8663110Y-14657960D01*
X8663110Y-14657960D02*
X8653586Y-14638912D01*
X8653586Y-14638912D02*
X8653586Y-14467484D01*
X8910729Y-14667484D02*
X8910729Y-14467484D01*
X8910729Y-14467484D02*
X8977396Y-14610341D01*
X8977396Y-14610341D02*
X9044063Y-14467484D01*
X9044063Y-14467484D02*
X9044063Y-14667484D01*
X9225015Y-14667484D02*
X9225015Y-14562722D01*
X9225015Y-14562722D02*
X9215491Y-14543674D01*
X9215491Y-14543674D02*
X9196444Y-14534150D01*
X9196444Y-14534150D02*
X9158348Y-14534150D01*
X9158348Y-14534150D02*
X9139301Y-14543674D01*
X9225015Y-14657960D02*
X9205967Y-14667484D01*
X9205967Y-14667484D02*
X9158348Y-14667484D01*
X9158348Y-14667484D02*
X9139301Y-14657960D01*
X9139301Y-14657960D02*
X9129777Y-14638912D01*
X9129777Y-14638912D02*
X9129777Y-14619865D01*
X9129777Y-14619865D02*
X9139301Y-14600817D01*
X9139301Y-14600817D02*
X9158348Y-14591293D01*
X9158348Y-14591293D02*
X9205967Y-14591293D01*
X9205967Y-14591293D02*
X9225015Y-14581769D01*
X9320253Y-14534150D02*
X9320253Y-14734150D01*
X9320253Y-14543674D02*
X9339301Y-14534150D01*
X9339301Y-14534150D02*
X9377396Y-14534150D01*
X9377396Y-14534150D02*
X9396444Y-14543674D01*
X9396444Y-14543674D02*
X9405967Y-14553198D01*
X9405967Y-14553198D02*
X9415491Y-14572246D01*
X9415491Y-14572246D02*
X9415491Y-14629388D01*
X9415491Y-14629388D02*
X9405967Y-14648436D01*
X9405967Y-14648436D02*
X9396444Y-14657960D01*
X9396444Y-14657960D02*
X9377396Y-14667484D01*
X9377396Y-14667484D02*
X9339301Y-14667484D01*
X9339301Y-14667484D02*
X9320253Y-14657960D01*
X9501205Y-14648436D02*
X9510729Y-14657960D01*
X9510729Y-14657960D02*
X9501205Y-14667484D01*
X9501205Y-14667484D02*
X9491682Y-14657960D01*
X9491682Y-14657960D02*
X9501205Y-14648436D01*
X9501205Y-14648436D02*
X9501205Y-14667484D01*
X9501205Y-14543674D02*
X9510729Y-14553198D01*
X9510729Y-14553198D02*
X9501205Y-14562722D01*
X9501205Y-14562722D02*
X9491682Y-14553198D01*
X9491682Y-14553198D02*
X9501205Y-14543674D01*
X9501205Y-14543674D02*
X9501205Y-14562722D01*
D10*
X7774000Y-14948500D02*
X7869000Y-15043500D01*
X7869000Y-14948500D02*
X7774000Y-15043500D01*
D11*
X8167872Y-14887484D02*
X8186920Y-14887484D01*
X8186920Y-14887484D02*
X8205967Y-14897008D01*
X8205967Y-14897008D02*
X8215491Y-14906531D01*
X8215491Y-14906531D02*
X8225015Y-14925579D01*
X8225015Y-14925579D02*
X8234539Y-14963674D01*
X8234539Y-14963674D02*
X8234539Y-15011293D01*
X8234539Y-15011293D02*
X8225015Y-15049388D01*
X8225015Y-15049388D02*
X8215491Y-15068436D01*
X8215491Y-15068436D02*
X8205967Y-15077960D01*
X8205967Y-15077960D02*
X8186920Y-15087484D01*
X8186920Y-15087484D02*
X8167872Y-15087484D01*
X8167872Y-15087484D02*
X8148824Y-15077960D01*
X8148824Y-15077960D02*
X8139301Y-15068436D01*
X8139301Y-15068436D02*
X8129777Y-15049388D01*
X8129777Y-15049388D02*
X8120253Y-15011293D01*
X8120253Y-15011293D02*
X8120253Y-14963674D01*
X8120253Y-14963674D02*
X8129777Y-14925579D01*
X8129777Y-14925579D02*
X8139301Y-14906531D01*
X8139301Y-14906531D02*
X8148824Y-14897008D01*
X8148824Y-14897008D02*
X8167872Y-14887484D01*
X8320253Y-15068436D02*
X8329777Y-15077960D01*
X8329777Y-15077960D02*
X8320253Y-15087484D01*
X8320253Y-15087484D02*
X8310729Y-15077960D01*
X8310729Y-15077960D02*
X8320253Y-15068436D01*
X8320253Y-15068436D02*
X8320253Y-15087484D01*
X8425015Y-15087484D02*
X8463110Y-15087484D01*
X8463110Y-15087484D02*
X8482158Y-15077960D01*
X8482158Y-15077960D02*
X8491682Y-15068436D01*
X8491682Y-15068436D02*
X8510729Y-15039865D01*
X8510729Y-15039865D02*
X8520253Y-15001769D01*
X8520253Y-15001769D02*
X8520253Y-14925579D01*
X8520253Y-14925579D02*
X8510729Y-14906531D01*
X8510729Y-14906531D02*
X8501205Y-14897008D01*
X8501205Y-14897008D02*
X8482158Y-14887484D01*
X8482158Y-14887484D02*
X8444063Y-14887484D01*
X8444063Y-14887484D02*
X8425015Y-14897008D01*
X8425015Y-14897008D02*
X8415491Y-14906531D01*
X8415491Y-14906531D02*
X8405967Y-14925579D01*
X8405967Y-14925579D02*
X8405967Y-14973198D01*
X8405967Y-14973198D02*
X8415491Y-14992246D01*
X8415491Y-14992246D02*
X8425015Y-15001769D01*
X8425015Y-15001769D02*
X8444063Y-15011293D01*
X8444063Y-15011293D02*
X8482158Y-15011293D01*
X8482158Y-15011293D02*
X8501205Y-15001769D01*
X8501205Y-15001769D02*
X8510729Y-14992246D01*
X8510729Y-14992246D02*
X8520253Y-14973198D01*
X8701205Y-14887484D02*
X8605967Y-14887484D01*
X8605967Y-14887484D02*
X8596444Y-14982722D01*
X8596444Y-14982722D02*
X8605967Y-14973198D01*
X8605967Y-14973198D02*
X8625015Y-14963674D01*
X8625015Y-14963674D02*
X8672634Y-14963674D01*
X8672634Y-14963674D02*
X8691682Y-14973198D01*
X8691682Y-14973198D02*
X8701205Y-14982722D01*
X8701205Y-14982722D02*
X8710729Y-15001769D01*
X8710729Y-15001769D02*
X8710729Y-15049388D01*
X8710729Y-15049388D02*
X8701205Y-15068436D01*
X8701205Y-15068436D02*
X8691682Y-15077960D01*
X8691682Y-15077960D02*
X8672634Y-15087484D01*
X8672634Y-15087484D02*
X8625015Y-15087484D01*
X8625015Y-15087484D02*
X8605967Y-15077960D01*
X8605967Y-15077960D02*
X8596444Y-15068436D01*
X8834539Y-14887484D02*
X8853586Y-14887484D01*
X8853586Y-14887484D02*
X8872634Y-14897008D01*
X8872634Y-14897008D02*
X8882158Y-14906531D01*
X8882158Y-14906531D02*
X8891682Y-14925579D01*
X8891682Y-14925579D02*
X8901205Y-14963674D01*
X8901205Y-14963674D02*
X8901205Y-15011293D01*
X8901205Y-15011293D02*
X8891682Y-15049388D01*
X8891682Y-15049388D02*
X8882158Y-15068436D01*
X8882158Y-15068436D02*
X8872634Y-15077960D01*
X8872634Y-15077960D02*
X8853586Y-15087484D01*
X8853586Y-15087484D02*
X8834539Y-15087484D01*
X8834539Y-15087484D02*
X8815491Y-15077960D01*
X8815491Y-15077960D02*
X8805967Y-15068436D01*
X8805967Y-15068436D02*
X8796444Y-15049388D01*
X8796444Y-15049388D02*
X8786920Y-15011293D01*
X8786920Y-15011293D02*
X8786920Y-14963674D01*
X8786920Y-14963674D02*
X8796444Y-14925579D01*
X8796444Y-14925579D02*
X8805967Y-14906531D01*
X8805967Y-14906531D02*
X8815491Y-14897008D01*
X8815491Y-14897008D02*
X8834539Y-14887484D01*
X8986920Y-15087484D02*
X8986920Y-14954150D01*
X8986920Y-14973198D02*
X8996444Y-14963674D01*
X8996444Y-14963674D02*
X9015491Y-14954150D01*
X9015491Y-14954150D02*
X9044063Y-14954150D01*
X9044063Y-14954150D02*
X9063110Y-14963674D01*
X9063110Y-14963674D02*
X9072634Y-14982722D01*
X9072634Y-14982722D02*
X9072634Y-15087484D01*
X9072634Y-14982722D02*
X9082158Y-14963674D01*
X9082158Y-14963674D02*
X9101205Y-14954150D01*
X9101205Y-14954150D02*
X9129777Y-14954150D01*
X9129777Y-14954150D02*
X9148825Y-14963674D01*
X9148825Y-14963674D02*
X9158348Y-14982722D01*
X9158348Y-14982722D02*
X9158348Y-15087484D01*
X9253586Y-15087484D02*
X9253586Y-14954150D01*
X9253586Y-14973198D02*
X9263110Y-14963674D01*
X9263110Y-14963674D02*
X9282158Y-14954150D01*
X9282158Y-14954150D02*
X9310729Y-14954150D01*
X9310729Y-14954150D02*
X9329777Y-14963674D01*
X9329777Y-14963674D02*
X9339301Y-14982722D01*
X9339301Y-14982722D02*
X9339301Y-15087484D01*
X9339301Y-14982722D02*
X9348825Y-14963674D01*
X9348825Y-14963674D02*
X9367872Y-14954150D01*
X9367872Y-14954150D02*
X9396444Y-14954150D01*
X9396444Y-14954150D02*
X9415491Y-14963674D01*
X9415491Y-14963674D02*
X9425015Y-14982722D01*
X9425015Y-14982722D02*
X9425015Y-15087484D01*
X9815491Y-14877960D02*
X9644063Y-15135103D01*
X10072634Y-14887484D02*
X10091682Y-14887484D01*
X10091682Y-14887484D02*
X10110729Y-14897008D01*
X10110729Y-14897008D02*
X10120253Y-14906531D01*
X10120253Y-14906531D02*
X10129777Y-14925579D01*
X10129777Y-14925579D02*
X10139301Y-14963674D01*
X10139301Y-14963674D02*
X10139301Y-15011293D01*
X10139301Y-15011293D02*
X10129777Y-15049388D01*
X10129777Y-15049388D02*
X10120253Y-15068436D01*
X10120253Y-15068436D02*
X10110729Y-15077960D01*
X10110729Y-15077960D02*
X10091682Y-15087484D01*
X10091682Y-15087484D02*
X10072634Y-15087484D01*
X10072634Y-15087484D02*
X10053587Y-15077960D01*
X10053587Y-15077960D02*
X10044063Y-15068436D01*
X10044063Y-15068436D02*
X10034539Y-15049388D01*
X10034539Y-15049388D02*
X10025015Y-15011293D01*
X10025015Y-15011293D02*
X10025015Y-14963674D01*
X10025015Y-14963674D02*
X10034539Y-14925579D01*
X10034539Y-14925579D02*
X10044063Y-14906531D01*
X10044063Y-14906531D02*
X10053587Y-14897008D01*
X10053587Y-14897008D02*
X10072634Y-14887484D01*
X10225015Y-15068436D02*
X10234539Y-15077960D01*
X10234539Y-15077960D02*
X10225015Y-15087484D01*
X10225015Y-15087484D02*
X10215491Y-15077960D01*
X10215491Y-15077960D02*
X10225015Y-15068436D01*
X10225015Y-15068436D02*
X10225015Y-15087484D01*
X10358348Y-14887484D02*
X10377396Y-14887484D01*
X10377396Y-14887484D02*
X10396444Y-14897008D01*
X10396444Y-14897008D02*
X10405968Y-14906531D01*
X10405968Y-14906531D02*
X10415491Y-14925579D01*
X10415491Y-14925579D02*
X10425015Y-14963674D01*
X10425015Y-14963674D02*
X10425015Y-15011293D01*
X10425015Y-15011293D02*
X10415491Y-15049388D01*
X10415491Y-15049388D02*
X10405968Y-15068436D01*
X10405968Y-15068436D02*
X10396444Y-15077960D01*
X10396444Y-15077960D02*
X10377396Y-15087484D01*
X10377396Y-15087484D02*
X10358348Y-15087484D01*
X10358348Y-15087484D02*
X10339301Y-15077960D01*
X10339301Y-15077960D02*
X10329777Y-15068436D01*
X10329777Y-15068436D02*
X10320253Y-15049388D01*
X10320253Y-15049388D02*
X10310729Y-15011293D01*
X10310729Y-15011293D02*
X10310729Y-14963674D01*
X10310729Y-14963674D02*
X10320253Y-14925579D01*
X10320253Y-14925579D02*
X10329777Y-14906531D01*
X10329777Y-14906531D02*
X10339301Y-14897008D01*
X10339301Y-14897008D02*
X10358348Y-14887484D01*
X10491682Y-14887484D02*
X10615491Y-14887484D01*
X10615491Y-14887484D02*
X10548825Y-14963674D01*
X10548825Y-14963674D02*
X10577396Y-14963674D01*
X10577396Y-14963674D02*
X10596444Y-14973198D01*
X10596444Y-14973198D02*
X10605968Y-14982722D01*
X10605968Y-14982722D02*
X10615491Y-15001769D01*
X10615491Y-15001769D02*
X10615491Y-15049388D01*
X10615491Y-15049388D02*
X10605968Y-15068436D01*
X10605968Y-15068436D02*
X10596444Y-15077960D01*
X10596444Y-15077960D02*
X10577396Y-15087484D01*
X10577396Y-15087484D02*
X10520253Y-15087484D01*
X10520253Y-15087484D02*
X10501206Y-15077960D01*
X10501206Y-15077960D02*
X10491682Y-15068436D01*
X10682158Y-14887484D02*
X10815491Y-14887484D01*
X10815491Y-14887484D02*
X10729777Y-15087484D01*
X10977396Y-14954150D02*
X10977396Y-15087484D01*
X10929777Y-14877960D02*
X10882158Y-15020817D01*
X10882158Y-15020817D02*
X11005968Y-15020817D01*
X11072634Y-14887484D02*
X11072634Y-14925579D01*
X11148825Y-14887484D02*
X11148825Y-14925579D01*
X11444063Y-15163674D02*
X11434539Y-15154150D01*
X11434539Y-15154150D02*
X11415491Y-15125579D01*
X11415491Y-15125579D02*
X11405968Y-15106531D01*
X11405968Y-15106531D02*
X11396444Y-15077960D01*
X11396444Y-15077960D02*
X11386920Y-15030341D01*
X11386920Y-15030341D02*
X11386920Y-14992246D01*
X11386920Y-14992246D02*
X11396444Y-14944627D01*
X11396444Y-14944627D02*
X11405968Y-14916055D01*
X11405968Y-14916055D02*
X11415491Y-14897008D01*
X11415491Y-14897008D02*
X11434539Y-14868436D01*
X11434539Y-14868436D02*
X11444063Y-14858912D01*
X11510729Y-14906531D02*
X11520253Y-14897008D01*
X11520253Y-14897008D02*
X11539301Y-14887484D01*
X11539301Y-14887484D02*
X11586920Y-14887484D01*
X11586920Y-14887484D02*
X11605968Y-14897008D01*
X11605968Y-14897008D02*
X11615491Y-14906531D01*
X11615491Y-14906531D02*
X11625015Y-14925579D01*
X11625015Y-14925579D02*
X11625015Y-14944627D01*
X11625015Y-14944627D02*
X11615491Y-14973198D01*
X11615491Y-14973198D02*
X11501206Y-15087484D01*
X11501206Y-15087484D02*
X11625015Y-15087484D01*
X11815491Y-15087484D02*
X11701206Y-15087484D01*
X11758348Y-15087484D02*
X11758348Y-14887484D01*
X11758348Y-14887484D02*
X11739301Y-14916055D01*
X11739301Y-14916055D02*
X11720253Y-14935103D01*
X11720253Y-14935103D02*
X11701206Y-14944627D01*
X12053587Y-15087484D02*
X12053587Y-14887484D01*
X12139301Y-15087484D02*
X12139301Y-14982722D01*
X12139301Y-14982722D02*
X12129777Y-14963674D01*
X12129777Y-14963674D02*
X12110730Y-14954150D01*
X12110730Y-14954150D02*
X12082158Y-14954150D01*
X12082158Y-14954150D02*
X12063110Y-14963674D01*
X12063110Y-14963674D02*
X12053587Y-14973198D01*
X12263110Y-15087484D02*
X12244063Y-15077960D01*
X12244063Y-15077960D02*
X12234539Y-15068436D01*
X12234539Y-15068436D02*
X12225015Y-15049388D01*
X12225015Y-15049388D02*
X12225015Y-14992246D01*
X12225015Y-14992246D02*
X12234539Y-14973198D01*
X12234539Y-14973198D02*
X12244063Y-14963674D01*
X12244063Y-14963674D02*
X12263110Y-14954150D01*
X12263110Y-14954150D02*
X12291682Y-14954150D01*
X12291682Y-14954150D02*
X12310730Y-14963674D01*
X12310730Y-14963674D02*
X12320253Y-14973198D01*
X12320253Y-14973198D02*
X12329777Y-14992246D01*
X12329777Y-14992246D02*
X12329777Y-15049388D01*
X12329777Y-15049388D02*
X12320253Y-15068436D01*
X12320253Y-15068436D02*
X12310730Y-15077960D01*
X12310730Y-15077960D02*
X12291682Y-15087484D01*
X12291682Y-15087484D02*
X12263110Y-15087484D01*
X12444063Y-15087484D02*
X12425015Y-15077960D01*
X12425015Y-15077960D02*
X12415491Y-15058912D01*
X12415491Y-15058912D02*
X12415491Y-14887484D01*
X12596444Y-15077960D02*
X12577396Y-15087484D01*
X12577396Y-15087484D02*
X12539301Y-15087484D01*
X12539301Y-15087484D02*
X12520253Y-15077960D01*
X12520253Y-15077960D02*
X12510730Y-15058912D01*
X12510730Y-15058912D02*
X12510730Y-14982722D01*
X12510730Y-14982722D02*
X12520253Y-14963674D01*
X12520253Y-14963674D02*
X12539301Y-14954150D01*
X12539301Y-14954150D02*
X12577396Y-14954150D01*
X12577396Y-14954150D02*
X12596444Y-14963674D01*
X12596444Y-14963674D02*
X12605968Y-14982722D01*
X12605968Y-14982722D02*
X12605968Y-15001769D01*
X12605968Y-15001769D02*
X12510730Y-15020817D01*
X12682158Y-15077960D02*
X12701206Y-15087484D01*
X12701206Y-15087484D02*
X12739301Y-15087484D01*
X12739301Y-15087484D02*
X12758349Y-15077960D01*
X12758349Y-15077960D02*
X12767872Y-15058912D01*
X12767872Y-15058912D02*
X12767872Y-15049388D01*
X12767872Y-15049388D02*
X12758349Y-15030341D01*
X12758349Y-15030341D02*
X12739301Y-15020817D01*
X12739301Y-15020817D02*
X12710730Y-15020817D01*
X12710730Y-15020817D02*
X12691682Y-15011293D01*
X12691682Y-15011293D02*
X12682158Y-14992246D01*
X12682158Y-14992246D02*
X12682158Y-14982722D01*
X12682158Y-14982722D02*
X12691682Y-14963674D01*
X12691682Y-14963674D02*
X12710730Y-14954150D01*
X12710730Y-14954150D02*
X12739301Y-14954150D01*
X12739301Y-14954150D02*
X12758349Y-14963674D01*
X12834539Y-15163674D02*
X12844063Y-15154150D01*
X12844063Y-15154150D02*
X12863111Y-15125579D01*
X12863111Y-15125579D02*
X12872634Y-15106531D01*
X12872634Y-15106531D02*
X12882158Y-15077960D01*
X12882158Y-15077960D02*
X12891682Y-15030341D01*
X12891682Y-15030341D02*
X12891682Y-14992246D01*
X12891682Y-14992246D02*
X12882158Y-14944627D01*
X12882158Y-14944627D02*
X12872634Y-14916055D01*
X12872634Y-14916055D02*
X12863111Y-14897008D01*
X12863111Y-14897008D02*
X12844063Y-14868436D01*
X12844063Y-14868436D02*
X12834539Y-14858912D01*
D10*
X7869000Y-15260000D02*
G75*
G03*
X7869000Y-15260000I-50000J0D01*
G01*
D11*
X8234539Y-15351484D02*
X8120253Y-15351484D01*
X8177396Y-15351484D02*
X8177396Y-15151484D01*
X8177396Y-15151484D02*
X8158348Y-15180055D01*
X8158348Y-15180055D02*
X8139301Y-15199103D01*
X8139301Y-15199103D02*
X8120253Y-15208627D01*
X8320253Y-15332436D02*
X8329777Y-15341960D01*
X8329777Y-15341960D02*
X8320253Y-15351484D01*
X8320253Y-15351484D02*
X8310729Y-15341960D01*
X8310729Y-15341960D02*
X8320253Y-15332436D01*
X8320253Y-15332436D02*
X8320253Y-15351484D01*
X8453586Y-15151484D02*
X8472634Y-15151484D01*
X8472634Y-15151484D02*
X8491682Y-15161008D01*
X8491682Y-15161008D02*
X8501205Y-15170531D01*
X8501205Y-15170531D02*
X8510729Y-15189579D01*
X8510729Y-15189579D02*
X8520253Y-15227674D01*
X8520253Y-15227674D02*
X8520253Y-15275293D01*
X8520253Y-15275293D02*
X8510729Y-15313388D01*
X8510729Y-15313388D02*
X8501205Y-15332436D01*
X8501205Y-15332436D02*
X8491682Y-15341960D01*
X8491682Y-15341960D02*
X8472634Y-15351484D01*
X8472634Y-15351484D02*
X8453586Y-15351484D01*
X8453586Y-15351484D02*
X8434539Y-15341960D01*
X8434539Y-15341960D02*
X8425015Y-15332436D01*
X8425015Y-15332436D02*
X8415491Y-15313388D01*
X8415491Y-15313388D02*
X8405967Y-15275293D01*
X8405967Y-15275293D02*
X8405967Y-15227674D01*
X8405967Y-15227674D02*
X8415491Y-15189579D01*
X8415491Y-15189579D02*
X8425015Y-15170531D01*
X8425015Y-15170531D02*
X8434539Y-15161008D01*
X8434539Y-15161008D02*
X8453586Y-15151484D01*
X8644063Y-15151484D02*
X8663110Y-15151484D01*
X8663110Y-15151484D02*
X8682158Y-15161008D01*
X8682158Y-15161008D02*
X8691682Y-15170531D01*
X8691682Y-15170531D02*
X8701205Y-15189579D01*
X8701205Y-15189579D02*
X8710729Y-15227674D01*
X8710729Y-15227674D02*
X8710729Y-15275293D01*
X8710729Y-15275293D02*
X8701205Y-15313388D01*
X8701205Y-15313388D02*
X8691682Y-15332436D01*
X8691682Y-15332436D02*
X8682158Y-15341960D01*
X8682158Y-15341960D02*
X8663110Y-15351484D01*
X8663110Y-15351484D02*
X8644063Y-15351484D01*
X8644063Y-15351484D02*
X8625015Y-15341960D01*
X8625015Y-15341960D02*
X8615491Y-15332436D01*
X8615491Y-15332436D02*
X8605967Y-15313388D01*
X8605967Y-15313388D02*
X8596444Y-15275293D01*
X8596444Y-15275293D02*
X8596444Y-15227674D01*
X8596444Y-15227674D02*
X8605967Y-15189579D01*
X8605967Y-15189579D02*
X8615491Y-15170531D01*
X8615491Y-15170531D02*
X8625015Y-15161008D01*
X8625015Y-15161008D02*
X8644063Y-15151484D01*
X8834539Y-15151484D02*
X8853586Y-15151484D01*
X8853586Y-15151484D02*
X8872634Y-15161008D01*
X8872634Y-15161008D02*
X8882158Y-15170531D01*
X8882158Y-15170531D02*
X8891682Y-15189579D01*
X8891682Y-15189579D02*
X8901205Y-15227674D01*
X8901205Y-15227674D02*
X8901205Y-15275293D01*
X8901205Y-15275293D02*
X8891682Y-15313388D01*
X8891682Y-15313388D02*
X8882158Y-15332436D01*
X8882158Y-15332436D02*
X8872634Y-15341960D01*
X8872634Y-15341960D02*
X8853586Y-15351484D01*
X8853586Y-15351484D02*
X8834539Y-15351484D01*
X8834539Y-15351484D02*
X8815491Y-15341960D01*
X8815491Y-15341960D02*
X8805967Y-15332436D01*
X8805967Y-15332436D02*
X8796444Y-15313388D01*
X8796444Y-15313388D02*
X8786920Y-15275293D01*
X8786920Y-15275293D02*
X8786920Y-15227674D01*
X8786920Y-15227674D02*
X8796444Y-15189579D01*
X8796444Y-15189579D02*
X8805967Y-15170531D01*
X8805967Y-15170531D02*
X8815491Y-15161008D01*
X8815491Y-15161008D02*
X8834539Y-15151484D01*
X8986920Y-15351484D02*
X8986920Y-15218150D01*
X8986920Y-15237198D02*
X8996444Y-15227674D01*
X8996444Y-15227674D02*
X9015491Y-15218150D01*
X9015491Y-15218150D02*
X9044063Y-15218150D01*
X9044063Y-15218150D02*
X9063110Y-15227674D01*
X9063110Y-15227674D02*
X9072634Y-15246722D01*
X9072634Y-15246722D02*
X9072634Y-15351484D01*
X9072634Y-15246722D02*
X9082158Y-15227674D01*
X9082158Y-15227674D02*
X9101205Y-15218150D01*
X9101205Y-15218150D02*
X9129777Y-15218150D01*
X9129777Y-15218150D02*
X9148825Y-15227674D01*
X9148825Y-15227674D02*
X9158348Y-15246722D01*
X9158348Y-15246722D02*
X9158348Y-15351484D01*
X9253586Y-15351484D02*
X9253586Y-15218150D01*
X9253586Y-15237198D02*
X9263110Y-15227674D01*
X9263110Y-15227674D02*
X9282158Y-15218150D01*
X9282158Y-15218150D02*
X9310729Y-15218150D01*
X9310729Y-15218150D02*
X9329777Y-15227674D01*
X9329777Y-15227674D02*
X9339301Y-15246722D01*
X9339301Y-15246722D02*
X9339301Y-15351484D01*
X9339301Y-15246722D02*
X9348825Y-15227674D01*
X9348825Y-15227674D02*
X9367872Y-15218150D01*
X9367872Y-15218150D02*
X9396444Y-15218150D01*
X9396444Y-15218150D02*
X9415491Y-15227674D01*
X9415491Y-15227674D02*
X9425015Y-15246722D01*
X9425015Y-15246722D02*
X9425015Y-15351484D01*
X9815491Y-15141960D02*
X9644063Y-15399103D01*
X10072634Y-15151484D02*
X10091682Y-15151484D01*
X10091682Y-15151484D02*
X10110729Y-15161008D01*
X10110729Y-15161008D02*
X10120253Y-15170531D01*
X10120253Y-15170531D02*
X10129777Y-15189579D01*
X10129777Y-15189579D02*
X10139301Y-15227674D01*
X10139301Y-15227674D02*
X10139301Y-15275293D01*
X10139301Y-15275293D02*
X10129777Y-15313388D01*
X10129777Y-15313388D02*
X10120253Y-15332436D01*
X10120253Y-15332436D02*
X10110729Y-15341960D01*
X10110729Y-15341960D02*
X10091682Y-15351484D01*
X10091682Y-15351484D02*
X10072634Y-15351484D01*
X10072634Y-15351484D02*
X10053587Y-15341960D01*
X10053587Y-15341960D02*
X10044063Y-15332436D01*
X10044063Y-15332436D02*
X10034539Y-15313388D01*
X10034539Y-15313388D02*
X10025015Y-15275293D01*
X10025015Y-15275293D02*
X10025015Y-15227674D01*
X10025015Y-15227674D02*
X10034539Y-15189579D01*
X10034539Y-15189579D02*
X10044063Y-15170531D01*
X10044063Y-15170531D02*
X10053587Y-15161008D01*
X10053587Y-15161008D02*
X10072634Y-15151484D01*
X10225015Y-15332436D02*
X10234539Y-15341960D01*
X10234539Y-15341960D02*
X10225015Y-15351484D01*
X10225015Y-15351484D02*
X10215491Y-15341960D01*
X10215491Y-15341960D02*
X10225015Y-15332436D01*
X10225015Y-15332436D02*
X10225015Y-15351484D01*
X10358348Y-15151484D02*
X10377396Y-15151484D01*
X10377396Y-15151484D02*
X10396444Y-15161008D01*
X10396444Y-15161008D02*
X10405968Y-15170531D01*
X10405968Y-15170531D02*
X10415491Y-15189579D01*
X10415491Y-15189579D02*
X10425015Y-15227674D01*
X10425015Y-15227674D02*
X10425015Y-15275293D01*
X10425015Y-15275293D02*
X10415491Y-15313388D01*
X10415491Y-15313388D02*
X10405968Y-15332436D01*
X10405968Y-15332436D02*
X10396444Y-15341960D01*
X10396444Y-15341960D02*
X10377396Y-15351484D01*
X10377396Y-15351484D02*
X10358348Y-15351484D01*
X10358348Y-15351484D02*
X10339301Y-15341960D01*
X10339301Y-15341960D02*
X10329777Y-15332436D01*
X10329777Y-15332436D02*
X10320253Y-15313388D01*
X10320253Y-15313388D02*
X10310729Y-15275293D01*
X10310729Y-15275293D02*
X10310729Y-15227674D01*
X10310729Y-15227674D02*
X10320253Y-15189579D01*
X10320253Y-15189579D02*
X10329777Y-15170531D01*
X10329777Y-15170531D02*
X10339301Y-15161008D01*
X10339301Y-15161008D02*
X10358348Y-15151484D01*
X10491682Y-15151484D02*
X10615491Y-15151484D01*
X10615491Y-15151484D02*
X10548825Y-15227674D01*
X10548825Y-15227674D02*
X10577396Y-15227674D01*
X10577396Y-15227674D02*
X10596444Y-15237198D01*
X10596444Y-15237198D02*
X10605968Y-15246722D01*
X10605968Y-15246722D02*
X10615491Y-15265769D01*
X10615491Y-15265769D02*
X10615491Y-15313388D01*
X10615491Y-15313388D02*
X10605968Y-15332436D01*
X10605968Y-15332436D02*
X10596444Y-15341960D01*
X10596444Y-15341960D02*
X10577396Y-15351484D01*
X10577396Y-15351484D02*
X10520253Y-15351484D01*
X10520253Y-15351484D02*
X10501206Y-15341960D01*
X10501206Y-15341960D02*
X10491682Y-15332436D01*
X10710729Y-15351484D02*
X10748825Y-15351484D01*
X10748825Y-15351484D02*
X10767872Y-15341960D01*
X10767872Y-15341960D02*
X10777396Y-15332436D01*
X10777396Y-15332436D02*
X10796444Y-15303865D01*
X10796444Y-15303865D02*
X10805968Y-15265769D01*
X10805968Y-15265769D02*
X10805968Y-15189579D01*
X10805968Y-15189579D02*
X10796444Y-15170531D01*
X10796444Y-15170531D02*
X10786920Y-15161008D01*
X10786920Y-15161008D02*
X10767872Y-15151484D01*
X10767872Y-15151484D02*
X10729777Y-15151484D01*
X10729777Y-15151484D02*
X10710729Y-15161008D01*
X10710729Y-15161008D02*
X10701206Y-15170531D01*
X10701206Y-15170531D02*
X10691682Y-15189579D01*
X10691682Y-15189579D02*
X10691682Y-15237198D01*
X10691682Y-15237198D02*
X10701206Y-15256246D01*
X10701206Y-15256246D02*
X10710729Y-15265769D01*
X10710729Y-15265769D02*
X10729777Y-15275293D01*
X10729777Y-15275293D02*
X10767872Y-15275293D01*
X10767872Y-15275293D02*
X10786920Y-15265769D01*
X10786920Y-15265769D02*
X10796444Y-15256246D01*
X10796444Y-15256246D02*
X10805968Y-15237198D01*
X10977396Y-15218150D02*
X10977396Y-15351484D01*
X10929777Y-15141960D02*
X10882158Y-15284817D01*
X10882158Y-15284817D02*
X11005968Y-15284817D01*
X11072634Y-15151484D02*
X11072634Y-15189579D01*
X11148825Y-15151484D02*
X11148825Y-15189579D01*
X11444063Y-15427674D02*
X11434539Y-15418150D01*
X11434539Y-15418150D02*
X11415491Y-15389579D01*
X11415491Y-15389579D02*
X11405968Y-15370531D01*
X11405968Y-15370531D02*
X11396444Y-15341960D01*
X11396444Y-15341960D02*
X11386920Y-15294341D01*
X11386920Y-15294341D02*
X11386920Y-15256246D01*
X11386920Y-15256246D02*
X11396444Y-15208627D01*
X11396444Y-15208627D02*
X11405968Y-15180055D01*
X11405968Y-15180055D02*
X11415491Y-15161008D01*
X11415491Y-15161008D02*
X11434539Y-15132436D01*
X11434539Y-15132436D02*
X11444063Y-15122912D01*
X11510729Y-15170531D02*
X11520253Y-15161008D01*
X11520253Y-15161008D02*
X11539301Y-15151484D01*
X11539301Y-15151484D02*
X11586920Y-15151484D01*
X11586920Y-15151484D02*
X11605968Y-15161008D01*
X11605968Y-15161008D02*
X11615491Y-15170531D01*
X11615491Y-15170531D02*
X11625015Y-15189579D01*
X11625015Y-15189579D02*
X11625015Y-15208627D01*
X11625015Y-15208627D02*
X11615491Y-15237198D01*
X11615491Y-15237198D02*
X11501206Y-15351484D01*
X11501206Y-15351484D02*
X11625015Y-15351484D01*
X11863110Y-15351484D02*
X11863110Y-15151484D01*
X11948825Y-15351484D02*
X11948825Y-15246722D01*
X11948825Y-15246722D02*
X11939301Y-15227674D01*
X11939301Y-15227674D02*
X11920253Y-15218150D01*
X11920253Y-15218150D02*
X11891682Y-15218150D01*
X11891682Y-15218150D02*
X11872634Y-15227674D01*
X11872634Y-15227674D02*
X11863110Y-15237198D01*
X12072634Y-15351484D02*
X12053587Y-15341960D01*
X12053587Y-15341960D02*
X12044063Y-15332436D01*
X12044063Y-15332436D02*
X12034539Y-15313388D01*
X12034539Y-15313388D02*
X12034539Y-15256246D01*
X12034539Y-15256246D02*
X12044063Y-15237198D01*
X12044063Y-15237198D02*
X12053587Y-15227674D01*
X12053587Y-15227674D02*
X12072634Y-15218150D01*
X12072634Y-15218150D02*
X12101206Y-15218150D01*
X12101206Y-15218150D02*
X12120253Y-15227674D01*
X12120253Y-15227674D02*
X12129777Y-15237198D01*
X12129777Y-15237198D02*
X12139301Y-15256246D01*
X12139301Y-15256246D02*
X12139301Y-15313388D01*
X12139301Y-15313388D02*
X12129777Y-15332436D01*
X12129777Y-15332436D02*
X12120253Y-15341960D01*
X12120253Y-15341960D02*
X12101206Y-15351484D01*
X12101206Y-15351484D02*
X12072634Y-15351484D01*
X12253587Y-15351484D02*
X12234539Y-15341960D01*
X12234539Y-15341960D02*
X12225015Y-15322912D01*
X12225015Y-15322912D02*
X12225015Y-15151484D01*
X12405968Y-15341960D02*
X12386920Y-15351484D01*
X12386920Y-15351484D02*
X12348825Y-15351484D01*
X12348825Y-15351484D02*
X12329777Y-15341960D01*
X12329777Y-15341960D02*
X12320253Y-15322912D01*
X12320253Y-15322912D02*
X12320253Y-15246722D01*
X12320253Y-15246722D02*
X12329777Y-15227674D01*
X12329777Y-15227674D02*
X12348825Y-15218150D01*
X12348825Y-15218150D02*
X12386920Y-15218150D01*
X12386920Y-15218150D02*
X12405968Y-15227674D01*
X12405968Y-15227674D02*
X12415491Y-15246722D01*
X12415491Y-15246722D02*
X12415491Y-15265769D01*
X12415491Y-15265769D02*
X12320253Y-15284817D01*
X12491682Y-15341960D02*
X12510730Y-15351484D01*
X12510730Y-15351484D02*
X12548825Y-15351484D01*
X12548825Y-15351484D02*
X12567872Y-15341960D01*
X12567872Y-15341960D02*
X12577396Y-15322912D01*
X12577396Y-15322912D02*
X12577396Y-15313388D01*
X12577396Y-15313388D02*
X12567872Y-15294341D01*
X12567872Y-15294341D02*
X12548825Y-15284817D01*
X12548825Y-15284817D02*
X12520253Y-15284817D01*
X12520253Y-15284817D02*
X12501206Y-15275293D01*
X12501206Y-15275293D02*
X12491682Y-15256246D01*
X12491682Y-15256246D02*
X12491682Y-15246722D01*
X12491682Y-15246722D02*
X12501206Y-15227674D01*
X12501206Y-15227674D02*
X12520253Y-15218150D01*
X12520253Y-15218150D02*
X12548825Y-15218150D01*
X12548825Y-15218150D02*
X12567872Y-15227674D01*
X12644063Y-15427674D02*
X12653587Y-15418150D01*
X12653587Y-15418150D02*
X12672634Y-15389579D01*
X12672634Y-15389579D02*
X12682158Y-15370531D01*
X12682158Y-15370531D02*
X12691682Y-15341960D01*
X12691682Y-15341960D02*
X12701206Y-15294341D01*
X12701206Y-15294341D02*
X12701206Y-15256246D01*
X12701206Y-15256246D02*
X12691682Y-15208627D01*
X12691682Y-15208627D02*
X12682158Y-15180055D01*
X12682158Y-15180055D02*
X12672634Y-15161008D01*
X12672634Y-15161008D02*
X12653587Y-15132436D01*
X12653587Y-15132436D02*
X12644063Y-15122912D01*
D12*
X7814000Y-15469000D02*
X7814000Y-15579000D01*
X7759000Y-15524000D02*
X7869000Y-15524000D01*
D11*
X8234539Y-15615484D02*
X8120253Y-15615484D01*
X8177396Y-15615484D02*
X8177396Y-15415484D01*
X8177396Y-15415484D02*
X8158348Y-15444055D01*
X8158348Y-15444055D02*
X8139301Y-15463103D01*
X8139301Y-15463103D02*
X8120253Y-15472627D01*
X8320253Y-15596436D02*
X8329777Y-15605960D01*
X8329777Y-15605960D02*
X8320253Y-15615484D01*
X8320253Y-15615484D02*
X8310729Y-15605960D01*
X8310729Y-15605960D02*
X8320253Y-15596436D01*
X8320253Y-15596436D02*
X8320253Y-15615484D01*
X8520253Y-15615484D02*
X8405967Y-15615484D01*
X8463110Y-15615484D02*
X8463110Y-15415484D01*
X8463110Y-15415484D02*
X8444063Y-15444055D01*
X8444063Y-15444055D02*
X8425015Y-15463103D01*
X8425015Y-15463103D02*
X8405967Y-15472627D01*
X8644063Y-15415484D02*
X8663110Y-15415484D01*
X8663110Y-15415484D02*
X8682158Y-15425008D01*
X8682158Y-15425008D02*
X8691682Y-15434531D01*
X8691682Y-15434531D02*
X8701205Y-15453579D01*
X8701205Y-15453579D02*
X8710729Y-15491674D01*
X8710729Y-15491674D02*
X8710729Y-15539293D01*
X8710729Y-15539293D02*
X8701205Y-15577388D01*
X8701205Y-15577388D02*
X8691682Y-15596436D01*
X8691682Y-15596436D02*
X8682158Y-15605960D01*
X8682158Y-15605960D02*
X8663110Y-15615484D01*
X8663110Y-15615484D02*
X8644063Y-15615484D01*
X8644063Y-15615484D02*
X8625015Y-15605960D01*
X8625015Y-15605960D02*
X8615491Y-15596436D01*
X8615491Y-15596436D02*
X8605967Y-15577388D01*
X8605967Y-15577388D02*
X8596444Y-15539293D01*
X8596444Y-15539293D02*
X8596444Y-15491674D01*
X8596444Y-15491674D02*
X8605967Y-15453579D01*
X8605967Y-15453579D02*
X8615491Y-15434531D01*
X8615491Y-15434531D02*
X8625015Y-15425008D01*
X8625015Y-15425008D02*
X8644063Y-15415484D01*
X8834539Y-15415484D02*
X8853586Y-15415484D01*
X8853586Y-15415484D02*
X8872634Y-15425008D01*
X8872634Y-15425008D02*
X8882158Y-15434531D01*
X8882158Y-15434531D02*
X8891682Y-15453579D01*
X8891682Y-15453579D02*
X8901205Y-15491674D01*
X8901205Y-15491674D02*
X8901205Y-15539293D01*
X8901205Y-15539293D02*
X8891682Y-15577388D01*
X8891682Y-15577388D02*
X8882158Y-15596436D01*
X8882158Y-15596436D02*
X8872634Y-15605960D01*
X8872634Y-15605960D02*
X8853586Y-15615484D01*
X8853586Y-15615484D02*
X8834539Y-15615484D01*
X8834539Y-15615484D02*
X8815491Y-15605960D01*
X8815491Y-15605960D02*
X8805967Y-15596436D01*
X8805967Y-15596436D02*
X8796444Y-15577388D01*
X8796444Y-15577388D02*
X8786920Y-15539293D01*
X8786920Y-15539293D02*
X8786920Y-15491674D01*
X8786920Y-15491674D02*
X8796444Y-15453579D01*
X8796444Y-15453579D02*
X8805967Y-15434531D01*
X8805967Y-15434531D02*
X8815491Y-15425008D01*
X8815491Y-15425008D02*
X8834539Y-15415484D01*
X8986920Y-15615484D02*
X8986920Y-15482150D01*
X8986920Y-15501198D02*
X8996444Y-15491674D01*
X8996444Y-15491674D02*
X9015491Y-15482150D01*
X9015491Y-15482150D02*
X9044063Y-15482150D01*
X9044063Y-15482150D02*
X9063110Y-15491674D01*
X9063110Y-15491674D02*
X9072634Y-15510722D01*
X9072634Y-15510722D02*
X9072634Y-15615484D01*
X9072634Y-15510722D02*
X9082158Y-15491674D01*
X9082158Y-15491674D02*
X9101205Y-15482150D01*
X9101205Y-15482150D02*
X9129777Y-15482150D01*
X9129777Y-15482150D02*
X9148825Y-15491674D01*
X9148825Y-15491674D02*
X9158348Y-15510722D01*
X9158348Y-15510722D02*
X9158348Y-15615484D01*
X9253586Y-15615484D02*
X9253586Y-15482150D01*
X9253586Y-15501198D02*
X9263110Y-15491674D01*
X9263110Y-15491674D02*
X9282158Y-15482150D01*
X9282158Y-15482150D02*
X9310729Y-15482150D01*
X9310729Y-15482150D02*
X9329777Y-15491674D01*
X9329777Y-15491674D02*
X9339301Y-15510722D01*
X9339301Y-15510722D02*
X9339301Y-15615484D01*
X9339301Y-15510722D02*
X9348825Y-15491674D01*
X9348825Y-15491674D02*
X9367872Y-15482150D01*
X9367872Y-15482150D02*
X9396444Y-15482150D01*
X9396444Y-15482150D02*
X9415491Y-15491674D01*
X9415491Y-15491674D02*
X9425015Y-15510722D01*
X9425015Y-15510722D02*
X9425015Y-15615484D01*
X9815491Y-15405960D02*
X9644063Y-15663103D01*
X10072634Y-15415484D02*
X10091682Y-15415484D01*
X10091682Y-15415484D02*
X10110729Y-15425008D01*
X10110729Y-15425008D02*
X10120253Y-15434531D01*
X10120253Y-15434531D02*
X10129777Y-15453579D01*
X10129777Y-15453579D02*
X10139301Y-15491674D01*
X10139301Y-15491674D02*
X10139301Y-15539293D01*
X10139301Y-15539293D02*
X10129777Y-15577388D01*
X10129777Y-15577388D02*
X10120253Y-15596436D01*
X10120253Y-15596436D02*
X10110729Y-15605960D01*
X10110729Y-15605960D02*
X10091682Y-15615484D01*
X10091682Y-15615484D02*
X10072634Y-15615484D01*
X10072634Y-15615484D02*
X10053587Y-15605960D01*
X10053587Y-15605960D02*
X10044063Y-15596436D01*
X10044063Y-15596436D02*
X10034539Y-15577388D01*
X10034539Y-15577388D02*
X10025015Y-15539293D01*
X10025015Y-15539293D02*
X10025015Y-15491674D01*
X10025015Y-15491674D02*
X10034539Y-15453579D01*
X10034539Y-15453579D02*
X10044063Y-15434531D01*
X10044063Y-15434531D02*
X10053587Y-15425008D01*
X10053587Y-15425008D02*
X10072634Y-15415484D01*
X10225015Y-15596436D02*
X10234539Y-15605960D01*
X10234539Y-15605960D02*
X10225015Y-15615484D01*
X10225015Y-15615484D02*
X10215491Y-15605960D01*
X10215491Y-15605960D02*
X10225015Y-15596436D01*
X10225015Y-15596436D02*
X10225015Y-15615484D01*
X10358348Y-15415484D02*
X10377396Y-15415484D01*
X10377396Y-15415484D02*
X10396444Y-15425008D01*
X10396444Y-15425008D02*
X10405968Y-15434531D01*
X10405968Y-15434531D02*
X10415491Y-15453579D01*
X10415491Y-15453579D02*
X10425015Y-15491674D01*
X10425015Y-15491674D02*
X10425015Y-15539293D01*
X10425015Y-15539293D02*
X10415491Y-15577388D01*
X10415491Y-15577388D02*
X10405968Y-15596436D01*
X10405968Y-15596436D02*
X10396444Y-15605960D01*
X10396444Y-15605960D02*
X10377396Y-15615484D01*
X10377396Y-15615484D02*
X10358348Y-15615484D01*
X10358348Y-15615484D02*
X10339301Y-15605960D01*
X10339301Y-15605960D02*
X10329777Y-15596436D01*
X10329777Y-15596436D02*
X10320253Y-15577388D01*
X10320253Y-15577388D02*
X10310729Y-15539293D01*
X10310729Y-15539293D02*
X10310729Y-15491674D01*
X10310729Y-15491674D02*
X10320253Y-15453579D01*
X10320253Y-15453579D02*
X10329777Y-15434531D01*
X10329777Y-15434531D02*
X10339301Y-15425008D01*
X10339301Y-15425008D02*
X10358348Y-15415484D01*
X10596444Y-15482150D02*
X10596444Y-15615484D01*
X10548825Y-15405960D02*
X10501206Y-15548817D01*
X10501206Y-15548817D02*
X10625015Y-15548817D01*
X10682158Y-15415484D02*
X10805968Y-15415484D01*
X10805968Y-15415484D02*
X10739301Y-15491674D01*
X10739301Y-15491674D02*
X10767872Y-15491674D01*
X10767872Y-15491674D02*
X10786920Y-15501198D01*
X10786920Y-15501198D02*
X10796444Y-15510722D01*
X10796444Y-15510722D02*
X10805968Y-15529769D01*
X10805968Y-15529769D02*
X10805968Y-15577388D01*
X10805968Y-15577388D02*
X10796444Y-15596436D01*
X10796444Y-15596436D02*
X10786920Y-15605960D01*
X10786920Y-15605960D02*
X10767872Y-15615484D01*
X10767872Y-15615484D02*
X10710729Y-15615484D01*
X10710729Y-15615484D02*
X10691682Y-15605960D01*
X10691682Y-15605960D02*
X10682158Y-15596436D01*
X10872634Y-15415484D02*
X10996444Y-15415484D01*
X10996444Y-15415484D02*
X10929777Y-15491674D01*
X10929777Y-15491674D02*
X10958349Y-15491674D01*
X10958349Y-15491674D02*
X10977396Y-15501198D01*
X10977396Y-15501198D02*
X10986920Y-15510722D01*
X10986920Y-15510722D02*
X10996444Y-15529769D01*
X10996444Y-15529769D02*
X10996444Y-15577388D01*
X10996444Y-15577388D02*
X10986920Y-15596436D01*
X10986920Y-15596436D02*
X10977396Y-15605960D01*
X10977396Y-15605960D02*
X10958349Y-15615484D01*
X10958349Y-15615484D02*
X10901206Y-15615484D01*
X10901206Y-15615484D02*
X10882158Y-15605960D01*
X10882158Y-15605960D02*
X10872634Y-15596436D01*
X11072634Y-15415484D02*
X11072634Y-15453579D01*
X11148825Y-15415484D02*
X11148825Y-15453579D01*
X11444063Y-15691674D02*
X11434539Y-15682150D01*
X11434539Y-15682150D02*
X11415491Y-15653579D01*
X11415491Y-15653579D02*
X11405968Y-15634531D01*
X11405968Y-15634531D02*
X11396444Y-15605960D01*
X11396444Y-15605960D02*
X11386920Y-15558341D01*
X11386920Y-15558341D02*
X11386920Y-15520246D01*
X11386920Y-15520246D02*
X11396444Y-15472627D01*
X11396444Y-15472627D02*
X11405968Y-15444055D01*
X11405968Y-15444055D02*
X11415491Y-15425008D01*
X11415491Y-15425008D02*
X11434539Y-15396436D01*
X11434539Y-15396436D02*
X11444063Y-15386912D01*
X11501206Y-15415484D02*
X11625015Y-15415484D01*
X11625015Y-15415484D02*
X11558348Y-15491674D01*
X11558348Y-15491674D02*
X11586920Y-15491674D01*
X11586920Y-15491674D02*
X11605968Y-15501198D01*
X11605968Y-15501198D02*
X11615491Y-15510722D01*
X11615491Y-15510722D02*
X11625015Y-15529769D01*
X11625015Y-15529769D02*
X11625015Y-15577388D01*
X11625015Y-15577388D02*
X11615491Y-15596436D01*
X11615491Y-15596436D02*
X11605968Y-15605960D01*
X11605968Y-15605960D02*
X11586920Y-15615484D01*
X11586920Y-15615484D02*
X11529777Y-15615484D01*
X11529777Y-15615484D02*
X11510729Y-15605960D01*
X11510729Y-15605960D02*
X11501206Y-15596436D01*
X11863110Y-15615484D02*
X11863110Y-15415484D01*
X11948825Y-15615484D02*
X11948825Y-15510722D01*
X11948825Y-15510722D02*
X11939301Y-15491674D01*
X11939301Y-15491674D02*
X11920253Y-15482150D01*
X11920253Y-15482150D02*
X11891682Y-15482150D01*
X11891682Y-15482150D02*
X11872634Y-15491674D01*
X11872634Y-15491674D02*
X11863110Y-15501198D01*
X12072634Y-15615484D02*
X12053587Y-15605960D01*
X12053587Y-15605960D02*
X12044063Y-15596436D01*
X12044063Y-15596436D02*
X12034539Y-15577388D01*
X12034539Y-15577388D02*
X12034539Y-15520246D01*
X12034539Y-15520246D02*
X12044063Y-15501198D01*
X12044063Y-15501198D02*
X12053587Y-15491674D01*
X12053587Y-15491674D02*
X12072634Y-15482150D01*
X12072634Y-15482150D02*
X12101206Y-15482150D01*
X12101206Y-15482150D02*
X12120253Y-15491674D01*
X12120253Y-15491674D02*
X12129777Y-15501198D01*
X12129777Y-15501198D02*
X12139301Y-15520246D01*
X12139301Y-15520246D02*
X12139301Y-15577388D01*
X12139301Y-15577388D02*
X12129777Y-15596436D01*
X12129777Y-15596436D02*
X12120253Y-15605960D01*
X12120253Y-15605960D02*
X12101206Y-15615484D01*
X12101206Y-15615484D02*
X12072634Y-15615484D01*
X12253587Y-15615484D02*
X12234539Y-15605960D01*
X12234539Y-15605960D02*
X12225015Y-15586912D01*
X12225015Y-15586912D02*
X12225015Y-15415484D01*
X12405968Y-15605960D02*
X12386920Y-15615484D01*
X12386920Y-15615484D02*
X12348825Y-15615484D01*
X12348825Y-15615484D02*
X12329777Y-15605960D01*
X12329777Y-15605960D02*
X12320253Y-15586912D01*
X12320253Y-15586912D02*
X12320253Y-15510722D01*
X12320253Y-15510722D02*
X12329777Y-15491674D01*
X12329777Y-15491674D02*
X12348825Y-15482150D01*
X12348825Y-15482150D02*
X12386920Y-15482150D01*
X12386920Y-15482150D02*
X12405968Y-15491674D01*
X12405968Y-15491674D02*
X12415491Y-15510722D01*
X12415491Y-15510722D02*
X12415491Y-15529769D01*
X12415491Y-15529769D02*
X12320253Y-15548817D01*
X12491682Y-15605960D02*
X12510730Y-15615484D01*
X12510730Y-15615484D02*
X12548825Y-15615484D01*
X12548825Y-15615484D02*
X12567872Y-15605960D01*
X12567872Y-15605960D02*
X12577396Y-15586912D01*
X12577396Y-15586912D02*
X12577396Y-15577388D01*
X12577396Y-15577388D02*
X12567872Y-15558341D01*
X12567872Y-15558341D02*
X12548825Y-15548817D01*
X12548825Y-15548817D02*
X12520253Y-15548817D01*
X12520253Y-15548817D02*
X12501206Y-15539293D01*
X12501206Y-15539293D02*
X12491682Y-15520246D01*
X12491682Y-15520246D02*
X12491682Y-15510722D01*
X12491682Y-15510722D02*
X12501206Y-15491674D01*
X12501206Y-15491674D02*
X12520253Y-15482150D01*
X12520253Y-15482150D02*
X12548825Y-15482150D01*
X12548825Y-15482150D02*
X12567872Y-15491674D01*
X12644063Y-15691674D02*
X12653587Y-15682150D01*
X12653587Y-15682150D02*
X12672634Y-15653579D01*
X12672634Y-15653579D02*
X12682158Y-15634531D01*
X12682158Y-15634531D02*
X12691682Y-15605960D01*
X12691682Y-15605960D02*
X12701206Y-15558341D01*
X12701206Y-15558341D02*
X12701206Y-15520246D01*
X12701206Y-15520246D02*
X12691682Y-15472627D01*
X12691682Y-15472627D02*
X12682158Y-15444055D01*
X12682158Y-15444055D02*
X12672634Y-15425008D01*
X12672634Y-15425008D02*
X12653587Y-15396436D01*
X12653587Y-15396436D02*
X12644063Y-15386912D01*
X7839711Y-15858711D02*
X7839711Y-15717289D01*
X7698289Y-15717289D01*
X7698289Y-15858711D01*
X7839711Y-15858711D01*
X8110729Y-15679484D02*
X8234539Y-15679484D01*
X8234539Y-15679484D02*
X8167872Y-15755674D01*
X8167872Y-15755674D02*
X8196443Y-15755674D01*
X8196443Y-15755674D02*
X8215491Y-15765198D01*
X8215491Y-15765198D02*
X8225015Y-15774722D01*
X8225015Y-15774722D02*
X8234539Y-15793769D01*
X8234539Y-15793769D02*
X8234539Y-15841388D01*
X8234539Y-15841388D02*
X8225015Y-15860436D01*
X8225015Y-15860436D02*
X8215491Y-15869960D01*
X8215491Y-15869960D02*
X8196443Y-15879484D01*
X8196443Y-15879484D02*
X8139301Y-15879484D01*
X8139301Y-15879484D02*
X8120253Y-15869960D01*
X8120253Y-15869960D02*
X8110729Y-15860436D01*
X8320253Y-15860436D02*
X8329777Y-15869960D01*
X8329777Y-15869960D02*
X8320253Y-15879484D01*
X8320253Y-15879484D02*
X8310729Y-15869960D01*
X8310729Y-15869960D02*
X8320253Y-15860436D01*
X8320253Y-15860436D02*
X8320253Y-15879484D01*
X8453586Y-15679484D02*
X8472634Y-15679484D01*
X8472634Y-15679484D02*
X8491682Y-15689008D01*
X8491682Y-15689008D02*
X8501205Y-15698531D01*
X8501205Y-15698531D02*
X8510729Y-15717579D01*
X8510729Y-15717579D02*
X8520253Y-15755674D01*
X8520253Y-15755674D02*
X8520253Y-15803293D01*
X8520253Y-15803293D02*
X8510729Y-15841388D01*
X8510729Y-15841388D02*
X8501205Y-15860436D01*
X8501205Y-15860436D02*
X8491682Y-15869960D01*
X8491682Y-15869960D02*
X8472634Y-15879484D01*
X8472634Y-15879484D02*
X8453586Y-15879484D01*
X8453586Y-15879484D02*
X8434539Y-15869960D01*
X8434539Y-15869960D02*
X8425015Y-15860436D01*
X8425015Y-15860436D02*
X8415491Y-15841388D01*
X8415491Y-15841388D02*
X8405967Y-15803293D01*
X8405967Y-15803293D02*
X8405967Y-15755674D01*
X8405967Y-15755674D02*
X8415491Y-15717579D01*
X8415491Y-15717579D02*
X8425015Y-15698531D01*
X8425015Y-15698531D02*
X8434539Y-15689008D01*
X8434539Y-15689008D02*
X8453586Y-15679484D01*
X8644063Y-15679484D02*
X8663110Y-15679484D01*
X8663110Y-15679484D02*
X8682158Y-15689008D01*
X8682158Y-15689008D02*
X8691682Y-15698531D01*
X8691682Y-15698531D02*
X8701205Y-15717579D01*
X8701205Y-15717579D02*
X8710729Y-15755674D01*
X8710729Y-15755674D02*
X8710729Y-15803293D01*
X8710729Y-15803293D02*
X8701205Y-15841388D01*
X8701205Y-15841388D02*
X8691682Y-15860436D01*
X8691682Y-15860436D02*
X8682158Y-15869960D01*
X8682158Y-15869960D02*
X8663110Y-15879484D01*
X8663110Y-15879484D02*
X8644063Y-15879484D01*
X8644063Y-15879484D02*
X8625015Y-15869960D01*
X8625015Y-15869960D02*
X8615491Y-15860436D01*
X8615491Y-15860436D02*
X8605967Y-15841388D01*
X8605967Y-15841388D02*
X8596444Y-15803293D01*
X8596444Y-15803293D02*
X8596444Y-15755674D01*
X8596444Y-15755674D02*
X8605967Y-15717579D01*
X8605967Y-15717579D02*
X8615491Y-15698531D01*
X8615491Y-15698531D02*
X8625015Y-15689008D01*
X8625015Y-15689008D02*
X8644063Y-15679484D01*
X8834539Y-15679484D02*
X8853586Y-15679484D01*
X8853586Y-15679484D02*
X8872634Y-15689008D01*
X8872634Y-15689008D02*
X8882158Y-15698531D01*
X8882158Y-15698531D02*
X8891682Y-15717579D01*
X8891682Y-15717579D02*
X8901205Y-15755674D01*
X8901205Y-15755674D02*
X8901205Y-15803293D01*
X8901205Y-15803293D02*
X8891682Y-15841388D01*
X8891682Y-15841388D02*
X8882158Y-15860436D01*
X8882158Y-15860436D02*
X8872634Y-15869960D01*
X8872634Y-15869960D02*
X8853586Y-15879484D01*
X8853586Y-15879484D02*
X8834539Y-15879484D01*
X8834539Y-15879484D02*
X8815491Y-15869960D01*
X8815491Y-15869960D02*
X8805967Y-15860436D01*
X8805967Y-15860436D02*
X8796444Y-15841388D01*
X8796444Y-15841388D02*
X8786920Y-15803293D01*
X8786920Y-15803293D02*
X8786920Y-15755674D01*
X8786920Y-15755674D02*
X8796444Y-15717579D01*
X8796444Y-15717579D02*
X8805967Y-15698531D01*
X8805967Y-15698531D02*
X8815491Y-15689008D01*
X8815491Y-15689008D02*
X8834539Y-15679484D01*
X8986920Y-15879484D02*
X8986920Y-15746150D01*
X8986920Y-15765198D02*
X8996444Y-15755674D01*
X8996444Y-15755674D02*
X9015491Y-15746150D01*
X9015491Y-15746150D02*
X9044063Y-15746150D01*
X9044063Y-15746150D02*
X9063110Y-15755674D01*
X9063110Y-15755674D02*
X9072634Y-15774722D01*
X9072634Y-15774722D02*
X9072634Y-15879484D01*
X9072634Y-15774722D02*
X9082158Y-15755674D01*
X9082158Y-15755674D02*
X9101205Y-15746150D01*
X9101205Y-15746150D02*
X9129777Y-15746150D01*
X9129777Y-15746150D02*
X9148825Y-15755674D01*
X9148825Y-15755674D02*
X9158348Y-15774722D01*
X9158348Y-15774722D02*
X9158348Y-15879484D01*
X9253586Y-15879484D02*
X9253586Y-15746150D01*
X9253586Y-15765198D02*
X9263110Y-15755674D01*
X9263110Y-15755674D02*
X9282158Y-15746150D01*
X9282158Y-15746150D02*
X9310729Y-15746150D01*
X9310729Y-15746150D02*
X9329777Y-15755674D01*
X9329777Y-15755674D02*
X9339301Y-15774722D01*
X9339301Y-15774722D02*
X9339301Y-15879484D01*
X9339301Y-15774722D02*
X9348825Y-15755674D01*
X9348825Y-15755674D02*
X9367872Y-15746150D01*
X9367872Y-15746150D02*
X9396444Y-15746150D01*
X9396444Y-15746150D02*
X9415491Y-15755674D01*
X9415491Y-15755674D02*
X9425015Y-15774722D01*
X9425015Y-15774722D02*
X9425015Y-15879484D01*
X9815491Y-15669960D02*
X9644063Y-15927103D01*
X10072634Y-15679484D02*
X10091682Y-15679484D01*
X10091682Y-15679484D02*
X10110729Y-15689008D01*
X10110729Y-15689008D02*
X10120253Y-15698531D01*
X10120253Y-15698531D02*
X10129777Y-15717579D01*
X10129777Y-15717579D02*
X10139301Y-15755674D01*
X10139301Y-15755674D02*
X10139301Y-15803293D01*
X10139301Y-15803293D02*
X10129777Y-15841388D01*
X10129777Y-15841388D02*
X10120253Y-15860436D01*
X10120253Y-15860436D02*
X10110729Y-15869960D01*
X10110729Y-15869960D02*
X10091682Y-15879484D01*
X10091682Y-15879484D02*
X10072634Y-15879484D01*
X10072634Y-15879484D02*
X10053587Y-15869960D01*
X10053587Y-15869960D02*
X10044063Y-15860436D01*
X10044063Y-15860436D02*
X10034539Y-15841388D01*
X10034539Y-15841388D02*
X10025015Y-15803293D01*
X10025015Y-15803293D02*
X10025015Y-15755674D01*
X10025015Y-15755674D02*
X10034539Y-15717579D01*
X10034539Y-15717579D02*
X10044063Y-15698531D01*
X10044063Y-15698531D02*
X10053587Y-15689008D01*
X10053587Y-15689008D02*
X10072634Y-15679484D01*
X10225015Y-15860436D02*
X10234539Y-15869960D01*
X10234539Y-15869960D02*
X10225015Y-15879484D01*
X10225015Y-15879484D02*
X10215491Y-15869960D01*
X10215491Y-15869960D02*
X10225015Y-15860436D01*
X10225015Y-15860436D02*
X10225015Y-15879484D01*
X10425015Y-15879484D02*
X10310729Y-15879484D01*
X10367872Y-15879484D02*
X10367872Y-15679484D01*
X10367872Y-15679484D02*
X10348825Y-15708055D01*
X10348825Y-15708055D02*
X10329777Y-15727103D01*
X10329777Y-15727103D02*
X10310729Y-15736627D01*
X10615491Y-15879484D02*
X10501206Y-15879484D01*
X10558348Y-15879484D02*
X10558348Y-15679484D01*
X10558348Y-15679484D02*
X10539301Y-15708055D01*
X10539301Y-15708055D02*
X10520253Y-15727103D01*
X10520253Y-15727103D02*
X10501206Y-15736627D01*
X10729777Y-15765198D02*
X10710729Y-15755674D01*
X10710729Y-15755674D02*
X10701206Y-15746150D01*
X10701206Y-15746150D02*
X10691682Y-15727103D01*
X10691682Y-15727103D02*
X10691682Y-15717579D01*
X10691682Y-15717579D02*
X10701206Y-15698531D01*
X10701206Y-15698531D02*
X10710729Y-15689008D01*
X10710729Y-15689008D02*
X10729777Y-15679484D01*
X10729777Y-15679484D02*
X10767872Y-15679484D01*
X10767872Y-15679484D02*
X10786920Y-15689008D01*
X10786920Y-15689008D02*
X10796444Y-15698531D01*
X10796444Y-15698531D02*
X10805968Y-15717579D01*
X10805968Y-15717579D02*
X10805968Y-15727103D01*
X10805968Y-15727103D02*
X10796444Y-15746150D01*
X10796444Y-15746150D02*
X10786920Y-15755674D01*
X10786920Y-15755674D02*
X10767872Y-15765198D01*
X10767872Y-15765198D02*
X10729777Y-15765198D01*
X10729777Y-15765198D02*
X10710729Y-15774722D01*
X10710729Y-15774722D02*
X10701206Y-15784246D01*
X10701206Y-15784246D02*
X10691682Y-15803293D01*
X10691682Y-15803293D02*
X10691682Y-15841388D01*
X10691682Y-15841388D02*
X10701206Y-15860436D01*
X10701206Y-15860436D02*
X10710729Y-15869960D01*
X10710729Y-15869960D02*
X10729777Y-15879484D01*
X10729777Y-15879484D02*
X10767872Y-15879484D01*
X10767872Y-15879484D02*
X10786920Y-15869960D01*
X10786920Y-15869960D02*
X10796444Y-15860436D01*
X10796444Y-15860436D02*
X10805968Y-15841388D01*
X10805968Y-15841388D02*
X10805968Y-15803293D01*
X10805968Y-15803293D02*
X10796444Y-15784246D01*
X10796444Y-15784246D02*
X10786920Y-15774722D01*
X10786920Y-15774722D02*
X10767872Y-15765198D01*
X10996444Y-15879484D02*
X10882158Y-15879484D01*
X10939301Y-15879484D02*
X10939301Y-15679484D01*
X10939301Y-15679484D02*
X10920253Y-15708055D01*
X10920253Y-15708055D02*
X10901206Y-15727103D01*
X10901206Y-15727103D02*
X10882158Y-15736627D01*
X11072634Y-15679484D02*
X11072634Y-15717579D01*
X11148825Y-15679484D02*
X11148825Y-15717579D01*
X11444063Y-15955674D02*
X11434539Y-15946150D01*
X11434539Y-15946150D02*
X11415491Y-15917579D01*
X11415491Y-15917579D02*
X11405968Y-15898531D01*
X11405968Y-15898531D02*
X11396444Y-15869960D01*
X11396444Y-15869960D02*
X11386920Y-15822341D01*
X11386920Y-15822341D02*
X11386920Y-15784246D01*
X11386920Y-15784246D02*
X11396444Y-15736627D01*
X11396444Y-15736627D02*
X11405968Y-15708055D01*
X11405968Y-15708055D02*
X11415491Y-15689008D01*
X11415491Y-15689008D02*
X11434539Y-15660436D01*
X11434539Y-15660436D02*
X11444063Y-15650912D01*
X11510729Y-15698531D02*
X11520253Y-15689008D01*
X11520253Y-15689008D02*
X11539301Y-15679484D01*
X11539301Y-15679484D02*
X11586920Y-15679484D01*
X11586920Y-15679484D02*
X11605968Y-15689008D01*
X11605968Y-15689008D02*
X11615491Y-15698531D01*
X11615491Y-15698531D02*
X11625015Y-15717579D01*
X11625015Y-15717579D02*
X11625015Y-15736627D01*
X11625015Y-15736627D02*
X11615491Y-15765198D01*
X11615491Y-15765198D02*
X11501206Y-15879484D01*
X11501206Y-15879484D02*
X11625015Y-15879484D01*
X11863110Y-15879484D02*
X11863110Y-15679484D01*
X11948825Y-15879484D02*
X11948825Y-15774722D01*
X11948825Y-15774722D02*
X11939301Y-15755674D01*
X11939301Y-15755674D02*
X11920253Y-15746150D01*
X11920253Y-15746150D02*
X11891682Y-15746150D01*
X11891682Y-15746150D02*
X11872634Y-15755674D01*
X11872634Y-15755674D02*
X11863110Y-15765198D01*
X12072634Y-15879484D02*
X12053587Y-15869960D01*
X12053587Y-15869960D02*
X12044063Y-15860436D01*
X12044063Y-15860436D02*
X12034539Y-15841388D01*
X12034539Y-15841388D02*
X12034539Y-15784246D01*
X12034539Y-15784246D02*
X12044063Y-15765198D01*
X12044063Y-15765198D02*
X12053587Y-15755674D01*
X12053587Y-15755674D02*
X12072634Y-15746150D01*
X12072634Y-15746150D02*
X12101206Y-15746150D01*
X12101206Y-15746150D02*
X12120253Y-15755674D01*
X12120253Y-15755674D02*
X12129777Y-15765198D01*
X12129777Y-15765198D02*
X12139301Y-15784246D01*
X12139301Y-15784246D02*
X12139301Y-15841388D01*
X12139301Y-15841388D02*
X12129777Y-15860436D01*
X12129777Y-15860436D02*
X12120253Y-15869960D01*
X12120253Y-15869960D02*
X12101206Y-15879484D01*
X12101206Y-15879484D02*
X12072634Y-15879484D01*
X12253587Y-15879484D02*
X12234539Y-15869960D01*
X12234539Y-15869960D02*
X12225015Y-15850912D01*
X12225015Y-15850912D02*
X12225015Y-15679484D01*
X12405968Y-15869960D02*
X12386920Y-15879484D01*
X12386920Y-15879484D02*
X12348825Y-15879484D01*
X12348825Y-15879484D02*
X12329777Y-15869960D01*
X12329777Y-15869960D02*
X12320253Y-15850912D01*
X12320253Y-15850912D02*
X12320253Y-15774722D01*
X12320253Y-15774722D02*
X12329777Y-15755674D01*
X12329777Y-15755674D02*
X12348825Y-15746150D01*
X12348825Y-15746150D02*
X12386920Y-15746150D01*
X12386920Y-15746150D02*
X12405968Y-15755674D01*
X12405968Y-15755674D02*
X12415491Y-15774722D01*
X12415491Y-15774722D02*
X12415491Y-15793769D01*
X12415491Y-15793769D02*
X12320253Y-15812817D01*
X12491682Y-15869960D02*
X12510730Y-15879484D01*
X12510730Y-15879484D02*
X12548825Y-15879484D01*
X12548825Y-15879484D02*
X12567872Y-15869960D01*
X12567872Y-15869960D02*
X12577396Y-15850912D01*
X12577396Y-15850912D02*
X12577396Y-15841388D01*
X12577396Y-15841388D02*
X12567872Y-15822341D01*
X12567872Y-15822341D02*
X12548825Y-15812817D01*
X12548825Y-15812817D02*
X12520253Y-15812817D01*
X12520253Y-15812817D02*
X12501206Y-15803293D01*
X12501206Y-15803293D02*
X12491682Y-15784246D01*
X12491682Y-15784246D02*
X12491682Y-15774722D01*
X12491682Y-15774722D02*
X12501206Y-15755674D01*
X12501206Y-15755674D02*
X12520253Y-15746150D01*
X12520253Y-15746150D02*
X12548825Y-15746150D01*
X12548825Y-15746150D02*
X12567872Y-15755674D01*
X12644063Y-15955674D02*
X12653587Y-15946150D01*
X12653587Y-15946150D02*
X12672634Y-15917579D01*
X12672634Y-15917579D02*
X12682158Y-15898531D01*
X12682158Y-15898531D02*
X12691682Y-15869960D01*
X12691682Y-15869960D02*
X12701206Y-15822341D01*
X12701206Y-15822341D02*
X12701206Y-15784246D01*
X12701206Y-15784246D02*
X12691682Y-15736627D01*
X12691682Y-15736627D02*
X12682158Y-15708055D01*
X12682158Y-15708055D02*
X12672634Y-15689008D01*
X12672634Y-15689008D02*
X12653587Y-15660436D01*
X12653587Y-15660436D02*
X12644063Y-15650912D01*
M02*
