0
SECTION
2
HEADER
9
$INSUNITS
70
4
9
$ACADVER
1
AC1014
9
$HANDSEED
5
FFFF
0
ENDSEC
0
SECTION
2
TABLES
0
TABLE
2
VPORT
5
8
100
AcDbSymbolTable
0
ENDTAB
0
TABLE
2
LTYPE
5
5
100
AcDbSymbolTable
70
2
0
LTYPE
5
14
100
AcDbSymbolTableRecord
100
AcDbLinetypeTableRecord
2
BYBLOCK
70
0
0
LTYPE
5
15
100
AcDbSymbolTableRecord
100
AcDbLinetypeTableRecord
2
BYLAYER
70
0
0
ENDTAB
0
TABLE
2
LAYER
5
2
100
AcDbSymbolTable
70
3
0
LAYER
5
50
100
AcDbSymbolTableRecord
100
AcDbLayerTableRecord
2
0
70
0
6
CONTINUOUS
0
LAYER
5
51
100
AcDbSymbolTableRecord
100
AcDbLayerTableRecord
2
CUTOUTS
70
0
62
1
6
CONTINUOUS
0
LAYER
5
52
100
AcDbSymbolTableRecord
100
AcDbLayerTableRecord
2
PERIMETER
70
0
62
5
6
CONTINUOUS
0
ENDTAB
0
TABLE
2
STYLE
5
3
100
AcDbSymbolTable
70
1
0
STYLE
5
11
100
AcDbSymbolTableRecord
100
AcDbTextStyleTableRecord
2
STANDARD
70
0
0
ENDTAB
0
TABLE
2
VIEW
5
6
100
AcDbSymbolTable
0
ENDTAB
0
TABLE
2
UCS
5
7
100
AcDbSymbolTable
0
ENDTAB
0
TABLE
2
APPID
5
9
100
AcDbSymbolTable
70
1
0
APPID
5
12
100
AcDbSymbolTableRecord
100
AcDbRegAppTableRecord
2
ACAD
70
0
0
ENDTAB
0
TABLE
2
DIMSTYLE
5
A
100
AcDbSymbolTable
0
ENDTAB
0
TABLE
2
BLOCK_RECORD
5
1
100
AcDbSymbolTable
70
2
0
BLOCK_RECORD
5
1F
100
AcDbSymbolTableRecord
100
AcDbBlockTableRecord
2
*MODEL_SPACE
0
BLOCK_RECORD
5
1B
100
AcDbSymbolTableRecord
100
AcDbBlockTableRecord
2
*PAPER_SPACE
0
ENDTAB
0
ENDSEC
0
SECTION
2
BLOCKS
0
BLOCK
5
20
100
AcDbEntity
100
AcDbBlockBegin
2
*MODEL_SPACE
0
ENDBLK
5
21
100
AcDbEntity
100
AcDbBlockEnd
0
BLOCK
5
1C
100
AcDbEntity
100
AcDbBlockBegin
2
*PAPER_SPACE
0
ENDBLK
5
1D
100
AcDbEntity
100
AcDbBlockEnd
0
ENDSEC
0
SECTION
2
ENTITIES
0
LWPOLYLINE
5
100
100
AcDbEntity
8
CUTOUTS
100
AcDbPolyline
90
4
70
1
43
0.0
10
-43.075000000000017
20
128.25833333333333
10
-43.07500000000001
20
111.1861111111111
10
-47.925000000000004
20
111.1861111111111
10
-47.925000000000011
20
128.25833333333333
0
LWPOLYLINE
5
101
100
AcDbEntity
8
CUTOUTS
100
AcDbPolyline
90
4
70
1
43
0.0
10
-47.925000000000004
20
88.813888888888897
10
-43.07500000000001
20
88.813888888888897
10
-43.07500000000001
20
66.74166666666666
10
-47.925000000000004
20
66.74166666666666
0
LWPOLYLINE
5
102
100
AcDbEntity
8
CUTOUTS
100
AcDbPolyline
90
4
70
1
43
0.0
10
-43.07500000000001
20
22.297222222222217
10
-47.925000000000004
20
22.297222222222217
10
-47.925000000000004
20
44.369444444444426
10
-43.07500000000001
20
44.369444444444426
0
LWPOLYLINE
5
103
100
AcDbEntity
8
CUTOUTS
100
AcDbPolyline
90
6
70
1
43
0.0
10
-164.92500000000001
20
133.25833333333333
10
-140.07500000000002
20
133.2583333333333
10
-140.07500000000002
20
128.4083333333333
10
-160.07499999999999
20
128.4083333333333
10
-160.07499999999999
20
111.1861111111111
10
-164.92500000000001
20
111.1861111111111
0
LWPOLYLINE
5
104
100
AcDbEntity
8
CUTOUTS
100
AcDbPolyline
90
4
70
1
43
0.0
10
-119.92500000000001
20
128.4083333333333
10
-119.92500000000001
20
133.2583333333333
10
-100.07500000000002
20
133.2583333333333
10
-100.07500000000002
20
128.4083333333333
0
LWPOLYLINE
5
105
100
AcDbEntity
8
CUTOUTS
100
AcDbPolyline
90
4
70
1
43
0.0
10
-60.075000000000017
20
133.2583333333333
10
-60.075000000000017
20
128.4083333333333
10
-79.925000000000011
20
128.4083333333333
10
-79.925000000000011
20
133.2583333333333
0
LWPOLYLINE
5
106
100
AcDbEntity
8
CUTOUTS
100
AcDbPolyline
90
4
70
1
43
0.0
10
-39.925000000000011
20
133.2583333333333
10
-20.075000000000021
20
133.2583333333333
10
-20.075000000000021
20
128.4083333333333
10
-39.925000000000011
20
128.4083333333333
0
LWPOLYLINE
5
107
100
AcDbEntity
8
CUTOUTS
100
AcDbPolyline
90
4
70
1
43
0.0
10
-160.07499999999999
20
66.74166666666666
10
-164.92500000000001
20
66.74166666666666
10
-164.92500000000001
20
88.813888888888897
10
-160.07499999999999
20
88.813888888888897
0
LWPOLYLINE
5
108
100
AcDbEntity
8
CUTOUTS
100
AcDbPolyline
90
4
70
1
43
0.0
10
-160.07499999999999
20
177.70277777777778
10
-160.07499999999999
20
155.63055555555556
10
-164.92500000000001
20
155.63055555555556
10
-164.92500000000001
20
177.70277777777778
0
LWPOLYLINE
5
109
100
AcDbEntity
8
CUTOUTS
100
AcDbPolyline
90
4
70
1
43
0.0
10
-160.07499999999999
20
44.369444444444426
10
-160.07499999999999
20
22.297222222222217
10
-164.92500000000001
20
22.297222222222217
10
-164.92500000000001
20
44.369444444444426
0
LWPOLYLINE
5
10A
100
AcDbEntity
8
PERIMETER
100
AcDbPolyline
90
88
70
1
43
0.0
10
-300.07500000000005
20
111.1861111111111
10
-300.07500000000005
20
88.813888888888897
10
-295.07499999999999
20
88.813888888888897
10
-295.07499999999999
20
66.74166666666666
10
-300.07500000000005
20
66.74166666666666
10
-300.07500000000005
20
44.369444444444426
10
-295.07499999999999
20
44.369444444444426
10
-295.07499999999999
20
22.297222222222214
10
-300.07500000000005
20
22.297222222222214
10
-300.07499999999999
20
-0.074999999999998401
10
-280.13375464918738
20
-0.074999999999999997
10
-280.13375464918738
20
4.9249999999999998
10
-260.28375464918736
20
4.9249999999999998
10
-260.28375464918736
20
-0.075000000000000067
10
-240.13375464918738
20
-0.074999999999999997
10
-240.13375464918738
20
4.9249999999999998
10
-220.28375464918739
20
4.9249999999999998
10
-220.28375464918739
20
-0.075000000000000067
10
-200.13375464918738
20
-0.075000000000004452
10
-200.13375464918738
20
4.9249999999999998
10
-180.28375464918739
20
4.9249999999999998
10
-180.28375464918739
20
-0.075000000000004508
10
-160.13375464918738
20
-0.075000000000004438
10
-160.13375464918738
20
4.9249999999999989
10
-160.07499999999999
20
4.9249999999999989
10
-160.07499999999999
20
-0.075000000000000622
10
-120.13375464918738
20
-0.075000000000004452
10
-120.13375464918738
20
4.9249999999999989
10
-120.075
20
4.9249999999999989
10
-120.075
20
-0.075000000000000622
10
-80.133754649187381
20
-0.075000000000004452
10
-80.133754649187381
20
4.9249999999999989
10
-80.075000000000003
20
4.9249999999999989
10
-80.075000000000003
20
-0.075000000000000622
10
-40.133754649187381
20
-0.074999999999999997
10
-40.133754649187381
20
4.9249999999999998
10
-20.283754649187383
20
4.9249999999999998
10
-20.283754649187383
20
-0.075000000000000067
10
0.074999999999998401
20
-0.074999999999999997
10
0.074999999999999997
20
22.297222222222214
10
-4.9249999999999998
20
22.297222222222214
10
-4.9249999999999989
20
41.925000625848767
10
0.075000000000001177
20
41.925000625848767
10
0.074999999999999997
20
111.1861111111111
10
-4.9249999999999998
20
111.1861111111111
10
-4.9249999999999998
20
133.25833333333333
10
0.075000000000000067
20
133.25833333333333
10
0.074999999999999997
20
155.63055555555556
10
-4.9249999999999998
20
155.63055555555556
10
-4.9249999999999998
20
177.70277777777778
10
0.075000000000000067
20
177.70277777777778
10
0.074999999999999997
20
200.07499999999999
10
-20.283754649187383
20
200.07499999999999
10
-20.283754649187383
20
195.07499999999999
10
-40.133754649187381
20
195.07499999999999
10
-40.133754649187381
20
200.07499999999999
10
-60.283754649187387
20
200.07499999999999
10
-60.283754649187387
20
195.07499999999999
10
-80.133754649187381
20
195.07499999999999
10
-80.133754649187381
20
200.07499999999999
10
-100.28375464918739
20
200.07499999999999
10
-100.28375464918739
20
195.07499999999999
10
-120.13375464918738
20
195.07499999999999
10
-120.13375464918738
20
200.07499999999999
10
-140.28375464918739
20
200.07499999999999
10
-140.28375464918739
20
195.07499999999999
10
-160.13375464918738
20
195.07499999999999
10
-160.13375464918738
20
200.07499999999999
10
-180.28375464918739
20
200.07499999999999
10
-180.28375464918739
20
195.07499999999999
10
-200.13375464918738
20
195.07499999999999
10
-200.13375464918738
20
200.07499999999999
10
-220.28375464918739
20
200.07499999999999
10
-220.28375464918739
20
195.07499999999999
10
-240.13375464918738
20
195.07499999999999
10
-240.13375464918738
20
200.07499999999999
10
-260.28375464918736
20
200.07499999999999
10
-260.28375464918736
20
195.07499999999999
10
-280.13375464918738
20
195.07499999999999
10
-280.13375464918738
20
200.07499999999999
10
-300.07499999999999
20
200.07499999999999
10
-300.07499999999999
20
177.70277777777778
10
-295.07499999999999
20
177.70277777777778
10
-295.07499999999999
20
155.63055555555556
10
-300.07500000000005
20
155.63055555555556
10
-300.07500000000005
20
133.25833333333333
10
-295.07499999999999
20
133.25833333333333
10
-295.07499999999999
20
111.1861111111111
0
ENDSEC
0
SECTION
2
OBJECTS
0
DICTIONARY
5
C
100
AcDbDictionary
3
ACAD_GROUP
350
D
3
ACAD_MLINESTYLE
350
17
0
DICTIONARY
5
D
100
AcDbDictionary
0
DICTIONARY
5
1A
330
C
100
AcDbDictionary
0
DICTIONARY
5
17
100
AcDbDictionary
0
ENDSEC
0
EOF
