0
SECTION
2
HEADER
9
$INSUNITS
70
4
9
$ACADVER
1
AC1014
9
$HANDSEED
5
FFFF
0
ENDSEC
0
SECTION
2
TABLES
0
TABLE
2
VPORT
5
8
100
AcDbSymbolTable
0
ENDTAB
0
TABLE
2
LTYPE
5
5
100
AcDbSymbolTable
70
2
0
LTYPE
5
14
100
AcDbSymbolTableRecord
100
AcDbLinetypeTableRecord
2
BYBLOCK
70
0
0
LTYPE
5
15
100
AcDbSymbolTableRecord
100
AcDbLinetypeTableRecord
2
BYLAYER
70
0
0
ENDTAB
0
TABLE
2
LAYER
5
2
100
AcDbSymbolTable
70
3
0
LAYER
5
50
100
AcDbSymbolTableRecord
100
AcDbLayerTableRecord
2
0
70
0
6
CONTINUOUS
0
LAYER
5
51
100
AcDbSymbolTableRecord
100
AcDbLayerTableRecord
2
CUTOUTS
70
0
62
1
6
CONTINUOUS
0
LAYER
5
52
100
AcDbSymbolTableRecord
100
AcDbLayerTableRecord
2
PERIMETER
70
0
62
5
6
CONTINUOUS
0
ENDTAB
0
TABLE
2
STYLE
5
3
100
AcDbSymbolTable
70
1
0
STYLE
5
11
100
AcDbSymbolTableRecord
100
AcDbTextStyleTableRecord
2
STANDARD
70
0
0
ENDTAB
0
TABLE
2
VIEW
5
6
100
AcDbSymbolTable
0
ENDTAB
0
TABLE
2
UCS
5
7
100
AcDbSymbolTable
0
ENDTAB
0
TABLE
2
APPID
5
9
100
AcDbSymbolTable
70
1
0
APPID
5
12
100
AcDbSymbolTableRecord
100
AcDbRegAppTableRecord
2
ACAD
70
0
0
ENDTAB
0
TABLE
2
DIMSTYLE
5
A
100
AcDbSymbolTable
0
ENDTAB
0
TABLE
2
BLOCK_RECORD
5
1
100
AcDbSymbolTable
70
2
0
BLOCK_RECORD
5
1F
100
AcDbSymbolTableRecord
100
AcDbBlockTableRecord
2
*MODEL_SPACE
0
BLOCK_RECORD
5
1B
100
AcDbSymbolTableRecord
100
AcDbBlockTableRecord
2
*PAPER_SPACE
0
ENDTAB
0
ENDSEC
0
SECTION
2
BLOCKS
0
BLOCK
5
20
100
AcDbEntity
100
AcDbBlockBegin
2
*MODEL_SPACE
0
ENDBLK
5
21
100
AcDbEntity
100
AcDbBlockEnd
0
BLOCK
5
1C
100
AcDbEntity
100
AcDbBlockBegin
2
*PAPER_SPACE
0
ENDBLK
5
1D
100
AcDbEntity
100
AcDbBlockEnd
0
ENDSEC
0
SECTION
2
ENTITIES
0
CIRCLE
5
100
100
AcDbEntity
8
CUTOUTS
100
AcDbCircle
10
-169
20
-9.0000000000000071
30
7.3955709864469857e-31
40
1.4249999999999829
210
0
220
0
230
1
0
CIRCLE
5
101
100
AcDbEntity
8
CUTOUTS
100
AcDbCircle
10
-169
20
-57.000000000000014
30
1.5543122344752057e-15
40
1.4250000000000185
210
0
220
0
230
1
0
CIRCLE
5
102
100
AcDbEntity
8
CUTOUTS
100
AcDbCircle
10
-180.99999999999997
20
-9.0000000000000071
30
7.3955709864469857e-31
40
1.4249999999999829
210
0
220
0
230
1
0
CIRCLE
5
103
100
AcDbEntity
8
CUTOUTS
100
AcDbCircle
10
-181.00000269711018
20
-57.000000849366188
30
1.554312423072383e-15
40
1.4250000000000185
210
0
220
0
230
1
0
LWPOLYLINE
5
104
100
AcDbEntity
8
PERIMETER
100
AcDbPolyline
90
86
70
1
43
0.0
10
-59.924999999999997
20
-100.0750000000001
10
-59.924999999999997
20
-95.075000000000003
10
-47.925000000000004
20
-95.075000000000003
10
-47.925000000000004
20
-80.075000000000003
10
-43.07500000000001
20
-80.075000000000003
10
-43.07500000000001
20
-95.075000000000003
10
-40.075000000000003
20
-95.075000000000003
10
-40.075000000000003
20
-100.0750000000001
10
-19.924999999999997
20
-100.07500000000005
10
-19.924999999999997
20
-95.075000000000003
10
-4.9249999999999972
20
-95.075000000000003
10
-4.9249999999999972
20
-80.075000000000003
10
0.074999999999967315
20
-80.075000000000003
10
0.074999999999967315
20
-59.924999999999997
10
-4.9249999999999972
20
-59.924999999999997
10
-4.9249999999999972
20
-40.075000000000003
10
0.074999999999967315
20
-40.075000000000003
10
0.074999999999967315
20
-19.924999999999997
10
-4.9249999999999972
20
-19.924999999999997
10
-4.9249999999999972
20
-4.9249999999999972
10
-19.924999999999997
20
-4.9249999999999972
10
-19.924999999999997
20
0.075000000000002842
10
-40.075000000000003
20
0.074999999999931524
10
-40.075000000000003
20
-4.9249999999999972
10
-43.07500000000001
20
-4.9249999999999972
10
-43.07500000000001
20
-19.924999999999997
10
-48.07500000000001
20
-19.924999999999997
10
-48.07500000000001
20
-40.075000000000003
10
-43.07500000000001
20
-40.075000000000003
10
-43.07500000000001
20
-59.924999999999997
10
-48.07500000000001
20
-59.924999999999997
10
-48.07500000000001
20
-60.925000000000075
10
-159.92500000000001
20
-60.925000000000075
10
-159.92500000000001
20
-59.924999999999997
10
-164.92500000000001
20
-59.924999999999997
10
-164.92500000000001
20
-40.075000000000003
10
-159.92500000000001
20
-40.075000000000003
10
-159.92500000000001
20
-19.924999999999997
10
-164.92500000000001
20
-19.924999999999997
10
-164.92500000000001
20
-4.9249999999999972
10
-179.92500000000001
20
-4.9249999999999972
10
-179.92500000000001
20
0.074999999999931788
10
-200.07499999999999
20
0.074999999999931788
10
-200.07499999999999
20
-4.9249999999999972
10
-219.92500000000001
20
-4.9249999999999972
10
-219.92500000000001
20
0.074999999999931788
10
-240.07499999999999
20
0.074999999999931788
10
-240.07499999999999
20
-4.9249999999999972
10
-259.92500000000001
20
-4.9249999999999972
10
-259.92500000000001
20
0.075000000000002842
10
-280.07499999999999
20
0.075000000000002842
10
-280.07499999999999
20
-4.9249999999999972
10
-295.07499999999999
20
-4.9249999999999972
10
-295.07499999999999
20
-19.924999999999997
10
-300.07499999999999
20
-19.924999999999997
10
-300.07499999999999
20
-40.075000000000003
10
-295.07499999999999
20
-40.075000000000003
10
-295.07499999999999
20
-59.924999999999997
10
-300.07499999999999
20
-59.924999999999997
10
-300.07499999999999
20
-80.075000000000003
10
-295.07499999999999
20
-80.075000000000003
10
-295.07499999999999
20
-95.075000000000003
10
-280.07499999999999
20
-95.075000000000003
10
-280.07499999999999
20
-100.07500000000005
10
-259.92500000000001
20
-100.07500000000005
10
-259.92500000000001
20
-95.075000000000003
10
-240.07499999999999
20
-95.075000000000003
10
-240.07499999999999
20
-100.07500000000005
10
-219.92500000000001
20
-100.07500000000007
10
-219.92500000000001
20
-95.075000000000003
10
-200.07499999999999
20
-95.075000000000003
10
-200.07499999999999
20
-100.07500000000007
10
-179.92500000000001
20
-100.07500000000007
10
-179.92500000000001
20
-95.075000000000003
10
-164.92500000000001
20
-95.075000000000003
10
-164.92500000000001
20
-80.075000000000003
10
-160.07499999999999
20
-80.075000000000003
10
-160.07499999999999
20
-100.07500000000007
10
-139.92500000000001
20
-100.0750000000001
10
-139.92500000000001
20
-95.075000000000003
10
-120.075
20
-95.075000000000003
10
-120.075
20
-100.0750000000001
10
-99.924999999999997
20
-100.0750000000001
10
-99.924999999999997
20
-95.075000000000003
10
-80.075000000000003
20
-95.075000000000003
10
-80.075000000000003
20
-100.0750000000001
0
ENDSEC
0
SECTION
2
OBJECTS
0
DICTIONARY
5
C
100
AcDbDictionary
3
ACAD_GROUP
350
D
3
ACAD_MLINESTYLE
350
17
0
DICTIONARY
5
D
100
AcDbDictionary
0
DICTIONARY
5
1A
330
C
100
AcDbDictionary
0
DICTIONARY
5
17
100
AcDbDictionary
0
ENDSEC
0
EOF
