0
SECTION
2
HEADER
9
$INSUNITS
70
4
9
$ACADVER
1
AC1014
9
$HANDSEED
5
FFFF
0
ENDSEC
0
SECTION
2
TABLES
0
TABLE
2
VPORT
5
8
100
AcDbSymbolTable
0
ENDTAB
0
TABLE
2
LTYPE
5
5
100
AcDbSymbolTable
70
2
0
LTYPE
5
14
100
AcDbSymbolTableRecord
100
AcDbLinetypeTableRecord
2
BYBLOCK
70
0
0
LTYPE
5
15
100
AcDbSymbolTableRecord
100
AcDbLinetypeTableRecord
2
BYLAYER
70
0
0
ENDTAB
0
TABLE
2
LAYER
5
2
100
AcDbSymbolTable
70
3
0
LAYER
5
50
100
AcDbSymbolTableRecord
100
AcDbLayerTableRecord
2
0
70
0
6
CONTINUOUS
0
LAYER
5
51
100
AcDbSymbolTableRecord
100
AcDbLayerTableRecord
2
CUTOUTS
70
0
62
1
6
CONTINUOUS
0
LAYER
5
52
100
AcDbSymbolTableRecord
100
AcDbLayerTableRecord
2
PERIMETER
70
0
62
5
6
CONTINUOUS
0
ENDTAB
0
TABLE
2
STYLE
5
3
100
AcDbSymbolTable
70
1
0
STYLE
5
11
100
AcDbSymbolTableRecord
100
AcDbTextStyleTableRecord
2
STANDARD
70
0
0
ENDTAB
0
TABLE
2
VIEW
5
6
100
AcDbSymbolTable
0
ENDTAB
0
TABLE
2
UCS
5
7
100
AcDbSymbolTable
0
ENDTAB
0
TABLE
2
APPID
5
9
100
AcDbSymbolTable
70
1
0
APPID
5
12
100
AcDbSymbolTableRecord
100
AcDbRegAppTableRecord
2
ACAD
70
0
0
ENDTAB
0
TABLE
2
DIMSTYLE
5
A
100
AcDbSymbolTable
0
ENDTAB
0
TABLE
2
BLOCK_RECORD
5
1
100
AcDbSymbolTable
70
2
0
BLOCK_RECORD
5
1F
100
AcDbSymbolTableRecord
100
AcDbBlockTableRecord
2
*MODEL_SPACE
0
BLOCK_RECORD
5
1B
100
AcDbSymbolTableRecord
100
AcDbBlockTableRecord
2
*PAPER_SPACE
0
ENDTAB
0
ENDSEC
0
SECTION
2
BLOCKS
0
BLOCK
5
20
100
AcDbEntity
100
AcDbBlockBegin
2
*MODEL_SPACE
0
ENDBLK
5
21
100
AcDbEntity
100
AcDbBlockEnd
0
BLOCK
5
1C
100
AcDbEntity
100
AcDbBlockBegin
2
*PAPER_SPACE
0
ENDBLK
5
1D
100
AcDbEntity
100
AcDbBlockEnd
0
ENDSEC
0
SECTION
2
ENTITIES
0
CIRCLE
5
100
100
AcDbEntity
8
CUTOUTS
100
AcDbCircle
10
-75.00000111758709
20
170.0000025331974
30
0
40
9.9249999999999972
210
0
220
0
230
1
0
LWPOLYLINE
5
101
100
AcDbEntity
8
CUTOUTS
100
AcDbPolyline
90
4
70
1
43
0.0
10
-63.080644370746377
20
8.0750000000000064
10
-63.080644370746377
20
11.925000000000004
10
-22.919355629253673
20
11.925000000000011
10
-22.919355629253673
20
8.0750000000000153
0
LWPOLYLINE
5
102
100
AcDbEntity
8
CUTOUTS
100
AcDbPolyline
90
4
70
1
43
0.0
10
-79.924999999999983
20
128.4083333333333
10
-79.924999999999983
20
133.2583333333333
10
-60.074999999999996
20
133.25833333333327
10
-60.074999999999996
20
128.4083333333333
0
LWPOLYLINE
5
103
100
AcDbEntity
8
CUTOUTS
100
AcDbPolyline
90
4
70
1
43
0.0
10
-20.075000000000003
20
133.25833333333327
10
-20.075000000000003
20
128.4083333333333
10
-39.924999999999997
20
128.4083333333333
10
-39.924999999999997
20
133.25833333333327
0
LWPOLYLINE
5
104
100
AcDbEntity
8
PERIMETER
100
AcDbPolyline
90
52
70
1
43
0.0
10
-4.9250000000000327
20
44.519444444444431
10
-4.9250000000000327
20
66.591666666666654
10
0.074999999999985079
20
66.591666666666654
10
0.074999999999985079
20
88.963888888888903
10
-4.9250000000000327
20
88.963888888888903
10
-4.9250000000000327
20
111.0361111111111
10
0.074999999999985079
20
111.0361111111111
10
0.07499999999996726
20
133.40833333333333
10
-4.9250000000000327
20
133.40833333333333
10
-4.9250000000000327
20
155.48055555555555
10
0.074999999999967315
20
155.48055555555555
10
0.074999999999967315
20
177.85277777777779
10
-4.9250000000000327
20
177.85277777777779
10
-4.9250000000000327
20
200.07499999999999
10
-20.075000000000038
20
200.07499999999999
10
-20.075000000000038
20
195.07499999999999
10
-39.925000000000033
20
195.07499999999999
10
-39.925000000000033
20
200.07499999999999
10
-60.075000000000038
20
200.07499999999999
10
-60.075000000000038
20
195.07499999999999
10
-79.92500000000004
20
195.07499999999999
10
-79.92500000000004
20
200.07499999999999
10
-95.075000000000045
20
200.07499999999999
10
-95.075000000000045
20
177.85277777777779
10
-100.07500000000005
20
177.85277777777779
10
-100.07500000000005
20
155.48055555555555
10
-95.075000000000045
20
155.48055555555555
10
-95.075000000000045
20
133.40833333333333
10
-100.07500000000005
20
133.40833333333333
10
-100.07500000000005
20
111.0361111111111
10
-95.075000000000045
20
111.0361111111111
10
-95.075000000000045
20
88.963888888888903
10
-100.07500000000005
20
88.963888888888903
10
-100.07500000000005
20
66.591666666666654
10
-95.075000000000045
20
66.591666666666654
10
-95.075000000000045
20
44.519444444444431
10
-100.07500000000005
20
44.519444444444431
10
-100.07500000000005
20
22.147222222222211
10
-95.075000000000045
20
22.147222222222211
10
-95.075000000000045
20
-0.075000000000002842
10
-79.92500000000004
20
-0.075000000000002842
10
-79.92500000000004
20
4.9249999999999972
10
-60.075000000000038
20
4.9249999999999972
10
-60.075000000000038
20
-0.075000000000002842
10
-39.925000000000033
20
-0.075000000000002842
10
-39.925000000000033
20
4.9249999999999972
10
-20.075000000000038
20
4.9249999999999972
10
-20.075000000000038
20
-0.075000000000002842
10
-4.9250000000000327
20
-0.075000000000002842
10
-4.9250000000000327
20
22.147222222222194
10
0.074999999999985079
20
22.147222222222211
10
0.07499999999996726
20
44.519444444444431
0
ENDSEC
0
SECTION
2
OBJECTS
0
DICTIONARY
5
C
100
AcDbDictionary
3
ACAD_GROUP
350
D
3
ACAD_MLINESTYLE
350
17
0
DICTIONARY
5
D
100
AcDbDictionary
0
DICTIONARY
5
1A
330
C
100
AcDbDictionary
0
DICTIONARY
5
17
100
AcDbDictionary
0
ENDSEC
0
EOF
