0
SECTION
2
HEADER
9
$INSUNITS
70
4
9
$ACADVER
1
AC1014
9
$HANDSEED
5
FFFF
0
ENDSEC
0
SECTION
2
TABLES
0
TABLE
2
VPORT
5
8
100
AcDbSymbolTable
0
ENDTAB
0
TABLE
2
LTYPE
5
5
100
AcDbSymbolTable
70
2
0
LTYPE
5
14
100
AcDbSymbolTableRecord
100
AcDbLinetypeTableRecord
2
BYBLOCK
70
0
0
LTYPE
5
15
100
AcDbSymbolTableRecord
100
AcDbLinetypeTableRecord
2
BYLAYER
70
0
0
ENDTAB
0
TABLE
2
LAYER
5
2
100
AcDbSymbolTable
70
3
0
LAYER
5
50
100
AcDbSymbolTableRecord
100
AcDbLayerTableRecord
2
0
70
0
6
CONTINUOUS
0
LAYER
5
51
100
AcDbSymbolTableRecord
100
AcDbLayerTableRecord
2
CUTOUTS
70
0
62
1
6
CONTINUOUS
0
LAYER
5
52
100
AcDbSymbolTableRecord
100
AcDbLayerTableRecord
2
PERIMETER
70
0
62
5
6
CONTINUOUS
0
ENDTAB
0
TABLE
2
STYLE
5
3
100
AcDbSymbolTable
70
1
0
STYLE
5
11
100
AcDbSymbolTableRecord
100
AcDbTextStyleTableRecord
2
STANDARD
70
0
0
ENDTAB
0
TABLE
2
VIEW
5
6
100
AcDbSymbolTable
0
ENDTAB
0
TABLE
2
UCS
5
7
100
AcDbSymbolTable
0
ENDTAB
0
TABLE
2
APPID
5
9
100
AcDbSymbolTable
70
1
0
APPID
5
12
100
AcDbSymbolTableRecord
100
AcDbRegAppTableRecord
2
ACAD
70
0
0
ENDTAB
0
TABLE
2
DIMSTYLE
5
A
100
AcDbSymbolTable
0
ENDTAB
0
TABLE
2
BLOCK_RECORD
5
1
100
AcDbSymbolTable
70
2
0
BLOCK_RECORD
5
1F
100
AcDbSymbolTableRecord
100
AcDbBlockTableRecord
2
*MODEL_SPACE
0
BLOCK_RECORD
5
1B
100
AcDbSymbolTableRecord
100
AcDbBlockTableRecord
2
*PAPER_SPACE
0
ENDTAB
0
ENDSEC
0
SECTION
2
BLOCKS
0
BLOCK
5
20
100
AcDbEntity
100
AcDbBlockBegin
2
*MODEL_SPACE
0
ENDBLK
5
21
100
AcDbEntity
100
AcDbBlockEnd
0
BLOCK
5
1C
100
AcDbEntity
100
AcDbBlockBegin
2
*PAPER_SPACE
0
ENDBLK
5
1D
100
AcDbEntity
100
AcDbBlockEnd
0
ENDSEC
0
SECTION
2
ENTITIES
0
CIRCLE
5
100
100
AcDbEntity
8
CUTOUTS
100
AcDbCircle
10
207.02997287147292
20
65.375000000000014
30
0
40
1.9250000000000256
210
0
220
0
230
1
0
CIRCLE
5
101
100
AcDbEntity
8
CUTOUTS
100
AcDbCircle
10
225
20
34.249999999999979
30
0
40
1.9250000000000256
210
0
220
0
230
1
0
CIRCLE
5
102
100
AcDbEntity
8
CUTOUTS
100
AcDbCircle
10
242.97002712852714
20
65.375
30
0
40
1.9250000000000256
210
0
220
0
230
1
0
CIRCLE
5
103
100
AcDbEntity
8
CUTOUTS
100
AcDbCircle
10
187.5
20
104.49999999999996
30
0
40
1.4249999999999829
210
0
220
0
230
1
0
CIRCLE
5
104
100
AcDbEntity
8
CUTOUTS
100
AcDbCircle
10
187.5
20
135.49999999999997
30
0
40
1.4249999999999829
210
0
220
0
230
1
0
CIRCLE
5
105
100
AcDbEntity
8
CUTOUTS
100
AcDbCircle
10
214.625
20
72.970027128527136
30
0
40
1.9250000000000256
210
0
220
0
230
1
0
CIRCLE
5
106
100
AcDbEntity
8
CUTOUTS
100
AcDbCircle
10
245.75000000000003
20
55
30
0
40
1.9250000000000256
210
0
220
0
230
1
0
CIRCLE
5
107
100
AcDbEntity
8
CUTOUTS
100
AcDbCircle
10
214.625
20
37.0299728714729
30
0
40
1.9250000000000256
210
0
220
0
230
1
0
CIRCLE
5
108
100
AcDbEntity
8
CUTOUTS
100
AcDbCircle
10
204.24999999999997
20
55
30
0
40
1.9250000000000256
210
0
220
0
230
1
0
CIRCLE
5
109
100
AcDbEntity
8
CUTOUTS
100
AcDbCircle
10
235.37499999999994
20
37.029972871472872
30
0
40
1.9250000000000256
210
0
220
0
230
1
0
CIRCLE
5
10A
100
AcDbEntity
8
CUTOUTS
100
AcDbCircle
10
235.375
20
72.970027128527107
30
0
40
1.9250000000000256
210
0
220
0
230
1
0
CIRCLE
5
10B
100
AcDbEntity
8
CUTOUTS
100
AcDbCircle
10
262.5
20
104.49999999999996
30
0
40
1.4249999999999829
210
0
220
0
230
1
0
CIRCLE
5
10C
100
AcDbEntity
8
CUTOUTS
100
AcDbCircle
10
225
20
165
30
0
40
5.9250000000000114
210
0
220
0
230
1
0
CIRCLE
5
10D
100
AcDbEntity
8
CUTOUTS
100
AcDbCircle
10
262.5
20
135.49999999999997
30
0
40
1.4249999999999829
210
0
220
0
230
1
0
CIRCLE
5
10E
100
AcDbEntity
8
CUTOUTS
100
AcDbCircle
10
225
20
75.750000000000014
30
0
40
1.9250000000000256
210
0
220
0
230
1
0
CIRCLE
5
10F
100
AcDbEntity
8
CUTOUTS
100
AcDbCircle
10
242.97002712852708
20
44.624999999999986
30
0
40
1.9250000000000256
210
0
220
0
230
1
0
CIRCLE
5
110
100
AcDbEntity
8
CUTOUTS
100
AcDbCircle
10
207.02997287147286
20
44.625000000000021
30
0
40
1.9250000000000256
210
0
220
0
230
1
0
CIRCLE
5
111
100
AcDbEntity
8
CUTOUTS
100
AcDbCircle
10
202.37258300203047
20
32.372583002030417
30
0
40
1.5249999999999986
210
0
220
0
230
1
0
CIRCLE
5
112
100
AcDbEntity
8
CUTOUTS
100
AcDbCircle
10
202.37258300203047
20
77.62741699796949
30
0
40
1.5249999999999986
210
0
220
0
230
1
0
CIRCLE
5
113
100
AcDbEntity
8
CUTOUTS
100
AcDbCircle
10
247.62741699796953
20
32.372583002030417
30
0
40
1.5249999999999986
210
0
220
0
230
1
0
CIRCLE
5
114
100
AcDbEntity
8
CUTOUTS
100
AcDbCircle
10
247.62741699796953
20
77.627416997969476
30
0
40
1.5249999999999986
210
0
220
0
230
1
0
LWPOLYLINE
5
115
100
AcDbEntity
8
CUTOUTS
100
AcDbPolyline
90
4
70
1
43
0.0
10
47.925000000000011
20
128.25833333333333
10
47.925000000000004
20
111.1861111111111
10
43.07500000000001
20
111.1861111111111
10
43.075000000000017
20
128.25833333333333
0
LWPOLYLINE
5
116
100
AcDbEntity
8
CUTOUTS
100
AcDbPolyline
90
4
70
1
43
0.0
10
47.925000000000004
20
88.813888888888897
10
47.925000000000004
20
66.74166666666666
10
43.07500000000001
20
66.74166666666666
10
43.07500000000001
20
88.813888888888897
0
LWPOLYLINE
5
117
100
AcDbEntity
8
CUTOUTS
100
AcDbPolyline
90
4
70
1
43
0.0
10
43.07500000000001
20
44.369444444444426
10
47.925000000000004
20
44.369444444444426
10
47.925000000000004
20
22.297222222222217
10
43.07500000000001
20
22.297222222222217
0
LWPOLYLINE
5
118
100
AcDbEntity
8
CUTOUTS
100
AcDbPolyline
90
4
70
1
43
0.0
10
260.42500000000007
20
131.92499999999995
10
260.42500000000007
20
108.07499999999997
10
189.57500000000005
20
108.07499999999997
10
189.57500000000005
20
131.92499999999995
0
LWPOLYLINE
5
119
100
AcDbEntity
8
CUTOUTS
100
AcDbPolyline
90
4
70
1
43
0.0
10
160.07499999999999
20
44.369444444444426
10
164.92500000000001
20
44.369444444444426
10
164.92500000000001
20
22.297222222222217
10
160.07499999999999
20
22.297222222222217
0
LWPOLYLINE
5
11A
100
AcDbEntity
8
CUTOUTS
100
AcDbPolyline
90
4
70
1
43
0.0
10
160.07499999999999
20
177.70277777777778
10
164.92500000000001
20
177.70277777777778
10
164.92500000000001
20
155.63055555555556
10
160.07499999999999
20
155.63055555555556
0
LWPOLYLINE
5
11B
100
AcDbEntity
8
CUTOUTS
100
AcDbPolyline
90
4
70
1
43
0.0
10
160.07499999999999
20
88.813888888888897
10
164.92500000000001
20
88.813888888888897
10
164.92500000000001
20
66.74166666666666
10
160.07499999999999
20
66.74166666666666
0
LWPOLYLINE
5
11C
100
AcDbEntity
8
CUTOUTS
100
AcDbPolyline
90
6
70
1
43
0.0
10
140.07500000000002
20
133.2583333333333
10
164.92500000000001
20
133.25833333333333
10
164.92500000000001
20
111.1861111111111
10
160.07499999999999
20
111.1861111111111
10
160.07500000000005
20
128.4083333333333
10
140.07500000000002
20
128.4083333333333
0
LWPOLYLINE
5
11D
100
AcDbEntity
8
CUTOUTS
100
AcDbPolyline
90
4
70
1
43
0.0
10
20.075000000000021
20
128.4083333333333
10
20.075000000000021
20
133.2583333333333
10
39.925000000000011
20
133.2583333333333
10
39.925000000000011
20
128.4083333333333
0
LWPOLYLINE
5
11E
100
AcDbEntity
8
CUTOUTS
100
AcDbPolyline
90
4
70
1
43
0.0
10
79.925000000000011
20
133.2583333333333
10
79.925000000000011
20
128.4083333333333
10
60.075000000000017
20
128.4083333333333
10
60.075000000000017
20
133.2583333333333
0
LWPOLYLINE
5
11F
100
AcDbEntity
8
CUTOUTS
100
AcDbPolyline
90
4
70
1
43
0.0
10
100.07500000000002
20
133.2583333333333
10
119.92500000000001
20
133.2583333333333
10
119.92500000000001
20
128.4083333333333
10
100.07500000000002
20
128.4083333333333
0
LWPOLYLINE
5
120
100
AcDbEntity
8
PERIMETER
100
AcDbPolyline
90
92
70
1
43
0.0
10
40.133754649187367
20
4.9249999999999616
10
40.133754649187367
20
-0.075000000000038369
10
60.283754649187372
20
-0.075000000000038369
10
60.283754649187372
20
4.9249999999999616
10
80.133754649187367
20
4.9249999999999616
10
80.133754649187367
20
-0.075000000000038369
10
100.28375464918737
20
-0.075000000000038369
10
100.28375464918737
20
4.9249999999999616
10
120.13375464918737
20
4.9249999999999616
10
120.13375464918737
20
-0.075000000000038369
10
140.28375464918736
20
-0.075000000000038369
10
140.28375464918736
20
4.9249999999999616
10
160.13375464918738
20
4.9249999999999616
10
160.13375464918738
20
-0.075000000000038369
10
180.28375464918739
20
-0.075000000000038369
10
180.28375464918739
20
4.9249999999999616
10
200.13375464918738
20
4.9249999999999616
10
200.13375464918738
20
-0.075000000000038369
10
220.28375464918739
20
-0.075000000000038369
10
220.28375464918739
20
4.9249999999999616
10
240.13375464918738
20
4.9249999999999616
10
240.13375464918738
20
-0.075000000000038369
10
260.28375464918736
20
-0.075000000000038369
10
260.28375464918736
20
4.9249999999999616
10
280.13375464918738
20
4.9249999999999616
10
280.13375464918738
20
-0.075000000000038369
10
300.07499999999999
20
-0.075000000000038369
10
300.07500000000005
20
22.297222222222182
10
295.07499999999999
20
22.297222222222182
10
295.07499999999999
20
44.36944444444439
10
300.07500000000005
20
44.36944444444439
10
300.07500000000005
20
66.741666666666617
10
295.07499999999999
20
66.741666666666617
10
295.07499999999999
20
88.813888888888812
10
300.07500000000005
20
88.813888888888812
10
300.07500000000005
20
111.1861111111111
10
295.07499999999999
20
111.1861111111111
10
295.07499999999999
20
133.25833333333324
10
300.07500000000005
20
133.25833333333324
10
300.07500000000005
20
155.63055555555553
10
295.07499999999999
20
155.63055555555553
10
295.07499999999999
20
177.70277777777775
10
300.07499999999999
20
177.70277777777775
10
300.07499999999999
20
200.07499999999996
10
280.13375464918738
20
200.07499999999996
10
280.13375464918738
20
195.07499999999996
10
260.28375464918736
20
195.07499999999996
10
260.28375464918736
20
200.07499999999996
10
240.13375464918738
20
200.07499999999996
10
240.13375464918738
20
195.07499999999996
10
220.28375464918739
20
195.07499999999996
10
220.28375464918739
20
200.07499999999996
10
200.13375464918738
20
200.07499999999996
10
200.13375464918738
20
195.07499999999996
10
180.28375464918739
20
195.07499999999996
10
180.28375464918739
20
200.07499999999996
10
160.13375464918738
20
200.07499999999996
10
160.13375464918738
20
195.07499999999996
10
140.28375464918736
20
195.07499999999996
10
140.28375464918736
20
200.07499999999996
10
120.13375464918737
20
200.07499999999996
10
120.13375464918737
20
195.07499999999996
10
100.28375464918737
20
195.07499999999996
10
100.28375464918737
20
200.07499999999996
10
80.133754649187367
20
200.07499999999996
10
80.133754649187367
20
195.07499999999996
10
60.283754649187372
20
195.07499999999996
10
60.283754649187372
20
200.07499999999996
10
40.133754649187367
20
200.07499999999996
10
40.133754649187367
20
195.07499999999996
10
20.283754649187369
20
195.07499999999996
10
20.283754649187369
20
200.07499999999996
10
-0.075000000000020606
20
200.07499999999996
10
-0.075000000000018371
20
177.70277777777775
10
4.9249999999999812
20
177.70277777777775
10
4.9249999999999812
20
155.63055555555553
10
-0.075000000000018385
20
155.63055555555553
10
-0.075000000000018385
20
133.25833333333324
10
4.9249999999999812
20
133.25833333333324
10
4.9249999999999812
20
111.1861111111111
10
-0.075000000000018385
20
111.1861111111111
10
-0.075000000000018385
20
88.813888888888812
10
4.9249999999999812
20
88.813888888888812
10
4.9249999999999812
20
66.741666666666617
10
-0.075000000000018385
20
66.741666666666617
10
-0.075000000000018385
20
44.36944444444439
10
4.9249999999999812
20
44.36944444444439
10
4.9249999999999812
20
22.297222222222182
10
-0.075000000000018385
20
22.297222222222182
10
-0.075000000000018385
20
-0.075000000000038369
10
20.283754649187369
20
-0.075000000000038369
10
20.283754649187369
20
4.9249999999999616
0
ENDSEC
0
SECTION
2
OBJECTS
0
DICTIONARY
5
C
100
AcDbDictionary
3
ACAD_GROUP
350
D
3
ACAD_MLINESTYLE
350
17
0
DICTIONARY
5
D
100
AcDbDictionary
0
DICTIONARY
5
1A
330
C
100
AcDbDictionary
0
DICTIONARY
5
17
100
AcDbDictionary
0
ENDSEC
0
EOF
