0
SECTION
2
HEADER
9
$INSUNITS
70
4
9
$ACADVER
1
AC1014
9
$HANDSEED
5
FFFF
0
ENDSEC
0
SECTION
2
TABLES
0
TABLE
2
VPORT
5
8
100
AcDbSymbolTable
0
ENDTAB
0
TABLE
2
LTYPE
5
5
100
AcDbSymbolTable
70
2
0
LTYPE
5
14
100
AcDbSymbolTableRecord
100
AcDbLinetypeTableRecord
2
BYBLOCK
70
0
0
LTYPE
5
15
100
AcDbSymbolTableRecord
100
AcDbLinetypeTableRecord
2
BYLAYER
70
0
0
ENDTAB
0
TABLE
2
LAYER
5
2
100
AcDbSymbolTable
70
3
0
LAYER
5
50
100
AcDbSymbolTableRecord
100
AcDbLayerTableRecord
2
0
70
0
6
CONTINUOUS
0
LAYER
5
51
100
AcDbSymbolTableRecord
100
AcDbLayerTableRecord
2
CUTOUTS
70
0
62
1
6
CONTINUOUS
0
LAYER
5
52
100
AcDbSymbolTableRecord
100
AcDbLayerTableRecord
2
PERIMETER
70
0
62
5
6
CONTINUOUS
0
ENDTAB
0
TABLE
2
STYLE
5
3
100
AcDbSymbolTable
70
1
0
STYLE
5
11
100
AcDbSymbolTableRecord
100
AcDbTextStyleTableRecord
2
STANDARD
70
0
0
ENDTAB
0
TABLE
2
VIEW
5
6
100
AcDbSymbolTable
0
ENDTAB
0
TABLE
2
UCS
5
7
100
AcDbSymbolTable
0
ENDTAB
0
TABLE
2
APPID
5
9
100
AcDbSymbolTable
70
1
0
APPID
5
12
100
AcDbSymbolTableRecord
100
AcDbRegAppTableRecord
2
ACAD
70
0
0
ENDTAB
0
TABLE
2
DIMSTYLE
5
A
100
AcDbSymbolTable
0
ENDTAB
0
TABLE
2
BLOCK_RECORD
5
1
100
AcDbSymbolTable
70
2
0
BLOCK_RECORD
5
1F
100
AcDbSymbolTableRecord
100
AcDbBlockTableRecord
2
*MODEL_SPACE
0
BLOCK_RECORD
5
1B
100
AcDbSymbolTableRecord
100
AcDbBlockTableRecord
2
*PAPER_SPACE
0
ENDTAB
0
ENDSEC
0
SECTION
2
BLOCKS
0
BLOCK
5
20
100
AcDbEntity
100
AcDbBlockBegin
2
*MODEL_SPACE
0
ENDBLK
5
21
100
AcDbEntity
100
AcDbBlockEnd
0
BLOCK
5
1C
100
AcDbEntity
100
AcDbBlockBegin
2
*PAPER_SPACE
0
ENDBLK
5
1D
100
AcDbEntity
100
AcDbBlockEnd
0
ENDSEC
0
SECTION
2
ENTITIES
0
CIRCLE
5
100
100
AcDbEntity
8
CUTOUTS
100
AcDbCircle
10
-30.000002026557866
20
32.999999567866354
30
0
40
1.525000000000003
210
0
220
0
230
1
0
CIRCLE
5
101
100
AcDbEntity
8
CUTOUTS
100
AcDbCircle
10
-68.999997973442049
20
32.999999567866318
30
0
40
1.5249999999999986
210
0
220
0
230
1
0
CIRCLE
5
102
100
AcDbEntity
8
CUTOUTS
100
AcDbCircle
10
-71.189999999999941
20
103.81
30
0
40
1.5249999999999986
210
0
220
0
230
1
0
CIRCLE
5
103
100
AcDbEntity
8
CUTOUTS
100
AcDbCircle
10
-30.000002026557866
20
65.000000432133689
30
0
40
1.525000000000003
210
0
220
0
230
1
0
CIRCLE
5
104
100
AcDbEntity
8
CUTOUTS
100
AcDbCircle
10
-68.999997973442049
20
65.000000432133689
30
0
40
1.5249999999999986
210
0
220
0
230
1
0
CIRCLE
5
105
100
AcDbEntity
8
CUTOUTS
100
AcDbCircle
10
-28.009999999999952
20
139.36999999999998
30
0
40
1.525000000000003
210
0
220
0
230
1
0
CIRCLE
5
106
100
AcDbEntity
8
CUTOUTS
100
AcDbCircle
10
-49.999999999999872
20
180
30
0
40
3.4249999999999758
210
0
220
0
230
1
0
CIRCLE
5
107
100
AcDbEntity
8
CUTOUTS
100
AcDbCircle
10
-49.999999999999872
20
160
30
0
40
3.4249999999999758
210
0
220
0
230
1
0
LWPOLYLINE
5
108
100
AcDbEntity
8
PERIMETER
100
AcDbPolyline
90
52
70
1
43
0.0
10
-20.074999999999939
20
195.07499999999999
10
-39.924999999999933
20
195.07499999999999
10
-39.924999999999933
20
200.07499999999999
10
-60.074999999999939
20
200.07499999999999
10
-60.074999999999939
20
195.07499999999999
10
-79.92499999999994
20
195.07499999999999
10
-79.92499999999994
20
200.07499999999999
10
-95.074999999999932
20
200.07499999999999
10
-95.074999999999932
20
177.85277777777779
10
-100.07499999999993
20
177.85277777777779
10
-100.07499999999993
20
155.48055555555555
10
-95.074999999999932
20
155.48055555555555
10
-95.074999999999932
20
133.40833333333333
10
-100.07499999999993
20
133.40833333333333
10
-100.07499999999993
20
111.0361111111111
10
-95.074999999999932
20
111.0361111111111
10
-95.074999999999932
20
88.963888888888903
10
-100.07499999999993
20
88.963888888888903
10
-100.07499999999993
20
66.591666666666654
10
-95.074999999999932
20
66.591666666666654
10
-95.074999999999932
20
44.519444444444431
10
-100.07499999999993
20
44.519444444444431
10
-100.07499999999993
20
22.147222222222211
10
-95.074999999999932
20
22.147222222222204
10
-95.074999999999932
20
-0.075000000000002842
10
-79.924999999999926
20
-0.075000000000002842
10
-79.92499999999994
20
4.9249999999999972
10
-60.074999999999939
20
4.9249999999999972
10
-60.074999999999939
20
-0.075000000000002842
10
-39.924999999999933
20
-0.075000000000002842
10
-39.924999999999933
20
4.9249999999999972
10
-20.074999999999939
20
4.9249999999999972
10
-20.074999999999939
20
-0.075000000000002842
10
-4.924999999999935
20
-0.075000000000002842
10
-4.924999999999935
20
22.147222222222211
10
0.075000000000065015
20
22.147222222222211
10
0.075000000000065015
20
44.519444444444431
10
-4.924999999999935
20
44.519444444444431
10
-4.924999999999935
20
66.591666666666654
10
0.075000000000065015
20
66.591666666666654
10
0.075000000000065015
20
88.963888888888903
10
-4.924999999999935
20
88.963888888888903
10
-4.924999999999935
20
111.0361111111111
10
0.075000000000065015
20
111.0361111111111
10
0.075000000000065015
20
133.40833333333333
10
-4.924999999999935
20
133.40833333333333
10
-4.924999999999935
20
155.48055555555555
10
0.075000000000065015
20
155.48055555555555
10
0.075000000000065015
20
177.85277777777779
10
-4.924999999999935
20
177.85277777777779
10
-4.924999999999935
20
200.07499999999999
10
-20.074999999999939
20
200.07499999999999
0
ENDSEC
0
SECTION
2
OBJECTS
0
DICTIONARY
5
C
100
AcDbDictionary
3
ACAD_GROUP
350
D
3
ACAD_MLINESTYLE
350
17
0
DICTIONARY
5
D
100
AcDbDictionary
0
DICTIONARY
5
1A
330
C
100
AcDbDictionary
0
DICTIONARY
5
17
100
AcDbDictionary
0
ENDSEC
0
EOF
