0
SECTION
2
HEADER
9
$INSUNITS
70
4
9
$ACADVER
1
AC1014
9
$HANDSEED
5
FFFF
0
ENDSEC
0
SECTION
2
TABLES
0
TABLE
2
VPORT
5
8
100
AcDbSymbolTable
0
ENDTAB
0
TABLE
2
LTYPE
5
5
100
AcDbSymbolTable
70
2
0
LTYPE
5
14
100
AcDbSymbolTableRecord
100
AcDbLinetypeTableRecord
2
BYBLOCK
70
0
0
LTYPE
5
15
100
AcDbSymbolTableRecord
100
AcDbLinetypeTableRecord
2
BYLAYER
70
0
0
ENDTAB
0
TABLE
2
LAYER
5
2
100
AcDbSymbolTable
70
3
0
LAYER
5
50
100
AcDbSymbolTableRecord
100
AcDbLayerTableRecord
2
0
70
0
6
CONTINUOUS
0
LAYER
5
51
100
AcDbSymbolTableRecord
100
AcDbLayerTableRecord
2
CUTOUTS
70
0
62
1
6
CONTINUOUS
0
LAYER
5
52
100
AcDbSymbolTableRecord
100
AcDbLayerTableRecord
2
PERIMETER
70
0
62
5
6
CONTINUOUS
0
ENDTAB
0
TABLE
2
STYLE
5
3
100
AcDbSymbolTable
70
1
0
STYLE
5
11
100
AcDbSymbolTableRecord
100
AcDbTextStyleTableRecord
2
STANDARD
70
0
0
ENDTAB
0
TABLE
2
VIEW
5
6
100
AcDbSymbolTable
0
ENDTAB
0
TABLE
2
UCS
5
7
100
AcDbSymbolTable
0
ENDTAB
0
TABLE
2
APPID
5
9
100
AcDbSymbolTable
70
1
0
APPID
5
12
100
AcDbSymbolTableRecord
100
AcDbRegAppTableRecord
2
ACAD
70
0
0
ENDTAB
0
TABLE
2
DIMSTYLE
5
A
100
AcDbSymbolTable
0
ENDTAB
0
TABLE
2
BLOCK_RECORD
5
1
100
AcDbSymbolTable
70
2
0
BLOCK_RECORD
5
1F
100
AcDbSymbolTableRecord
100
AcDbBlockTableRecord
2
*MODEL_SPACE
0
BLOCK_RECORD
5
1B
100
AcDbSymbolTableRecord
100
AcDbBlockTableRecord
2
*PAPER_SPACE
0
ENDTAB
0
ENDSEC
0
SECTION
2
BLOCKS
0
BLOCK
5
20
100
AcDbEntity
100
AcDbBlockBegin
2
*MODEL_SPACE
0
ENDBLK
5
21
100
AcDbEntity
100
AcDbBlockEnd
0
BLOCK
5
1C
100
AcDbEntity
100
AcDbBlockBegin
2
*PAPER_SPACE
0
ENDBLK
5
1D
100
AcDbEntity
100
AcDbBlockEnd
0
ENDSEC
0
SECTION
2
ENTITIES
0
LWPOLYLINE
5
100
100
AcDbEntity
8
PERIMETER
100
AcDbPolyline
90
44
70
1
43
0.0
10
4.925000000000006
20
22.147222222222204
10
4.925000000000006
20
-0.075000000000002842
10
20.07500000000001
20
-0.075000000000002842
10
20.07500000000001
20
4.9249999999999972
10
39.925000000000004
20
4.9249999999999972
10
39.925000000000004
20
-0.075000000000002842
10
60.07500000000001
20
-0.075000000000002842
10
60.07500000000001
20
4.9249999999999972
10
79.924999999999997
20
4.9249999999999972
10
79.925000000000011
20
-0.075000000000002842
10
95.075000000000017
20
-0.075000000000002842
10
95.075000000000017
20
22.147222222222211
10
100.07500000000002
20
22.147222222222211
10
100.07500000000002
20
44.519444444444431
10
95.075000000000017
20
44.519444444444431
10
95.075000000000017
20
66.591666666666654
10
100.07500000000002
20
66.591666666666654
10
100.07500000000002
20
88.963888888888903
10
95.075000000000017
20
88.963888888888903
10
95.075000000000017
20
111.0361111111111
10
100.07500000000002
20
111.0361111111111
10
100.07500000000002
20
128.40833333333333
10
95.075000000000017
20
128.40833333333333
10
95.075000000000017
20
133.40833333333333
10
79.924999999999983
20
133.4083333333333
10
79.924999999999969
20
128.4083333333333
10
60.074999999999974
20
128.4083333333333
10
60.074999999999974
20
133.4083333333333
10
39.924999999999969
20
133.4083333333333
10
39.924999999999969
20
128.4083333333333
10
20.074999999999974
20
128.4083333333333
10
20.074999999999974
20
133.4083333333333
10
4.925000000000006
20
133.40833333333333
10
4.925000000000006
20
128.40833333333333
10
-0.07499999999999396
20
128.40833333333333
10
-0.075000000000011807
20
111.0361111111111
10
4.925000000000006
20
111.0361111111111
10
4.925000000000006
20
88.963888888888903
10
-0.075000000000011724
20
88.963888888888903
10
-0.075000000000011724
20
66.591666666666654
10
4.925000000000006
20
66.591666666666654
10
4.925000000000006
20
44.519444444444431
10
-0.07499999999999396
20
44.519444444444431
10
-0.075000000000011779
20
22.147222222222211
0
ENDSEC
0
SECTION
2
OBJECTS
0
DICTIONARY
5
C
100
AcDbDictionary
3
ACAD_GROUP
350
D
3
ACAD_MLINESTYLE
350
17
0
DICTIONARY
5
D
100
AcDbDictionary
0
DICTIONARY
5
1A
330
C
100
AcDbDictionary
0
DICTIONARY
5
17
100
AcDbDictionary
0
ENDSEC
0
EOF
