%TF.GenerationSoftware,KiCad,Pcbnew,7.0.9*%
%TF.CreationDate,2024-01-24T09:53:58+01:00*%
%TF.ProjectId,Final_project,46696e61-6c5f-4707-926f-6a6563742e6b,1*%
%TF.SameCoordinates,Original*%
%TF.FileFunction,Legend,Top*%
%TF.FilePolarity,Positive*%
%FSLAX46Y46*%
G04 Gerber Fmt 4.6, Leading zero omitted, Abs format (unit mm)*
G04 Created by KiCad (PCBNEW 7.0.9) date 2024-01-24 09:53:58*
%MOMM*%
%LPD*%
G01*
G04 APERTURE LIST*
G04 Aperture macros list*
%AMRoundRect*
0 Rectangle with rounded corners*
0 $1 Rounding radius*
0 $2 $3 $4 $5 $6 $7 $8 $9 X,Y pos of 4 corners*
0 Add a 4 corners polygon primitive as box body*
4,1,4,$2,$3,$4,$5,$6,$7,$8,$9,$2,$3,0*
0 Add four circle primitives for the rounded corners*
1,1,$1+$1,$2,$3*
1,1,$1+$1,$4,$5*
1,1,$1+$1,$6,$7*
1,1,$1+$1,$8,$9*
0 Add four rect primitives between the rounded corners*
20,1,$1+$1,$2,$3,$4,$5,0*
20,1,$1+$1,$4,$5,$6,$7,0*
20,1,$1+$1,$6,$7,$8,$9,0*
20,1,$1+$1,$8,$9,$2,$3,0*%
G04 Aperture macros list end*
%ADD10C,0.150000*%
%ADD11C,0.120000*%
%ADD12RoundRect,0.250000X0.600000X0.725000X-0.600000X0.725000X-0.600000X-0.725000X0.600000X-0.725000X0*%
%ADD13O,1.700000X1.950000*%
%ADD14RoundRect,0.250000X-0.750000X0.600000X-0.750000X-0.600000X0.750000X-0.600000X0.750000X0.600000X0*%
%ADD15O,2.000000X1.700000*%
%ADD16R,1.400000X1.700000*%
%ADD17RoundRect,0.250000X-0.600000X-0.725000X0.600000X-0.725000X0.600000X0.725000X-0.600000X0.725000X0*%
%ADD18C,3.200000*%
%ADD19R,1.905000X2.000000*%
%ADD20O,1.905000X2.000000*%
%ADD21R,2.000000X0.600000*%
%ADD22R,1.700000X1.400000*%
G04 APERTURE END LIST*
D10*
X82216666Y-126454819D02*
X82216666Y-127169104D01*
X82216666Y-127169104D02*
X82169047Y-127311961D01*
X82169047Y-127311961D02*
X82073809Y-127407200D01*
X82073809Y-127407200D02*
X81930952Y-127454819D01*
X81930952Y-127454819D02*
X81835714Y-127454819D01*
X83216666Y-127454819D02*
X82645238Y-127454819D01*
X82930952Y-127454819D02*
X82930952Y-126454819D01*
X82930952Y-126454819D02*
X82835714Y-126597676D01*
X82835714Y-126597676D02*
X82740476Y-126692914D01*
X82740476Y-126692914D02*
X82645238Y-126740533D01*
X93174819Y-136203333D02*
X93889104Y-136203333D01*
X93889104Y-136203333D02*
X94031961Y-136250952D01*
X94031961Y-136250952D02*
X94127200Y-136346190D01*
X94127200Y-136346190D02*
X94174819Y-136489047D01*
X94174819Y-136489047D02*
X94174819Y-136584285D01*
X93174819Y-135822380D02*
X93174819Y-135155714D01*
X93174819Y-135155714D02*
X94174819Y-135584285D01*
X111426666Y-107404819D02*
X111426666Y-108119104D01*
X111426666Y-108119104D02*
X111379047Y-108261961D01*
X111379047Y-108261961D02*
X111283809Y-108357200D01*
X111283809Y-108357200D02*
X111140952Y-108404819D01*
X111140952Y-108404819D02*
X111045714Y-108404819D01*
X111807619Y-107404819D02*
X112426666Y-107404819D01*
X112426666Y-107404819D02*
X112093333Y-107785771D01*
X112093333Y-107785771D02*
X112236190Y-107785771D01*
X112236190Y-107785771D02*
X112331428Y-107833390D01*
X112331428Y-107833390D02*
X112379047Y-107881009D01*
X112379047Y-107881009D02*
X112426666Y-107976247D01*
X112426666Y-107976247D02*
X112426666Y-108214342D01*
X112426666Y-108214342D02*
X112379047Y-108309580D01*
X112379047Y-108309580D02*
X112331428Y-108357200D01*
X112331428Y-108357200D02*
X112236190Y-108404819D01*
X112236190Y-108404819D02*
X111950476Y-108404819D01*
X111950476Y-108404819D02*
X111855238Y-108357200D01*
X111855238Y-108357200D02*
X111807619Y-108309580D01*
X110323333Y-141329580D02*
X110275714Y-141377200D01*
X110275714Y-141377200D02*
X110132857Y-141424819D01*
X110132857Y-141424819D02*
X110037619Y-141424819D01*
X110037619Y-141424819D02*
X109894762Y-141377200D01*
X109894762Y-141377200D02*
X109799524Y-141281961D01*
X109799524Y-141281961D02*
X109751905Y-141186723D01*
X109751905Y-141186723D02*
X109704286Y-140996247D01*
X109704286Y-140996247D02*
X109704286Y-140853390D01*
X109704286Y-140853390D02*
X109751905Y-140662914D01*
X109751905Y-140662914D02*
X109799524Y-140567676D01*
X109799524Y-140567676D02*
X109894762Y-140472438D01*
X109894762Y-140472438D02*
X110037619Y-140424819D01*
X110037619Y-140424819D02*
X110132857Y-140424819D01*
X110132857Y-140424819D02*
X110275714Y-140472438D01*
X110275714Y-140472438D02*
X110323333Y-140520057D01*
X110656667Y-140424819D02*
X111275714Y-140424819D01*
X111275714Y-140424819D02*
X110942381Y-140805771D01*
X110942381Y-140805771D02*
X111085238Y-140805771D01*
X111085238Y-140805771D02*
X111180476Y-140853390D01*
X111180476Y-140853390D02*
X111228095Y-140901009D01*
X111228095Y-140901009D02*
X111275714Y-140996247D01*
X111275714Y-140996247D02*
X111275714Y-141234342D01*
X111275714Y-141234342D02*
X111228095Y-141329580D01*
X111228095Y-141329580D02*
X111180476Y-141377200D01*
X111180476Y-141377200D02*
X111085238Y-141424819D01*
X111085238Y-141424819D02*
X110799524Y-141424819D01*
X110799524Y-141424819D02*
X110704286Y-141377200D01*
X110704286Y-141377200D02*
X110656667Y-141329580D01*
X126666666Y-118834819D02*
X126666666Y-119549104D01*
X126666666Y-119549104D02*
X126619047Y-119691961D01*
X126619047Y-119691961D02*
X126523809Y-119787200D01*
X126523809Y-119787200D02*
X126380952Y-119834819D01*
X126380952Y-119834819D02*
X126285714Y-119834819D01*
X127619047Y-118834819D02*
X127142857Y-118834819D01*
X127142857Y-118834819D02*
X127095238Y-119311009D01*
X127095238Y-119311009D02*
X127142857Y-119263390D01*
X127142857Y-119263390D02*
X127238095Y-119215771D01*
X127238095Y-119215771D02*
X127476190Y-119215771D01*
X127476190Y-119215771D02*
X127571428Y-119263390D01*
X127571428Y-119263390D02*
X127619047Y-119311009D01*
X127619047Y-119311009D02*
X127666666Y-119406247D01*
X127666666Y-119406247D02*
X127666666Y-119644342D01*
X127666666Y-119644342D02*
X127619047Y-119739580D01*
X127619047Y-119739580D02*
X127571428Y-119787200D01*
X127571428Y-119787200D02*
X127476190Y-119834819D01*
X127476190Y-119834819D02*
X127238095Y-119834819D01*
X127238095Y-119834819D02*
X127142857Y-119787200D01*
X127142857Y-119787200D02*
X127095238Y-119739580D01*
X97028095Y-132804819D02*
X97028095Y-133614342D01*
X97028095Y-133614342D02*
X97075714Y-133709580D01*
X97075714Y-133709580D02*
X97123333Y-133757200D01*
X97123333Y-133757200D02*
X97218571Y-133804819D01*
X97218571Y-133804819D02*
X97409047Y-133804819D01*
X97409047Y-133804819D02*
X97504285Y-133757200D01*
X97504285Y-133757200D02*
X97551904Y-133709580D01*
X97551904Y-133709580D02*
X97599523Y-133614342D01*
X97599523Y-133614342D02*
X97599523Y-132804819D01*
X98028095Y-132900057D02*
X98075714Y-132852438D01*
X98075714Y-132852438D02*
X98170952Y-132804819D01*
X98170952Y-132804819D02*
X98409047Y-132804819D01*
X98409047Y-132804819D02*
X98504285Y-132852438D01*
X98504285Y-132852438D02*
X98551904Y-132900057D01*
X98551904Y-132900057D02*
X98599523Y-132995295D01*
X98599523Y-132995295D02*
X98599523Y-133090533D01*
X98599523Y-133090533D02*
X98551904Y-133233390D01*
X98551904Y-133233390D02*
X97980476Y-133804819D01*
X97980476Y-133804819D02*
X98599523Y-133804819D01*
X111163333Y-136344819D02*
X110830000Y-135868628D01*
X110591905Y-136344819D02*
X110591905Y-135344819D01*
X110591905Y-135344819D02*
X110972857Y-135344819D01*
X110972857Y-135344819D02*
X111068095Y-135392438D01*
X111068095Y-135392438D02*
X111115714Y-135440057D01*
X111115714Y-135440057D02*
X111163333Y-135535295D01*
X111163333Y-135535295D02*
X111163333Y-135678152D01*
X111163333Y-135678152D02*
X111115714Y-135773390D01*
X111115714Y-135773390D02*
X111068095Y-135821009D01*
X111068095Y-135821009D02*
X110972857Y-135868628D01*
X110972857Y-135868628D02*
X110591905Y-135868628D01*
X111496667Y-135344819D02*
X112163333Y-135344819D01*
X112163333Y-135344819D02*
X111734762Y-136344819D01*
X103378095Y-118834819D02*
X103378095Y-119644342D01*
X103378095Y-119644342D02*
X103425714Y-119739580D01*
X103425714Y-119739580D02*
X103473333Y-119787200D01*
X103473333Y-119787200D02*
X103568571Y-119834819D01*
X103568571Y-119834819D02*
X103759047Y-119834819D01*
X103759047Y-119834819D02*
X103854285Y-119787200D01*
X103854285Y-119787200D02*
X103901904Y-119739580D01*
X103901904Y-119739580D02*
X103949523Y-119644342D01*
X103949523Y-119644342D02*
X103949523Y-118834819D01*
X104949523Y-119834819D02*
X104378095Y-119834819D01*
X104663809Y-119834819D02*
X104663809Y-118834819D01*
X104663809Y-118834819D02*
X104568571Y-118977676D01*
X104568571Y-118977676D02*
X104473333Y-119072914D01*
X104473333Y-119072914D02*
X104378095Y-119120533D01*
X93164819Y-105146666D02*
X92688628Y-105479999D01*
X93164819Y-105718094D02*
X92164819Y-105718094D01*
X92164819Y-105718094D02*
X92164819Y-105337142D01*
X92164819Y-105337142D02*
X92212438Y-105241904D01*
X92212438Y-105241904D02*
X92260057Y-105194285D01*
X92260057Y-105194285D02*
X92355295Y-105146666D01*
X92355295Y-105146666D02*
X92498152Y-105146666D01*
X92498152Y-105146666D02*
X92593390Y-105194285D01*
X92593390Y-105194285D02*
X92641009Y-105241904D01*
X92641009Y-105241904D02*
X92688628Y-105337142D01*
X92688628Y-105337142D02*
X92688628Y-105718094D01*
X92498152Y-104289523D02*
X93164819Y-104289523D01*
X92117200Y-104527618D02*
X92831485Y-104765713D01*
X92831485Y-104765713D02*
X92831485Y-104146666D01*
X89354819Y-105146666D02*
X88878628Y-105479999D01*
X89354819Y-105718094D02*
X88354819Y-105718094D01*
X88354819Y-105718094D02*
X88354819Y-105337142D01*
X88354819Y-105337142D02*
X88402438Y-105241904D01*
X88402438Y-105241904D02*
X88450057Y-105194285D01*
X88450057Y-105194285D02*
X88545295Y-105146666D01*
X88545295Y-105146666D02*
X88688152Y-105146666D01*
X88688152Y-105146666D02*
X88783390Y-105194285D01*
X88783390Y-105194285D02*
X88831009Y-105241904D01*
X88831009Y-105241904D02*
X88878628Y-105337142D01*
X88878628Y-105337142D02*
X88878628Y-105718094D01*
X88354819Y-104813332D02*
X88354819Y-104194285D01*
X88354819Y-104194285D02*
X88735771Y-104527618D01*
X88735771Y-104527618D02*
X88735771Y-104384761D01*
X88735771Y-104384761D02*
X88783390Y-104289523D01*
X88783390Y-104289523D02*
X88831009Y-104241904D01*
X88831009Y-104241904D02*
X88926247Y-104194285D01*
X88926247Y-104194285D02*
X89164342Y-104194285D01*
X89164342Y-104194285D02*
X89259580Y-104241904D01*
X89259580Y-104241904D02*
X89307200Y-104289523D01*
X89307200Y-104289523D02*
X89354819Y-104384761D01*
X89354819Y-104384761D02*
X89354819Y-104670475D01*
X89354819Y-104670475D02*
X89307200Y-104765713D01*
X89307200Y-104765713D02*
X89259580Y-104813332D01*
X126746666Y-109944819D02*
X126746666Y-110659104D01*
X126746666Y-110659104D02*
X126699047Y-110801961D01*
X126699047Y-110801961D02*
X126603809Y-110897200D01*
X126603809Y-110897200D02*
X126460952Y-110944819D01*
X126460952Y-110944819D02*
X126365714Y-110944819D01*
X127651428Y-110278152D02*
X127651428Y-110944819D01*
X127413333Y-109897200D02*
X127175238Y-110611485D01*
X127175238Y-110611485D02*
X127794285Y-110611485D01*
X82216666Y-116294819D02*
X82216666Y-117009104D01*
X82216666Y-117009104D02*
X82169047Y-117151961D01*
X82169047Y-117151961D02*
X82073809Y-117247200D01*
X82073809Y-117247200D02*
X81930952Y-117294819D01*
X81930952Y-117294819D02*
X81835714Y-117294819D01*
X82645238Y-116390057D02*
X82692857Y-116342438D01*
X82692857Y-116342438D02*
X82788095Y-116294819D01*
X82788095Y-116294819D02*
X83026190Y-116294819D01*
X83026190Y-116294819D02*
X83121428Y-116342438D01*
X83121428Y-116342438D02*
X83169047Y-116390057D01*
X83169047Y-116390057D02*
X83216666Y-116485295D01*
X83216666Y-116485295D02*
X83216666Y-116580533D01*
X83216666Y-116580533D02*
X83169047Y-116723390D01*
X83169047Y-116723390D02*
X82597619Y-117294819D01*
X82597619Y-117294819D02*
X83216666Y-117294819D01*
X96974819Y-105146666D02*
X96498628Y-105479999D01*
X96974819Y-105718094D02*
X95974819Y-105718094D01*
X95974819Y-105718094D02*
X95974819Y-105337142D01*
X95974819Y-105337142D02*
X96022438Y-105241904D01*
X96022438Y-105241904D02*
X96070057Y-105194285D01*
X96070057Y-105194285D02*
X96165295Y-105146666D01*
X96165295Y-105146666D02*
X96308152Y-105146666D01*
X96308152Y-105146666D02*
X96403390Y-105194285D01*
X96403390Y-105194285D02*
X96451009Y-105241904D01*
X96451009Y-105241904D02*
X96498628Y-105337142D01*
X96498628Y-105337142D02*
X96498628Y-105718094D01*
X95974819Y-104241904D02*
X95974819Y-104718094D01*
X95974819Y-104718094D02*
X96451009Y-104765713D01*
X96451009Y-104765713D02*
X96403390Y-104718094D01*
X96403390Y-104718094D02*
X96355771Y-104622856D01*
X96355771Y-104622856D02*
X96355771Y-104384761D01*
X96355771Y-104384761D02*
X96403390Y-104289523D01*
X96403390Y-104289523D02*
X96451009Y-104241904D01*
X96451009Y-104241904D02*
X96546247Y-104194285D01*
X96546247Y-104194285D02*
X96784342Y-104194285D01*
X96784342Y-104194285D02*
X96879580Y-104241904D01*
X96879580Y-104241904D02*
X96927200Y-104289523D01*
X96927200Y-104289523D02*
X96974819Y-104384761D01*
X96974819Y-104384761D02*
X96974819Y-104622856D01*
X96974819Y-104622856D02*
X96927200Y-104718094D01*
X96927200Y-104718094D02*
X96879580Y-104765713D01*
X85544819Y-105146666D02*
X85068628Y-105479999D01*
X85544819Y-105718094D02*
X84544819Y-105718094D01*
X84544819Y-105718094D02*
X84544819Y-105337142D01*
X84544819Y-105337142D02*
X84592438Y-105241904D01*
X84592438Y-105241904D02*
X84640057Y-105194285D01*
X84640057Y-105194285D02*
X84735295Y-105146666D01*
X84735295Y-105146666D02*
X84878152Y-105146666D01*
X84878152Y-105146666D02*
X84973390Y-105194285D01*
X84973390Y-105194285D02*
X85021009Y-105241904D01*
X85021009Y-105241904D02*
X85068628Y-105337142D01*
X85068628Y-105337142D02*
X85068628Y-105718094D01*
X84640057Y-104765713D02*
X84592438Y-104718094D01*
X84592438Y-104718094D02*
X84544819Y-104622856D01*
X84544819Y-104622856D02*
X84544819Y-104384761D01*
X84544819Y-104384761D02*
X84592438Y-104289523D01*
X84592438Y-104289523D02*
X84640057Y-104241904D01*
X84640057Y-104241904D02*
X84735295Y-104194285D01*
X84735295Y-104194285D02*
X84830533Y-104194285D01*
X84830533Y-104194285D02*
X84973390Y-104241904D01*
X84973390Y-104241904D02*
X85544819Y-104813332D01*
X85544819Y-104813332D02*
X85544819Y-104194285D01*
X125133333Y-136344819D02*
X124800000Y-135868628D01*
X124561905Y-136344819D02*
X124561905Y-135344819D01*
X124561905Y-135344819D02*
X124942857Y-135344819D01*
X124942857Y-135344819D02*
X125038095Y-135392438D01*
X125038095Y-135392438D02*
X125085714Y-135440057D01*
X125085714Y-135440057D02*
X125133333Y-135535295D01*
X125133333Y-135535295D02*
X125133333Y-135678152D01*
X125133333Y-135678152D02*
X125085714Y-135773390D01*
X125085714Y-135773390D02*
X125038095Y-135821009D01*
X125038095Y-135821009D02*
X124942857Y-135868628D01*
X124942857Y-135868628D02*
X124561905Y-135868628D01*
X125990476Y-135344819D02*
X125800000Y-135344819D01*
X125800000Y-135344819D02*
X125704762Y-135392438D01*
X125704762Y-135392438D02*
X125657143Y-135440057D01*
X125657143Y-135440057D02*
X125561905Y-135582914D01*
X125561905Y-135582914D02*
X125514286Y-135773390D01*
X125514286Y-135773390D02*
X125514286Y-136154342D01*
X125514286Y-136154342D02*
X125561905Y-136249580D01*
X125561905Y-136249580D02*
X125609524Y-136297200D01*
X125609524Y-136297200D02*
X125704762Y-136344819D01*
X125704762Y-136344819D02*
X125895238Y-136344819D01*
X125895238Y-136344819D02*
X125990476Y-136297200D01*
X125990476Y-136297200D02*
X126038095Y-136249580D01*
X126038095Y-136249580D02*
X126085714Y-136154342D01*
X126085714Y-136154342D02*
X126085714Y-135916247D01*
X126085714Y-135916247D02*
X126038095Y-135821009D01*
X126038095Y-135821009D02*
X125990476Y-135773390D01*
X125990476Y-135773390D02*
X125895238Y-135725771D01*
X125895238Y-135725771D02*
X125704762Y-135725771D01*
X125704762Y-135725771D02*
X125609524Y-135773390D01*
X125609524Y-135773390D02*
X125561905Y-135821009D01*
X125561905Y-135821009D02*
X125514286Y-135916247D01*
X104499580Y-115736666D02*
X104547200Y-115784285D01*
X104547200Y-115784285D02*
X104594819Y-115927142D01*
X104594819Y-115927142D02*
X104594819Y-116022380D01*
X104594819Y-116022380D02*
X104547200Y-116165237D01*
X104547200Y-116165237D02*
X104451961Y-116260475D01*
X104451961Y-116260475D02*
X104356723Y-116308094D01*
X104356723Y-116308094D02*
X104166247Y-116355713D01*
X104166247Y-116355713D02*
X104023390Y-116355713D01*
X104023390Y-116355713D02*
X103832914Y-116308094D01*
X103832914Y-116308094D02*
X103737676Y-116260475D01*
X103737676Y-116260475D02*
X103642438Y-116165237D01*
X103642438Y-116165237D02*
X103594819Y-116022380D01*
X103594819Y-116022380D02*
X103594819Y-115927142D01*
X103594819Y-115927142D02*
X103642438Y-115784285D01*
X103642438Y-115784285D02*
X103690057Y-115736666D01*
X103928152Y-114879523D02*
X104594819Y-114879523D01*
X103547200Y-115117618D02*
X104261485Y-115355713D01*
X104261485Y-115355713D02*
X104261485Y-114736666D01*
X100163333Y-141329580D02*
X100115714Y-141377200D01*
X100115714Y-141377200D02*
X99972857Y-141424819D01*
X99972857Y-141424819D02*
X99877619Y-141424819D01*
X99877619Y-141424819D02*
X99734762Y-141377200D01*
X99734762Y-141377200D02*
X99639524Y-141281961D01*
X99639524Y-141281961D02*
X99591905Y-141186723D01*
X99591905Y-141186723D02*
X99544286Y-140996247D01*
X99544286Y-140996247D02*
X99544286Y-140853390D01*
X99544286Y-140853390D02*
X99591905Y-140662914D01*
X99591905Y-140662914D02*
X99639524Y-140567676D01*
X99639524Y-140567676D02*
X99734762Y-140472438D01*
X99734762Y-140472438D02*
X99877619Y-140424819D01*
X99877619Y-140424819D02*
X99972857Y-140424819D01*
X99972857Y-140424819D02*
X100115714Y-140472438D01*
X100115714Y-140472438D02*
X100163333Y-140520057D01*
X100544286Y-140520057D02*
X100591905Y-140472438D01*
X100591905Y-140472438D02*
X100687143Y-140424819D01*
X100687143Y-140424819D02*
X100925238Y-140424819D01*
X100925238Y-140424819D02*
X101020476Y-140472438D01*
X101020476Y-140472438D02*
X101068095Y-140520057D01*
X101068095Y-140520057D02*
X101115714Y-140615295D01*
X101115714Y-140615295D02*
X101115714Y-140710533D01*
X101115714Y-140710533D02*
X101068095Y-140853390D01*
X101068095Y-140853390D02*
X100496667Y-141424819D01*
X100496667Y-141424819D02*
X101115714Y-141424819D01*
X107134819Y-115736666D02*
X106658628Y-116069999D01*
X107134819Y-116308094D02*
X106134819Y-116308094D01*
X106134819Y-116308094D02*
X106134819Y-115927142D01*
X106134819Y-115927142D02*
X106182438Y-115831904D01*
X106182438Y-115831904D02*
X106230057Y-115784285D01*
X106230057Y-115784285D02*
X106325295Y-115736666D01*
X106325295Y-115736666D02*
X106468152Y-115736666D01*
X106468152Y-115736666D02*
X106563390Y-115784285D01*
X106563390Y-115784285D02*
X106611009Y-115831904D01*
X106611009Y-115831904D02*
X106658628Y-115927142D01*
X106658628Y-115927142D02*
X106658628Y-116308094D01*
X107134819Y-114784285D02*
X107134819Y-115355713D01*
X107134819Y-115069999D02*
X106134819Y-115069999D01*
X106134819Y-115069999D02*
X106277676Y-115165237D01*
X106277676Y-115165237D02*
X106372914Y-115260475D01*
X106372914Y-115260475D02*
X106420533Y-115355713D01*
X126666666Y-127724819D02*
X126666666Y-128439104D01*
X126666666Y-128439104D02*
X126619047Y-128581961D01*
X126619047Y-128581961D02*
X126523809Y-128677200D01*
X126523809Y-128677200D02*
X126380952Y-128724819D01*
X126380952Y-128724819D02*
X126285714Y-128724819D01*
X127571428Y-127724819D02*
X127380952Y-127724819D01*
X127380952Y-127724819D02*
X127285714Y-127772438D01*
X127285714Y-127772438D02*
X127238095Y-127820057D01*
X127238095Y-127820057D02*
X127142857Y-127962914D01*
X127142857Y-127962914D02*
X127095238Y-128153390D01*
X127095238Y-128153390D02*
X127095238Y-128534342D01*
X127095238Y-128534342D02*
X127142857Y-128629580D01*
X127142857Y-128629580D02*
X127190476Y-128677200D01*
X127190476Y-128677200D02*
X127285714Y-128724819D01*
X127285714Y-128724819D02*
X127476190Y-128724819D01*
X127476190Y-128724819D02*
X127571428Y-128677200D01*
X127571428Y-128677200D02*
X127619047Y-128629580D01*
X127619047Y-128629580D02*
X127666666Y-128534342D01*
X127666666Y-128534342D02*
X127666666Y-128296247D01*
X127666666Y-128296247D02*
X127619047Y-128201009D01*
X127619047Y-128201009D02*
X127571428Y-128153390D01*
X127571428Y-128153390D02*
X127476190Y-128105771D01*
X127476190Y-128105771D02*
X127285714Y-128105771D01*
X127285714Y-128105771D02*
X127190476Y-128153390D01*
X127190476Y-128153390D02*
X127142857Y-128201009D01*
X127142857Y-128201009D02*
X127095238Y-128296247D01*
D11*
%TO.C,J1*%
X96830000Y-129750000D02*
X96830000Y-128500000D01*
X96540000Y-129460000D02*
X96540000Y-123490000D01*
X96540000Y-123490000D02*
X83920000Y-123490000D01*
X96530000Y-129450000D02*
X96530000Y-128700000D01*
X96530000Y-128700000D02*
X94730000Y-128700000D01*
X96530000Y-127200000D02*
X95780000Y-127200000D01*
X95780000Y-127200000D02*
X95780000Y-124250000D01*
X95780000Y-124250000D02*
X90230000Y-124250000D01*
X95580000Y-129750000D02*
X96830000Y-129750000D01*
X94730000Y-129450000D02*
X96530000Y-129450000D01*
X94730000Y-128700000D02*
X94730000Y-129450000D01*
X93230000Y-129450000D02*
X93230000Y-128700000D01*
X93230000Y-128700000D02*
X87230000Y-128700000D01*
X87230000Y-129450000D02*
X93230000Y-129450000D01*
X87230000Y-128700000D02*
X87230000Y-129450000D01*
X85730000Y-129450000D02*
X85730000Y-128700000D01*
X85730000Y-128700000D02*
X83930000Y-128700000D01*
X84680000Y-127200000D02*
X84680000Y-124250000D01*
X84680000Y-124250000D02*
X90230000Y-124250000D01*
X83930000Y-129450000D02*
X85730000Y-129450000D01*
X83930000Y-128700000D02*
X83930000Y-129450000D01*
X83930000Y-127200000D02*
X84680000Y-127200000D01*
X83920000Y-129460000D02*
X96540000Y-129460000D01*
X83920000Y-123490000D02*
X83920000Y-129460000D01*
%TO.C,J7*%
X92920000Y-131770000D02*
X91670000Y-131770000D01*
X92630000Y-132060000D02*
X86660000Y-132060000D01*
X86660000Y-132060000D02*
X86660000Y-139680000D01*
X92620000Y-132070000D02*
X91870000Y-132070000D01*
X91870000Y-132070000D02*
X91870000Y-133870000D01*
X90370000Y-132070000D02*
X90370000Y-132820000D01*
X90370000Y-132820000D02*
X87420000Y-132820000D01*
X87420000Y-132820000D02*
X87420000Y-135870000D01*
X92920000Y-133020000D02*
X92920000Y-131770000D01*
X92620000Y-133870000D02*
X92620000Y-132070000D01*
X91870000Y-133870000D02*
X92620000Y-133870000D01*
X92620000Y-135370000D02*
X91870000Y-135370000D01*
X91870000Y-135370000D02*
X91870000Y-136370000D01*
X92620000Y-136370000D02*
X92620000Y-135370000D01*
X91870000Y-136370000D02*
X92620000Y-136370000D01*
X92620000Y-137870000D02*
X91870000Y-137870000D01*
X91870000Y-137870000D02*
X91870000Y-139670000D01*
X90370000Y-138920000D02*
X87420000Y-138920000D01*
X87420000Y-138920000D02*
X87420000Y-135870000D01*
X92620000Y-139670000D02*
X92620000Y-137870000D01*
X91870000Y-139670000D02*
X92620000Y-139670000D01*
X90370000Y-139670000D02*
X90370000Y-138920000D01*
X92630000Y-139680000D02*
X92630000Y-132060000D01*
X86660000Y-139680000D02*
X92630000Y-139680000D01*
%TO.C,J3*%
X110760000Y-111225000D02*
X110760000Y-109975000D01*
X110470000Y-110935000D02*
X110470000Y-104965000D01*
X110470000Y-104965000D02*
X100350000Y-104965000D01*
X110460000Y-110925000D02*
X110460000Y-110175000D01*
X110460000Y-110175000D02*
X108660000Y-110175000D01*
X110460000Y-108675000D02*
X109710000Y-108675000D01*
X109710000Y-108675000D02*
X109710000Y-105725000D01*
X109710000Y-105725000D02*
X105410000Y-105725000D01*
X109510000Y-111225000D02*
X110760000Y-111225000D01*
X108660000Y-110925000D02*
X110460000Y-110925000D01*
X108660000Y-110175000D02*
X108660000Y-110925000D01*
X107160000Y-110925000D02*
X107160000Y-110175000D01*
X107160000Y-110175000D02*
X103660000Y-110175000D01*
X103660000Y-110925000D02*
X107160000Y-110925000D01*
X103660000Y-110175000D02*
X103660000Y-110925000D01*
X102160000Y-110925000D02*
X102160000Y-110175000D01*
X102160000Y-110175000D02*
X100360000Y-110175000D01*
X101110000Y-108675000D02*
X101110000Y-105725000D01*
X101110000Y-105725000D02*
X105410000Y-105725000D01*
X100360000Y-110925000D02*
X102160000Y-110925000D01*
X100360000Y-110175000D02*
X100360000Y-110925000D01*
X100360000Y-108675000D02*
X101110000Y-108675000D01*
X100350000Y-110935000D02*
X110470000Y-110935000D01*
X100350000Y-104965000D02*
X100350000Y-110935000D01*
%TO.C,C3*%
X108520000Y-139500000D02*
X106520000Y-139500000D01*
X106520000Y-137360000D02*
X108520000Y-137360000D01*
%TO.C,J5*%
X115260000Y-116630000D02*
X115260000Y-117880000D01*
X115550000Y-116920000D02*
X115550000Y-122890000D01*
X115550000Y-122890000D02*
X125670000Y-122890000D01*
X115560000Y-116930000D02*
X115560000Y-117680000D01*
X115560000Y-117680000D02*
X117360000Y-117680000D01*
X115560000Y-119180000D02*
X116310000Y-119180000D01*
X116310000Y-119180000D02*
X116310000Y-122130000D01*
X116310000Y-122130000D02*
X120610000Y-122130000D01*
X116510000Y-116630000D02*
X115260000Y-116630000D01*
X117360000Y-116930000D02*
X115560000Y-116930000D01*
X117360000Y-117680000D02*
X117360000Y-116930000D01*
X118860000Y-116930000D02*
X118860000Y-117680000D01*
X118860000Y-117680000D02*
X122360000Y-117680000D01*
X122360000Y-116930000D02*
X118860000Y-116930000D01*
X122360000Y-117680000D02*
X122360000Y-116930000D01*
X123860000Y-116930000D02*
X123860000Y-117680000D01*
X123860000Y-117680000D02*
X125660000Y-117680000D01*
X124910000Y-119180000D02*
X124910000Y-122130000D01*
X124910000Y-122130000D02*
X120610000Y-122130000D01*
X125660000Y-116930000D02*
X123860000Y-116930000D01*
X125660000Y-117680000D02*
X125660000Y-116930000D01*
X125660000Y-119180000D02*
X124910000Y-119180000D01*
X125670000Y-116920000D02*
X115550000Y-116920000D01*
X125670000Y-122890000D02*
X125670000Y-116920000D01*
%TO.C,U2*%
X99020000Y-131025000D02*
X99020000Y-135666000D01*
X99020000Y-131025000D02*
X109260000Y-131025000D01*
X99020000Y-132535000D02*
X109260000Y-132535000D01*
X99020000Y-135666000D02*
X109260000Y-135666000D01*
X102290000Y-131025000D02*
X102290000Y-132535000D01*
X105991000Y-131025000D02*
X105991000Y-132535000D01*
X109260000Y-131025000D02*
X109260000Y-135666000D01*
%TO.C,R7*%
X114140000Y-134820000D02*
X116140000Y-134820000D01*
X116140000Y-136960000D02*
X114140000Y-136960000D01*
%TO.C,U1*%
X104140000Y-120025000D02*
X100690000Y-120025000D01*
X104140000Y-120025000D02*
X106090000Y-120025000D01*
X104140000Y-128895000D02*
X102190000Y-128895000D01*
X104140000Y-128895000D02*
X106090000Y-128895000D01*
X101140000Y-119560000D02*
G75*
G03*
X101140000Y-119560000I-200000J0D01*
G01*
%TO.C,R4*%
X93780000Y-107790000D02*
X93780000Y-109790000D01*
X91640000Y-109790000D02*
X91640000Y-107790000D01*
%TO.C,R3*%
X89970000Y-107790000D02*
X89970000Y-109790000D01*
X87830000Y-109790000D02*
X87830000Y-107790000D01*
%TO.C,J4*%
X115340000Y-107740000D02*
X115340000Y-108990000D01*
X115630000Y-108030000D02*
X115630000Y-114000000D01*
X115630000Y-114000000D02*
X125750000Y-114000000D01*
X115640000Y-108040000D02*
X115640000Y-108790000D01*
X115640000Y-108790000D02*
X117440000Y-108790000D01*
X115640000Y-110290000D02*
X116390000Y-110290000D01*
X116390000Y-110290000D02*
X116390000Y-113240000D01*
X116390000Y-113240000D02*
X120690000Y-113240000D01*
X116590000Y-107740000D02*
X115340000Y-107740000D01*
X117440000Y-108040000D02*
X115640000Y-108040000D01*
X117440000Y-108790000D02*
X117440000Y-108040000D01*
X118940000Y-108040000D02*
X118940000Y-108790000D01*
X118940000Y-108790000D02*
X122440000Y-108790000D01*
X122440000Y-108040000D02*
X118940000Y-108040000D01*
X122440000Y-108790000D02*
X122440000Y-108040000D01*
X123940000Y-108040000D02*
X123940000Y-108790000D01*
X123940000Y-108790000D02*
X125740000Y-108790000D01*
X124990000Y-110290000D02*
X124990000Y-113240000D01*
X124990000Y-113240000D02*
X120690000Y-113240000D01*
X125740000Y-108040000D02*
X123940000Y-108040000D01*
X125740000Y-108790000D02*
X125740000Y-108040000D01*
X125740000Y-110290000D02*
X124990000Y-110290000D01*
X125750000Y-108030000D02*
X115630000Y-108030000D01*
X125750000Y-114000000D02*
X125750000Y-108030000D01*
%TO.C,J2*%
X96830000Y-119590000D02*
X96830000Y-118340000D01*
X96540000Y-119300000D02*
X96540000Y-113330000D01*
X96540000Y-113330000D02*
X83920000Y-113330000D01*
X96530000Y-119290000D02*
X96530000Y-118540000D01*
X96530000Y-118540000D02*
X94730000Y-118540000D01*
X96530000Y-117040000D02*
X95780000Y-117040000D01*
X95780000Y-117040000D02*
X95780000Y-114090000D01*
X95780000Y-114090000D02*
X90230000Y-114090000D01*
X95580000Y-119590000D02*
X96830000Y-119590000D01*
X94730000Y-119290000D02*
X96530000Y-119290000D01*
X94730000Y-118540000D02*
X94730000Y-119290000D01*
X93230000Y-119290000D02*
X93230000Y-118540000D01*
X93230000Y-118540000D02*
X87230000Y-118540000D01*
X87230000Y-119290000D02*
X93230000Y-119290000D01*
X87230000Y-118540000D02*
X87230000Y-119290000D01*
X85730000Y-119290000D02*
X85730000Y-118540000D01*
X85730000Y-118540000D02*
X83930000Y-118540000D01*
X84680000Y-117040000D02*
X84680000Y-114090000D01*
X84680000Y-114090000D02*
X90230000Y-114090000D01*
X83930000Y-119290000D02*
X85730000Y-119290000D01*
X83930000Y-118540000D02*
X83930000Y-119290000D01*
X83930000Y-117040000D02*
X84680000Y-117040000D01*
X83920000Y-119300000D02*
X96540000Y-119300000D01*
X83920000Y-113330000D02*
X83920000Y-119300000D01*
%TO.C,R5*%
X97590000Y-107790000D02*
X97590000Y-109790000D01*
X95450000Y-109790000D02*
X95450000Y-107790000D01*
%TO.C,R2*%
X86160000Y-107790000D02*
X86160000Y-109790000D01*
X84020000Y-109790000D02*
X84020000Y-107790000D01*
%TO.C,R6*%
X122490000Y-136960000D02*
X120490000Y-136960000D01*
X120490000Y-134820000D02*
X122490000Y-134820000D01*
%TO.C,C4*%
X102670000Y-114570000D02*
X102670000Y-116570000D01*
X100530000Y-116570000D02*
X100530000Y-114570000D01*
%TO.C,C2*%
X96360000Y-137360000D02*
X98360000Y-137360000D01*
X98360000Y-139500000D02*
X96360000Y-139500000D01*
%TO.C,R1*%
X108150000Y-116570000D02*
X108150000Y-114570000D01*
X110290000Y-114570000D02*
X110290000Y-116570000D01*
%TO.C,J6*%
X112720000Y-125520000D02*
X112720000Y-126770000D01*
X113010000Y-125810000D02*
X113010000Y-131780000D01*
X113010000Y-131780000D02*
X125630000Y-131780000D01*
X113020000Y-125820000D02*
X113020000Y-126570000D01*
X113020000Y-126570000D02*
X114820000Y-126570000D01*
X113020000Y-128070000D02*
X113770000Y-128070000D01*
X113770000Y-128070000D02*
X113770000Y-131020000D01*
X113770000Y-131020000D02*
X119320000Y-131020000D01*
X113970000Y-125520000D02*
X112720000Y-125520000D01*
X114820000Y-125820000D02*
X113020000Y-125820000D01*
X114820000Y-126570000D02*
X114820000Y-125820000D01*
X116320000Y-125820000D02*
X116320000Y-126570000D01*
X116320000Y-126570000D02*
X122320000Y-126570000D01*
X122320000Y-125820000D02*
X116320000Y-125820000D01*
X122320000Y-126570000D02*
X122320000Y-125820000D01*
X123820000Y-125820000D02*
X123820000Y-126570000D01*
X123820000Y-126570000D02*
X125620000Y-126570000D01*
X124870000Y-128070000D02*
X124870000Y-131020000D01*
X124870000Y-131020000D02*
X119320000Y-131020000D01*
X125620000Y-125820000D02*
X123820000Y-125820000D01*
X125620000Y-126570000D02*
X125620000Y-125820000D01*
X125620000Y-128070000D02*
X124870000Y-128070000D01*
X125630000Y-125810000D02*
X113010000Y-125810000D01*
X125630000Y-131780000D02*
X125630000Y-125810000D01*
%TD*%
%LPC*%
D12*
%TO.C,J1*%
X93980000Y-127000000D03*
D13*
X91480000Y-127000000D03*
X88980000Y-127000000D03*
X86480000Y-127000000D03*
%TD*%
D14*
%TO.C,J7*%
X90170000Y-134620000D03*
D15*
X90170000Y-137120000D03*
%TD*%
D12*
%TO.C,J3*%
X107910000Y-108475000D03*
D13*
X105410000Y-108475000D03*
X102910000Y-108475000D03*
%TD*%
D16*
%TO.C,C3*%
X109220000Y-138430000D03*
X105820000Y-138430000D03*
%TD*%
D17*
%TO.C,J5*%
X118110000Y-119380000D03*
D13*
X120610000Y-119380000D03*
X123110000Y-119380000D03*
%TD*%
D18*
%TO.C,*%
X82550000Y-137160000D03*
%TD*%
D19*
%TO.C,U2*%
X101600000Y-134295000D03*
D20*
X104140000Y-134295000D03*
X106680000Y-134295000D03*
%TD*%
D16*
%TO.C,R7*%
X113440000Y-135890000D03*
X116840000Y-135890000D03*
%TD*%
D18*
%TO.C,REF\u002A\u002A*%
X123190000Y-104140000D03*
%TD*%
D21*
%TO.C,U1*%
X101665000Y-120650000D03*
X101665000Y-121920000D03*
X101665000Y-123190000D03*
X101665000Y-124460000D03*
X101665000Y-125730000D03*
X101665000Y-127000000D03*
X101665000Y-128270000D03*
X106615000Y-128270000D03*
X106615000Y-127000000D03*
X106615000Y-125730000D03*
X106615000Y-124460000D03*
X106615000Y-123190000D03*
X106615000Y-121920000D03*
X106615000Y-120650000D03*
%TD*%
D22*
%TO.C,R4*%
X92710000Y-107090000D03*
X92710000Y-110490000D03*
%TD*%
%TO.C,R3*%
X88900000Y-107090000D03*
X88900000Y-110490000D03*
%TD*%
D17*
%TO.C,J4*%
X118190000Y-110490000D03*
D13*
X120690000Y-110490000D03*
X123190000Y-110490000D03*
%TD*%
D12*
%TO.C,J2*%
X93980000Y-116840000D03*
D13*
X91480000Y-116840000D03*
X88980000Y-116840000D03*
X86480000Y-116840000D03*
%TD*%
D22*
%TO.C,R5*%
X96520000Y-107090000D03*
X96520000Y-110490000D03*
%TD*%
%TO.C,R2*%
X85090000Y-107090000D03*
X85090000Y-110490000D03*
%TD*%
D16*
%TO.C,R6*%
X123190000Y-135890000D03*
X119790000Y-135890000D03*
%TD*%
D22*
%TO.C,C4*%
X101600000Y-113870000D03*
X101600000Y-117270000D03*
%TD*%
D16*
%TO.C,C2*%
X95660000Y-138430000D03*
X99060000Y-138430000D03*
%TD*%
D22*
%TO.C,R1*%
X109220000Y-117270000D03*
X109220000Y-113870000D03*
%TD*%
D17*
%TO.C,J6*%
X115570000Y-128270000D03*
D13*
X118070000Y-128270000D03*
X120570000Y-128270000D03*
X123070000Y-128270000D03*
%TD*%
%LPD*%
M02*
