%TF.GenerationSoftware,KiCad,Pcbnew,7.0.9*%
%TF.CreationDate,2024-02-07T18:21:05+01:00*%
%TF.ProjectId,Final_project,46696e61-6c5f-4707-926f-6a6563742e6b,1*%
%TF.SameCoordinates,Original*%
%TF.FileFunction,Drillmap*%
%TF.FilePolarity,Positive*%
%FSLAX45Y45*%
G04 Gerber Fmt 4.5, Leading zero omitted, Abs format (unit mm)*
G04 Created by KiCad (PCBNEW 7.0.9) date 2024-02-07 18:21:05*
%MOMM*%
%LPD*%
G01*
G04 APERTURE LIST*
%ADD10C,0.100000*%
%ADD11C,0.200000*%
G04 APERTURE END LIST*
D10*
X12954000Y-10160000D02*
G75*
G03*
X12827000Y-10033000I-127000J0D01*
G01*
X7874000Y-10160000D02*
X7874000Y-14224000D01*
X7874000Y-14224000D02*
G75*
G03*
X8001000Y-14351000I127000J0D01*
G01*
X8001000Y-14351000D02*
X12827000Y-14351000D01*
X12827000Y-10033000D02*
X8001000Y-10033000D01*
X12954000Y-14224000D02*
X12954000Y-10160000D01*
X12827000Y-14351000D02*
G75*
G03*
X12954000Y-14224000I0J127000D01*
G01*
X8001000Y-10033000D02*
G75*
G03*
X7874000Y-10160000I0J-127000D01*
G01*
D11*
X8129777Y-14667484D02*
X8129777Y-14467484D01*
X8129777Y-14467484D02*
X8177396Y-14467484D01*
X8177396Y-14467484D02*
X8205967Y-14477008D01*
X8205967Y-14477008D02*
X8225015Y-14496055D01*
X8225015Y-14496055D02*
X8234539Y-14515103D01*
X8234539Y-14515103D02*
X8244062Y-14553198D01*
X8244062Y-14553198D02*
X8244062Y-14581769D01*
X8244062Y-14581769D02*
X8234539Y-14619865D01*
X8234539Y-14619865D02*
X8225015Y-14638912D01*
X8225015Y-14638912D02*
X8205967Y-14657960D01*
X8205967Y-14657960D02*
X8177396Y-14667484D01*
X8177396Y-14667484D02*
X8129777Y-14667484D01*
X8329777Y-14667484D02*
X8329777Y-14534150D01*
X8329777Y-14572246D02*
X8339301Y-14553198D01*
X8339301Y-14553198D02*
X8348824Y-14543674D01*
X8348824Y-14543674D02*
X8367872Y-14534150D01*
X8367872Y-14534150D02*
X8386920Y-14534150D01*
X8453586Y-14667484D02*
X8453586Y-14534150D01*
X8453586Y-14467484D02*
X8444063Y-14477008D01*
X8444063Y-14477008D02*
X8453586Y-14486531D01*
X8453586Y-14486531D02*
X8463110Y-14477008D01*
X8463110Y-14477008D02*
X8453586Y-14467484D01*
X8453586Y-14467484D02*
X8453586Y-14486531D01*
X8577396Y-14667484D02*
X8558348Y-14657960D01*
X8558348Y-14657960D02*
X8548824Y-14638912D01*
X8548824Y-14638912D02*
X8548824Y-14467484D01*
X8682158Y-14667484D02*
X8663110Y-14657960D01*
X8663110Y-14657960D02*
X8653586Y-14638912D01*
X8653586Y-14638912D02*
X8653586Y-14467484D01*
X8910729Y-14667484D02*
X8910729Y-14467484D01*
X8910729Y-14467484D02*
X8977396Y-14610341D01*
X8977396Y-14610341D02*
X9044063Y-14467484D01*
X9044063Y-14467484D02*
X9044063Y-14667484D01*
X9225015Y-14667484D02*
X9225015Y-14562722D01*
X9225015Y-14562722D02*
X9215491Y-14543674D01*
X9215491Y-14543674D02*
X9196444Y-14534150D01*
X9196444Y-14534150D02*
X9158348Y-14534150D01*
X9158348Y-14534150D02*
X9139301Y-14543674D01*
X9225015Y-14657960D02*
X9205967Y-14667484D01*
X9205967Y-14667484D02*
X9158348Y-14667484D01*
X9158348Y-14667484D02*
X9139301Y-14657960D01*
X9139301Y-14657960D02*
X9129777Y-14638912D01*
X9129777Y-14638912D02*
X9129777Y-14619865D01*
X9129777Y-14619865D02*
X9139301Y-14600817D01*
X9139301Y-14600817D02*
X9158348Y-14591293D01*
X9158348Y-14591293D02*
X9205967Y-14591293D01*
X9205967Y-14591293D02*
X9225015Y-14581769D01*
X9320253Y-14534150D02*
X9320253Y-14734150D01*
X9320253Y-14543674D02*
X9339301Y-14534150D01*
X9339301Y-14534150D02*
X9377396Y-14534150D01*
X9377396Y-14534150D02*
X9396444Y-14543674D01*
X9396444Y-14543674D02*
X9405967Y-14553198D01*
X9405967Y-14553198D02*
X9415491Y-14572246D01*
X9415491Y-14572246D02*
X9415491Y-14629388D01*
X9415491Y-14629388D02*
X9405967Y-14648436D01*
X9405967Y-14648436D02*
X9396444Y-14657960D01*
X9396444Y-14657960D02*
X9377396Y-14667484D01*
X9377396Y-14667484D02*
X9339301Y-14667484D01*
X9339301Y-14667484D02*
X9320253Y-14657960D01*
X9501205Y-14648436D02*
X9510729Y-14657960D01*
X9510729Y-14657960D02*
X9501205Y-14667484D01*
X9501205Y-14667484D02*
X9491682Y-14657960D01*
X9491682Y-14657960D02*
X9501205Y-14648436D01*
X9501205Y-14648436D02*
X9501205Y-14667484D01*
X9501205Y-14543674D02*
X9510729Y-14553198D01*
X9510729Y-14553198D02*
X9501205Y-14562722D01*
X9501205Y-14562722D02*
X9491682Y-14553198D01*
X9491682Y-14553198D02*
X9501205Y-14543674D01*
X9501205Y-14543674D02*
X9501205Y-14562722D01*
M02*
